RecursiveMonoVar-StrictExtraBoldItalic.ufo
<glyph name="exclam" format="1">
  <advance width="600"/>
  <unicode hex="0021"/>
  <outline>
    <contour>
      <point x="359" y="290" type="line"/>
      <point x="389" y="361"/>
      <point x="418" y="431"/>
      <point x="448" y="502" type="curve"/>
      <point x="495" y="689" type="line" smooth="yes"/>
      <point x="497" y="696"/>
      <point x="493" y="700"/>
      <point x="487" y="700" type="curve" smooth="yes"/>
      <point x="415" y="700"/>
      <point x="359" y="700"/>
      <point x="318" y="700" type="curve"/>
      <point x="308" y="662"/>
      <point x="299" y="627"/>
      <point x="290" y="590" type="curve" smooth="yes"/>
      <point x="268" y="502" type="line"/>
      <point x="250" y="299"/>
      <point x="251" y="297"/>
      <point x="254" y="293" type="curve" smooth="yes"/>
      <point x="255" y="291"/>
      <point x="257" y="290"/>
      <point x="261" y="290" type="curve"/>
    </contour>
    <contour>
      <point x="330" y="-10" type="curve"/>
      <point x="377" y="179" type="line" smooth="yes"/>
      <point x="379" y="185"/>
      <point x="375" y="190"/>
      <point x="369" y="190" type="curve" smooth="yes"/>
      <point x="306" y="190"/>
      <point x="243" y="190"/>
      <point x="180" y="190" type="curve"/>
      <point x="133" y="1" type="line" smooth="yes"/>
      <point x="131" y="-5"/>
      <point x="135" y="-10"/>
      <point x="141" y="-10" type="curve" smooth="yes"/>
      <point x="204" y="-10"/>
      <point x="267" y="-10"/>
    </contour>
  </outline>
</glyph>
<glyph name="dollar" format="1">
  <advance width="600"/>
  <unicode hex="0024"/>
  <outline>
    <contour>
      <point x="437" y="720" type="curve" smooth="yes"/>
      <point x="276" y="720"/>
      <point x="154" y="638"/>
      <point x="125" y="523" type="curve" smooth="yes"/>
      <point x="115" y="480" type="line" smooth="yes"/>
      <point x="110" y="462"/>
      <point x="165" y="445"/>
      <point x="247" y="445" type="curve"/>
      <point x="255" y="476"/>
      <point x="259" y="495"/>
      <point x="265" y="519" type="curve" smooth="yes"/>
      <point x="272" y="547"/>
      <point x="313" y="575"/>
      <point x="389" y="575" type="curve" smooth="yes"/>
      <point x="469" y="575"/>
      <point x="522" y="563"/>
      <point x="565" y="530" type="curve"/>
      <point x="585" y="530" type="line"/>
      <point x="592" y="559"/>
      <point x="606" y="614"/>
      <point x="620" y="671" type="curve" smooth="yes"/>
      <point x="621" y="673"/>
      <point x="621" y="677"/>
      <point x="619" y="679" type="curve" smooth="yes"/>
      <point x="598" y="707"/>
      <point x="524" y="720"/>
    </contour>
    <contour>
      <point x="419" y="402" type="curve" smooth="yes"/>
      <point x="331" y="431" type="line" smooth="yes"/>
      <point x="266" y="452"/>
      <point x="252" y="465"/>
      <point x="261" y="501" type="curve" smooth="yes"/>
      <point x="266" y="522"/>
      <point x="269" y="534"/>
      <point x="277" y="567" type="curve"/>
      <point x="202" y="566"/>
      <point x="135" y="562"/>
      <point x="115" y="480" type="curve" smooth="yes"/>
      <point x="100" y="422"/>
      <point x="115" y="345"/>
      <point x="239" y="304" type="curve" smooth="yes"/>
      <point x="325" y="275" type="line" smooth="yes"/>
      <point x="397" y="251"/>
      <point x="400" y="234"/>
      <point x="392" y="204" type="curve" smooth="yes"/>
      <point x="386" y="179"/>
      <point x="375" y="132"/>
      <point x="365" y="96" type="curve"/>
      <point x="427" y="96"/>
      <point x="519" y="162"/>
      <point x="534" y="223" type="curve"/>
      <point x="554" y="302"/>
      <point x="535" y="364"/>
    </contour>
    <contour>
      <point x="206" y="-20" type="curve" smooth="yes"/>
      <point x="373" y="-20"/>
      <point x="494" y="62"/>
      <point x="523" y="177" type="curve" smooth="yes"/>
      <point x="534" y="223" type="line" smooth="yes"/>
      <point x="539" y="241"/>
      <point x="486" y="261"/>
      <point x="407" y="261" type="curve"/>
      <point x="398" y="228"/>
      <point x="393" y="207"/>
      <point x="387" y="181" type="curve" smooth="yes"/>
      <point x="380" y="153"/>
      <point x="340" y="125"/>
      <point x="254" y="125" type="curve" smooth="yes"/>
      <point x="164" y="125"/>
      <point x="108" y="144"/>
      <point x="58" y="183" type="curve"/>
      <point x="38" y="183" type="line"/>
      <point x="31" y="154"/>
      <point x="17" y="99"/>
      <point x="3" y="42" type="curve" smooth="yes"/>
      <point x="2" y="40"/>
      <point x="2" y="36"/>
      <point x="4" y="34" type="curve" smooth="yes"/>
      <point x="29" y="0"/>
      <point x="109" y="-20"/>
    </contour>
    <contour>
      <point x="418" y="473" type="line"/>
      <point x="534" y="773" type="line" smooth="yes"/>
      <point x="537" y="782"/>
      <point x="533" y="786"/>
      <point x="527" y="786" type="curve" smooth="yes"/>
      <point x="482" y="786"/>
      <point x="463" y="786"/>
      <point x="417" y="786" type="curve"/>
      <point x="409" y="753"/>
      <point x="401" y="720"/>
      <point x="392" y="687" type="curve"/>
      <point x="347" y="505" type="line" smooth="yes"/>
      <point x="345" y="497"/>
      <point x="347" y="492"/>
      <point x="354" y="490" type="curve" smooth="yes"/>
    </contour>
    <contour>
      <point x="243" y="231" type="line"/>
      <point x="123" y="-71" type="line" smooth="yes"/>
      <point x="118" y="-82"/>
      <point x="123" y="-86"/>
      <point x="129" y="-86" type="curve" smooth="yes"/>
      <point x="175" y="-86"/>
      <point x="196" y="-86"/>
      <point x="243" y="-86" type="curve"/>
      <point x="250" y="-56"/>
      <point x="259" y="-20"/>
      <point x="267" y="10" type="curve"/>
      <point x="314" y="199" type="line" smooth="yes"/>
      <point x="317" y="209"/>
      <point x="314" y="212"/>
      <point x="307" y="214" type="curve" smooth="yes"/>
    </contour>
  </outline>
</glyph>
<glyph name="percent" format="1">
  <advance width="600"/>
  <unicode hex="0025"/>
  <outline>
    <contour>
      <point x="256" y="618" type="curve"/>
      <point x="292" y="618"/>
      <point x="307" y="596"/>
      <point x="297" y="558" type="curve" smooth="yes"/>
      <point x="288" y="520" type="line" smooth="yes"/>
      <point x="277" y="476"/>
      <point x="253" y="452"/>
      <point x="215" y="452" type="curve" smooth="yes"/>
      <point x="183" y="452"/>
      <point x="174" y="452"/>
      <point x="147" y="452" type="curve"/>
      <point x="132" y="394"/>
      <point x="149" y="360"/>
      <point x="192" y="360" type="curve" smooth="yes"/>
      <point x="285" y="360"/>
      <point x="364" y="422"/>
      <point x="387" y="514" type="curve" smooth="yes"/>
      <point x="399" y="560" type="line" smooth="yes"/>
      <point x="422" y="654"/>
      <point x="373" y="710"/>
      <point x="279" y="710" type="curve" smooth="yes"/>
      <point x="260" y="710"/>
      <point x="253" y="695"/>
    </contour>
    <contour>
      <point x="215" y="452" type="curve"/>
      <point x="179" y="452"/>
      <point x="164" y="475"/>
      <point x="174" y="513" type="curve" smooth="yes"/>
      <point x="183" y="550" type="line" smooth="yes"/>
      <point x="194" y="594"/>
      <point x="218" y="618"/>
      <point x="256" y="618" type="curve" smooth="yes"/>
      <point x="288" y="618"/>
      <point x="297" y="618"/>
      <point x="324" y="618" type="curve"/>
      <point x="339" y="676"/>
      <point x="322" y="710"/>
      <point x="279" y="710" type="curve" smooth="yes"/>
      <point x="186" y="710"/>
      <point x="107" y="648"/>
      <point x="84" y="556" type="curve" smooth="yes"/>
      <point x="72" y="510" type="line" smooth="yes"/>
      <point x="49" y="416"/>
      <point x="98" y="360"/>
      <point x="192" y="360" type="curve" smooth="yes"/>
      <point x="211" y="360"/>
      <point x="217" y="375"/>
    </contour>
    <contour>
      <point x="425" y="248" type="curve"/>
      <point x="461" y="248"/>
      <point x="476" y="226"/>
      <point x="466" y="188" type="curve" smooth="yes"/>
      <point x="457" y="150" type="line" smooth="yes"/>
      <point x="446" y="106"/>
      <point x="422" y="82"/>
      <point x="384" y="82" type="curve" smooth="yes"/>
      <point x="352" y="82"/>
      <point x="343" y="82"/>
      <point x="316" y="82" type="curve"/>
      <point x="301" y="24"/>
      <point x="318" y="-10"/>
      <point x="361" y="-10" type="curve" smooth="yes"/>
      <point x="454" y="-10"/>
      <point x="533" y="52"/>
      <point x="556" y="144" type="curve" smooth="yes"/>
      <point x="568" y="190" type="line" smooth="yes"/>
      <point x="592" y="284"/>
      <point x="543" y="340"/>
      <point x="449" y="340" type="curve" smooth="yes"/>
      <point x="430" y="340"/>
      <point x="423" y="325"/>
    </contour>
    <contour>
      <point x="384" y="82" type="curve"/>
      <point x="348" y="82"/>
      <point x="334" y="105"/>
      <point x="343" y="143" type="curve" smooth="yes"/>
      <point x="352" y="180" type="line" smooth="yes"/>
      <point x="363" y="224"/>
      <point x="387" y="248"/>
      <point x="425" y="248" type="curve" smooth="yes"/>
      <point x="457" y="248"/>
      <point x="466" y="248"/>
      <point x="493" y="248" type="curve"/>
      <point x="508" y="306"/>
      <point x="492" y="340"/>
      <point x="449" y="340" type="curve" smooth="yes"/>
      <point x="356" y="340"/>
      <point x="276" y="278"/>
      <point x="253" y="186" type="curve" smooth="yes"/>
      <point x="241" y="140" type="line" smooth="yes"/>
      <point x="218" y="46"/>
      <point x="267" y="-10"/>
      <point x="361" y="-10" type="curve" smooth="yes"/>
      <point x="380" y="-10"/>
      <point x="387" y="5"/>
    </contour>
    <contour>
      <point x="391" y="405" type="curve"/>
      <point x="413" y="405"/>
      <point x="438" y="405"/>
      <point x="475" y="405" type="curve" smooth="yes"/>
      <point x="480" y="405"/>
      <point x="482" y="406"/>
      <point x="487" y="412" type="curve" smooth="yes"/>
      <point x="554" y="507"/>
      <point x="622" y="602"/>
      <point x="690" y="697" type="curve" smooth="yes"/>
      <point x="696" y="705"/>
      <point x="693" y="710"/>
      <point x="685" y="710" type="curve" smooth="yes"/>
      <point x="636" y="710"/>
      <point x="607" y="710"/>
      <point x="549" y="710" type="curve"/>
      <point x="497" y="608"/>
      <point x="443" y="507"/>
    </contour>
    <contour>
      <point x="250" y="296" type="curve"/>
      <point x="228" y="296"/>
      <point x="203" y="296"/>
      <point x="166" y="296" type="curve" smooth="yes"/>
      <point x="161" y="296"/>
      <point x="158" y="295"/>
      <point x="154" y="289" type="curve" smooth="yes"/>
      <point x="86" y="194"/>
      <point x="18" y="99"/>
      <point x="-50" y="4" type="curve" smooth="yes"/>
      <point x="-56" y="-4"/>
      <point x="-53" y="-9"/>
      <point x="-45" y="-9" type="curve" smooth="yes"/>
      <point x="4" y="-9"/>
      <point x="33" y="-9"/>
      <point x="91" y="-9" type="curve"/>
      <point x="144" y="93"/>
      <point x="197" y="194"/>
    </contour>
  </outline>
</glyph>
<glyph name="ampersand" format="1">
  <advance width="600"/>
  <unicode hex="0026"/>
  <outline>
    <contour>
      <point x="441" y="709" type="curve" smooth="yes"/>
      <point x="286" y="709"/>
      <point x="184" y="630"/>
      <point x="160" y="534" type="curve" smooth="yes"/>
      <point x="149" y="490"/>
      <point x="208" y="478"/>
      <point x="291" y="478" type="curve"/>
      <point x="293" y="488"/>
      <point x="298" y="507"/>
      <point x="302" y="520" type="curve" smooth="yes"/>
      <point x="308" y="545"/>
      <point x="329" y="564"/>
      <point x="393" y="564" type="curve" smooth="yes"/>
      <point x="448" y="564"/>
      <point x="481" y="556"/>
      <point x="529" y="544" type="curve"/>
      <point x="549" y="544" type="line"/>
      <point x="560" y="588"/>
      <point x="571" y="632"/>
      <point x="582" y="676" type="curve"/>
      <point x="583" y="681"/>
      <point x="583" y="684"/>
      <point x="581" y="686" type="curve" smooth="yes"/>
      <point x="574" y="695"/>
      <point x="524" y="709"/>
    </contour>
    <contour>
      <point x="314" y="457" type="curve" smooth="yes"/>
      <point x="299" y="486"/>
      <point x="296" y="500"/>
      <point x="302" y="520" type="curve" smooth="yes"/>
      <point x="307" y="544"/>
      <point x="316" y="569"/>
      <point x="340" y="595" type="curve"/>
      <point x="228" y="595"/>
      <point x="170" y="572"/>
      <point x="160" y="534" type="curve" smooth="yes"/>
      <point x="159" y="531" type="line" smooth="yes"/>
      <point x="145" y="474"/>
      <point x="152" y="438"/>
      <point x="200" y="342" type="curve" smooth="yes"/>
      <point x="253" y="235"/>
      <point x="315" y="112"/>
      <point x="337" y="67" type="curve" smooth="yes"/>
      <point x="366" y="9"/>
      <point x="395" y="-10"/>
      <point x="449" y="-10" type="curve" smooth="yes"/>
      <point x="499" y="-10" type="line" smooth="yes"/>
      <point x="507" y="-10"/>
      <point x="511" y="-6"/>
      <point x="513" y="1" type="curve" smooth="yes"/>
      <point x="531" y="74"/>
      <point x="535" y="89"/>
      <point x="547" y="140" type="curve"/>
      <point x="542" y="140" type="line"/>
      <point x="531" y="140"/>
      <point x="524" y="140"/>
      <point x="513" y="140" type="curve" smooth="yes"/>
      <point x="483" y="140"/>
      <point x="473" y="143"/>
      <point x="455" y="176" type="curve" smooth="yes"/>
      <point x="432" y="220"/>
      <point x="385" y="316"/>
    </contour>
    <contour>
      <point x="142" y="-9" type="curve" smooth="yes"/>
      <point x="237" y="-9"/>
      <point x="293" y="36"/>
      <point x="337" y="91" type="curve" smooth="yes"/>
      <point x="349" y="108"/>
      <point x="348" y="113"/>
      <point x="317" y="182" type="curve"/>
      <point x="267" y="134"/>
      <point x="242" y="119"/>
      <point x="201" y="119" type="curve" smooth="yes"/>
      <point x="165" y="119"/>
      <point x="151" y="139"/>
      <point x="162" y="184" type="curve" smooth="yes"/>
      <point x="175" y="235" type="line" smooth="yes"/>
      <point x="187" y="281"/>
      <point x="224" y="313"/>
      <point x="286" y="313" type="curve"/>
      <point x="281" y="350"/>
      <point x="257" y="384"/>
      <point x="230" y="384" type="curve" smooth="yes"/>
      <point x="149" y="384"/>
      <point x="48" y="325"/>
      <point x="25" y="234" type="curve" smooth="yes"/>
      <point x="6" y="160" type="line" smooth="yes"/>
      <point x="-20" y="54"/>
      <point x="30" y="-9"/>
    </contour>
    <contour>
      <point x="608" y="426" type="curve" smooth="yes"/>
      <point x="573" y="426"/>
      <point x="529" y="426"/>
      <point x="478" y="426" type="curve"/>
      <point x="472" y="402"/>
      <point x="466" y="377"/>
      <point x="460" y="353" type="curve" smooth="yes"/>
      <point x="445" y="295"/>
      <point x="432" y="270"/>
      <point x="397" y="241" type="curve" smooth="yes"/>
      <point x="380" y="228"/>
      <point x="383" y="223"/>
      <point x="409" y="173" type="curve"/>
      <point x="507" y="213"/>
      <point x="581" y="275"/>
      <point x="601" y="355" type="curve" smooth="yes"/>
      <point x="616" y="415" type="line" smooth="yes"/>
      <point x="618" y="422"/>
      <point x="616" y="426"/>
    </contour>
  </outline>
</glyph>
<glyph name="quotesingle" format="1">
  <advance width="600"/>
  <unicode hex="0027"/>
  <outline>
    <contour>
      <point x="411" y="450" type="curve"/>
      <point x="506" y="737" type="line" smooth="yes"/>
      <point x="509" y="746"/>
      <point x="505" y="750"/>
      <point x="499" y="750" type="curve" smooth="yes"/>
      <point x="448" y="750"/>
      <point x="392" y="750"/>
      <point x="330" y="750" type="curve"/>
      <point x="324" y="714"/>
      <point x="318" y="683"/>
      <point x="313" y="648" type="curve" smooth="yes"/>
      <point x="281" y="461" type="line" smooth="yes"/>
      <point x="280" y="454"/>
      <point x="284" y="450"/>
      <point x="290" y="450" type="curve" smooth="yes"/>
      <point x="331" y="450"/>
      <point x="370" y="450"/>
    </contour>
  </outline>
</glyph>
<glyph name="parenleft" format="1">
  <advance width="600"/>
  <unicode hex="0028"/>
  <outline>
    <contour>
      <point x="457" y="742" type="curve" smooth="yes"/>
      <point x="310" y="625"/>
      <point x="218" y="480"/>
      <point x="178" y="320" type="curve" smooth="yes"/>
      <point x="175" y="311" type="line" smooth="yes"/>
      <point x="136" y="153"/>
      <point x="158" y="12"/>
      <point x="245" y="-105" type="curve" smooth="yes"/>
      <point x="251" y="-113"/>
      <point x="256" y="-113"/>
      <point x="263" y="-113" type="curve" smooth="yes"/>
      <point x="322" y="-113"/>
      <point x="365" y="-113"/>
      <point x="429" y="-113" type="curve"/>
      <point x="434" y="-93" type="line"/>
      <point x="334" y="32"/>
      <point x="296" y="155"/>
      <point x="335" y="311" type="curve" smooth="yes"/>
      <point x="338" y="320" type="line" smooth="yes"/>
      <point x="377" y="478"/>
      <point x="475" y="612"/>
      <point x="635" y="730" type="curve"/>
      <point x="640" y="750" type="line"/>
      <point x="578" y="750"/>
      <point x="536" y="750"/>
      <point x="479" y="750" type="curve" smooth="yes"/>
      <point x="472" y="750"/>
      <point x="467" y="750"/>
    </contour>
  </outline>
</glyph>
<glyph name="parenright" format="1">
  <advance width="600"/>
  <unicode hex="0029"/>
  <outline>
    <contour>
      <point x="167" y="-105" type="curve" smooth="yes"/>
      <point x="314" y="12"/>
      <point x="407" y="157"/>
      <point x="447" y="317" type="curve" smooth="yes"/>
      <point x="449" y="326" type="line" smooth="yes"/>
      <point x="488" y="484"/>
      <point x="466" y="625"/>
      <point x="379" y="742" type="curve" smooth="yes"/>
      <point x="373" y="750"/>
      <point x="368" y="750"/>
      <point x="361" y="750" type="curve" smooth="yes"/>
      <point x="302" y="750"/>
      <point x="259" y="750"/>
      <point x="195" y="750" type="curve"/>
      <point x="190" y="730" type="line"/>
      <point x="290" y="605"/>
      <point x="328" y="482"/>
      <point x="289" y="326" type="curve" smooth="yes"/>
      <point x="287" y="317" type="line" smooth="yes"/>
      <point x="247" y="159"/>
      <point x="149" y="25"/>
      <point x="-11" y="-93" type="curve"/>
      <point x="-16" y="-113" type="line"/>
      <point x="46" y="-113"/>
      <point x="88" y="-113"/>
      <point x="145" y="-113" type="curve" smooth="yes"/>
      <point x="152" y="-113"/>
      <point x="157" y="-113"/>
    </contour>
  </outline>
</glyph>
<glyph name="asterisk" format="1">
  <advance width="600"/>
  <unicode hex="002A"/>
  <outline>
    <contour>
      <point x="305" y="568" type="curve"/>
      <point x="303" y="529"/>
      <point x="301" y="490"/>
      <point x="299" y="451" type="curve" smooth="yes"/>
      <point x="293" y="309" type="line"/>
      <point x="178" y="60" type="line" smooth="yes"/>
      <point x="176" y="54"/>
      <point x="178" y="50"/>
      <point x="184" y="50" type="curve"/>
      <point x="227" y="50"/>
      <point x="271" y="50"/>
      <point x="314" y="50" type="curve"/>
      <point x="316" y="89"/>
      <point x="317" y="128"/>
      <point x="319" y="167" type="curve" smooth="yes"/>
      <point x="326" y="309" type="line"/>
      <point x="440" y="558" type="line" smooth="yes"/>
      <point x="443" y="564"/>
      <point x="441" y="568"/>
      <point x="435" y="568" type="curve" smooth="yes"/>
      <point x="392" y="568"/>
      <point x="348" y="568"/>
    </contour>
    <contour>
      <point x="546" y="499" type="curve"/>
      <point x="306" y="324" type="line"/>
      <point x="44" y="245" type="line" smooth="yes"/>
      <point x="37" y="243"/>
      <point x="34" y="238"/>
      <point x="36" y="230" type="curve"/>
      <point x="48" y="193"/>
      <point x="61" y="157"/>
      <point x="72" y="120" type="curve"/>
      <point x="314" y="295" type="line"/>
      <point x="574" y="374" type="line" smooth="yes"/>
      <point x="582" y="376"/>
      <point x="585" y="382"/>
      <point x="583" y="389" type="curve" smooth="yes"/>
      <point x="571" y="426"/>
      <point x="558" y="462"/>
    </contour>
    <contour>
      <point x="551" y="241" type="curve"/>
      <point x="322" y="324" type="line"/>
      <point x="175" y="494" type="line" smooth="yes"/>
      <point x="171" y="498"/>
      <point x="166" y="497"/>
      <point x="159" y="490" type="curve"/>
      <point x="129" y="453"/>
      <point x="98" y="417"/>
      <point x="68" y="380" type="curve"/>
      <point x="298" y="296" type="line"/>
      <point x="443" y="127" type="line" smooth="yes"/>
      <point x="448" y="122"/>
      <point x="454" y="123"/>
      <point x="460" y="130" type="curve"/>
      <point x="490" y="167"/>
      <point x="520" y="204"/>
    </contour>
  </outline>
</glyph>
<glyph name="comma" format="1">
  <advance width="600"/>
  <unicode hex="002C"/>
  <outline>
    <contour>
      <point x="203" y="-190" type="curve" smooth="yes"/>
      <point x="208" y="-190"/>
      <point x="211" y="-189"/>
      <point x="215" y="-183" type="curve"/>
      <point x="283" y="-74"/>
      <point x="363" y="54"/>
      <point x="417" y="140" type="curve"/>
      <point x="422" y="148"/>
      <point x="421" y="153"/>
      <point x="413" y="153" type="curve" smooth="yes"/>
      <point x="342" y="153"/>
      <point x="300" y="153"/>
      <point x="217" y="153" type="curve"/>
      <point x="164" y="39"/>
      <point x="111" y="-76"/>
      <point x="59" y="-190" type="curve"/>
      <point x="97" y="-190"/>
      <point x="140" y="-190"/>
    </contour>
  </outline>
</glyph>
<glyph name="hyphen" format="1">
  <advance width="600"/>
  <unicode hex="002D"/>
  <outline>
    <contour>
      <point x="135" y="371" type="line"/>
      <point x="124" y="325"/>
      <point x="114" y="285"/>
      <point x="102" y="239" type="curve" smooth="yes"/>
      <point x="101" y="236"/>
      <point x="102" y="233"/>
      <point x="103" y="231" type="curve" smooth="yes"/>
      <point x="105" y="229"/>
      <point x="107" y="228"/>
      <point x="110" y="228" type="curve"/>
      <point x="479" y="228" type="line"/>
      <point x="491" y="274"/>
      <point x="501" y="314"/>
      <point x="513" y="360" type="curve" smooth="yes"/>
      <point x="514" y="366"/>
      <point x="510" y="371"/>
      <point x="504" y="371" type="curve"/>
    </contour>
  </outline>
</glyph>
<glyph name="period" format="1">
  <advance width="600"/>
  <unicode hex="002E"/>
  <outline>
    <contour>
      <point x="330" y="-10" type="curve"/>
      <point x="377" y="179" type="line" smooth="yes"/>
      <point x="379" y="185"/>
      <point x="375" y="190"/>
      <point x="369" y="190" type="curve" smooth="yes"/>
      <point x="306" y="190"/>
      <point x="243" y="190"/>
      <point x="180" y="190" type="curve"/>
      <point x="133" y="1" type="line" smooth="yes"/>
      <point x="131" y="-5"/>
      <point x="135" y="-10"/>
      <point x="141" y="-10" type="curve" smooth="yes"/>
      <point x="204" y="-10"/>
      <point x="267" y="-10"/>
    </contour>
  </outline>
</glyph>
<glyph name="zero" format="1">
  <advance width="600"/>
  <unicode hex="0030"/>
  <outline>
    <contour>
      <point x="396" y="720" type="curve" smooth="yes"/>
      <point x="258" y="720"/>
      <point x="141" y="636"/>
      <point x="99" y="468" type="curve" smooth="yes"/>
      <point x="51" y="274" type="line" smooth="yes"/>
      <point x="5" y="88"/>
      <point x="105" y="-20"/>
      <point x="241" y="-20" type="curve"/>
      <point x="241" y="-20"/>
      <point x="256" y="-5"/>
      <point x="260" y="115" type="curve"/>
      <point x="204" y="115"/>
      <point x="171" y="154"/>
      <point x="200" y="270" type="curve" smooth="yes"/>
      <point x="247" y="460" type="line" smooth="yes"/>
      <point x="271" y="555"/>
      <point x="319" y="585"/>
      <point x="377" y="585" type="curve" smooth="yes"/>
      <point x="424" y="585"/>
      <point x="468" y="585"/>
      <point x="494" y="585" type="curve"/>
      <point x="515" y="669"/>
      <point x="481" y="720"/>
    </contour>
    <contour>
      <point x="241" y="-20" type="curve" smooth="yes"/>
      <point x="379" y="-20"/>
      <point x="495" y="60"/>
      <point x="537" y="229" type="curve" smooth="yes"/>
      <point x="586" y="425" type="line" smooth="yes"/>
      <point x="632" y="612"/>
      <point x="533" y="720"/>
      <point x="396" y="720" type="curve"/>
      <point x="396" y="720"/>
      <point x="381" y="705"/>
      <point x="377" y="585" type="curve"/>
      <point x="433" y="585"/>
      <point x="466" y="546"/>
      <point x="437" y="430" type="curve" smooth="yes"/>
      <point x="390" y="240" type="line" smooth="yes"/>
      <point x="366" y="145"/>
      <point x="318" y="115"/>
      <point x="246" y="115" type="curve" smooth="yes"/>
      <point x="187" y="115"/>
      <point x="169" y="115"/>
      <point x="143" y="115" type="curve"/>
      <point x="122" y="31"/>
      <point x="156" y="-20"/>
    </contour>
    <contour>
      <point x="134" y="175" type="curve"/>
      <point x="243" y="249"/>
      <point x="353" y="323"/>
      <point x="462" y="397" type="curve"/>
      <point x="497" y="421"/>
      <point x="502" y="436"/>
      <point x="493" y="516" type="curve"/>
      <point x="375" y="437"/>
      <point x="257" y="359"/>
      <point x="139" y="280" type="curve" smooth="yes"/>
      <point x="113" y="263"/>
      <point x="115" y="247"/>
    </contour>
  </outline>
</glyph>
<glyph name="two" format="1">
  <advance width="600"/>
  <unicode hex="0032"/>
  <outline>
    <contour>
      <point x="464" y="590" type="curve"/>
      <point x="460" y="572"/>
      <point x="455" y="552"/>
      <point x="445" y="514" type="curve" smooth="yes"/>
      <point x="436" y="478"/>
      <point x="415" y="459"/>
      <point x="292" y="390" type="curve" smooth="yes"/>
      <point x="115" y="291"/>
      <point x="44" y="207"/>
      <point x="19" y="108" type="curve" smooth="yes"/>
      <point x="16" y="94"/>
      <point x="62" y="92"/>
      <point x="167" y="92" type="curve"/>
      <point x="189" y="178"/>
      <point x="216" y="204"/>
      <point x="338" y="271" type="curve" smooth="yes"/>
      <point x="503" y="362"/>
      <point x="569" y="411"/>
      <point x="593" y="506" type="curve" smooth="yes"/>
      <point x="600" y="534" type="line" smooth="yes"/>
      <point x="608" y="565"/>
      <point x="570" y="590"/>
    </contour>
    <contour>
      <point x="482" y="0" type="line"/>
      <point x="491" y="37"/>
      <point x="501" y="77"/>
      <point x="514" y="126" type="curve" smooth="yes"/>
      <point x="516" y="134"/>
      <point x="513" y="137"/>
      <point x="505" y="137" type="curve" smooth="yes"/>
      <point x="156" y="137" type="line" smooth="yes"/>
      <point x="112" y="137"/>
      <point x="63" y="131"/>
      <point x="19" y="108" type="curve"/>
      <point x="11" y="74"/>
      <point x="7" y="58"/>
      <point x="-5" y="11" type="curve" smooth="yes"/>
      <point x="-7" y="3"/>
      <point x="-5" y="0"/>
      <point x="3" y="0" type="curve" smooth="yes"/>
    </contour>
    <contour>
      <point x="402" y="720" type="curve" smooth="yes"/>
      <point x="296" y="720"/>
      <point x="209" y="693"/>
      <point x="184" y="673" type="curve" smooth="yes"/>
      <point x="181" y="670"/>
      <point x="179" y="667"/>
      <point x="178" y="662" type="curve" smooth="yes"/>
      <point x="164" y="608"/>
      <point x="155" y="572"/>
      <point x="145" y="532" type="curve"/>
      <point x="165" y="532" type="line"/>
      <point x="230" y="561"/>
      <point x="298" y="575"/>
      <point x="374" y="575" type="curve" smooth="yes"/>
      <point x="437" y="575"/>
      <point x="456" y="557"/>
      <point x="449" y="531" type="curve" smooth="yes"/>
      <point x="443" y="505"/>
      <point x="438" y="484"/>
      <point x="435" y="472" type="curve"/>
      <point x="535" y="473"/>
      <point x="592" y="501"/>
      <point x="600" y="534" type="curve" smooth="yes"/>
      <point x="627" y="643"/>
      <point x="549" y="720"/>
    </contour>
  </outline>
</glyph>
<glyph name="three" format="1">
  <advance width="600"/>
  <unicode hex="0033"/>
  <outline>
    <contour>
      <point x="351" y="575" type="curve" smooth="yes"/>
      <point x="445" y="575"/>
      <point x="459" y="545"/>
      <point x="450" y="510" type="curve" smooth="yes"/>
      <point x="443" y="483"/>
      <point x="440" y="471"/>
      <point x="435" y="450" type="curve"/>
      <point x="513" y="450"/>
      <point x="585" y="456"/>
      <point x="600" y="515" type="curve" smooth="yes"/>
      <point x="607" y="542" type="line" smooth="yes"/>
      <point x="633" y="644"/>
      <point x="543" y="720"/>
      <point x="398" y="720" type="curve" smooth="yes"/>
      <point x="291" y="720"/>
      <point x="193" y="698"/>
      <point x="179" y="687" type="curve" smooth="yes"/>
      <point x="177" y="685"/>
      <point x="176" y="683"/>
      <point x="175" y="680" type="curve" smooth="yes"/>
      <point x="163" y="629"/>
      <point x="151" y="584"/>
      <point x="143" y="550" type="curve"/>
      <point x="163" y="550" type="line"/>
      <point x="225" y="567"/>
      <point x="270" y="575"/>
    </contour>
    <contour>
      <point x="178" y="338" type="curve" smooth="yes"/>
      <point x="400" y="338"/>
      <point x="562" y="363"/>
      <point x="600" y="515" type="curve" smooth="yes"/>
      <point x="607" y="543"/>
      <point x="538" y="585"/>
      <point x="469" y="585" type="curve"/>
      <point x="462" y="560"/>
      <point x="456" y="535"/>
      <point x="450" y="510" type="curve" smooth="yes"/>
      <point x="437" y="459"/>
      <point x="408" y="425"/>
      <point x="189" y="425" type="curve"/>
      <point x="183" y="404"/>
      <point x="175" y="370"/>
      <point x="170" y="349" type="curve" smooth="yes"/>
      <point x="168" y="343"/>
      <point x="172" y="338"/>
    </contour>
    <contour>
      <point x="166" y="291" type="curve" smooth="yes"/>
      <point x="365" y="291"/>
      <point x="397" y="260"/>
      <point x="384" y="205" type="curve" smooth="yes"/>
      <point x="377" y="180"/>
      <point x="375" y="171"/>
      <point x="366" y="135" type="curve"/>
      <point x="460" y="135"/>
      <point x="518" y="147"/>
      <point x="532" y="202" type="curve" smooth="yes"/>
      <point x="565" y="336"/>
      <point x="413" y="381"/>
      <point x="178" y="381" type="curve"/>
      <point x="171" y="355"/>
      <point x="164" y="325"/>
      <point x="158" y="302" type="curve" smooth="yes"/>
      <point x="156" y="294"/>
      <point x="159" y="291"/>
    </contour>
    <contour>
      <point x="232" y="125" type="curve" smooth="yes"/>
      <point x="148" y="125"/>
      <point x="106" y="133"/>
      <point x="44" y="155" type="curve"/>
      <point x="24" y="155" type="line"/>
      <point x="14" y="116"/>
      <point x="4" y="76"/>
      <point x="-9" y="25" type="curve" smooth="yes"/>
      <point x="-10" y="22"/>
      <point x="-10" y="20"/>
      <point x="-9" y="18" type="curve" smooth="yes"/>
      <point x="0" y="6"/>
      <point x="91" y="-20"/>
      <point x="210" y="-20" type="curve" smooth="yes"/>
      <point x="377" y="-20"/>
      <point x="490" y="37"/>
      <point x="523" y="167" type="curve" smooth="yes"/>
      <point x="532" y="202" type="line" smooth="yes"/>
      <point x="544" y="249"/>
      <point x="480" y="272"/>
      <point x="400" y="271" type="curve"/>
      <point x="394" y="246"/>
      <point x="390" y="232"/>
      <point x="383" y="205" type="curve" smooth="yes"/>
      <point x="373" y="162"/>
      <point x="340" y="125"/>
    </contour>
  </outline>
</glyph>
<glyph name="six" format="1">
  <advance width="600"/>
  <unicode hex="0036"/>
  <outline>
    <contour>
      <point x="147" y="115" type="curve"/>
      <point x="120" y="6"/>
      <point x="204" y="-21"/>
      <point x="263" y="-21" type="curve"/>
      <point x="431" y="-21"/>
      <point x="499" y="54"/>
      <point x="529" y="176" type="curve" smooth="yes"/>
      <point x="545" y="237" type="line" smooth="yes"/>
      <point x="555" y="281"/>
      <point x="492" y="312"/>
      <point x="417" y="312" type="curve"/>
      <point x="408" y="276"/>
      <point x="404" y="260"/>
      <point x="394" y="223" type="curve" smooth="yes"/>
      <point x="387" y="198" type="line" smooth="yes"/>
      <point x="372" y="145"/>
      <point x="344" y="115"/>
      <point x="273" y="115" type="curve" smooth="yes"/>
      <point x="224" y="115"/>
      <point x="176" y="115"/>
    </contour>
    <contour>
      <point x="306" y="577" type="curve"/>
      <point x="343" y="577"/>
      <point x="362" y="577"/>
      <point x="411" y="577" type="curve" smooth="yes"/>
      <point x="484" y="577"/>
      <point x="518" y="567"/>
      <point x="566" y="547" type="curve"/>
      <point x="586" y="547" type="line"/>
      <point x="596" y="587"/>
      <point x="605" y="623"/>
      <point x="618" y="676" type="curve" smooth="yes"/>
      <point x="619" y="680"/>
      <point x="619" y="683"/>
      <point x="617" y="685" type="curve" smooth="yes"/>
      <point x="607" y="695"/>
      <point x="525" y="720"/>
      <point x="449" y="720" type="curve" smooth="yes"/>
      <point x="332" y="720"/>
      <point x="324" y="649"/>
    </contour>
    <contour>
      <point x="88" y="422" type="curve" smooth="yes"/>
      <point x="53" y="276" type="line" smooth="yes"/>
      <point x="8" y="94"/>
      <point x="103" y="-21"/>
      <point x="263" y="-21" type="curve" smooth="yes"/>
      <point x="277" y="-21"/>
      <point x="276" y="-5"/>
      <point x="273" y="115" type="curve"/>
      <point x="204" y="115"/>
      <point x="176" y="160"/>
      <point x="199" y="253" type="curve" smooth="yes"/>
      <point x="238" y="407" type="line" smooth="yes"/>
      <point x="268" y="528"/>
      <point x="319" y="577"/>
      <point x="411" y="577" type="curve"/>
      <point x="495" y="706"/>
      <point x="472" y="720"/>
      <point x="449" y="720" type="curve" smooth="yes"/>
      <point x="321" y="720"/>
      <point x="156" y="696"/>
    </contour>
    <contour>
      <point x="400" y="441" type="curve" smooth="yes"/>
      <point x="337" y="441"/>
      <point x="274" y="415"/>
      <point x="231" y="381" type="curve" smooth="yes"/>
      <point x="215" y="368"/>
      <point x="209" y="358"/>
      <point x="186" y="269" type="curve"/>
      <point x="232" y="300"/>
      <point x="278" y="314"/>
      <point x="325" y="314" type="curve" smooth="yes"/>
      <point x="391" y="314"/>
      <point x="408" y="278"/>
      <point x="394" y="223" type="curve" smooth="yes"/>
      <point x="389" y="205"/>
      <point x="385" y="190"/>
      <point x="382" y="180" type="curve"/>
      <point x="509" y="180"/>
      <point x="540" y="217"/>
      <point x="545" y="237" type="curve" smooth="yes"/>
      <point x="575" y="357"/>
      <point x="506" y="441"/>
    </contour>
  </outline>
</glyph>
<glyph name="seven" format="1">
  <advance width="600"/>
  <unicode hex="0037"/>
  <outline>
    <contour>
      <point x="521" y="565" type="line" smooth="yes"/>
      <point x="557" y="565"/>
      <point x="593" y="568"/>
      <point x="631" y="574" type="curve"/>
      <point x="659" y="689" type="line"/>
      <point x="661" y="695"/>
      <point x="657" y="700"/>
      <point x="651" y="700" type="curve"/>
      <point x="157" y="700" type="line"/>
      <point x="143" y="645" type="line" smooth="yes"/>
      <point x="129" y="587"/>
      <point x="139" y="565"/>
      <point x="164" y="565" type="curve" smooth="yes"/>
    </contour>
    <contour>
      <point x="256" y="0" type="line"/>
      <point x="482" y="350"/>
      <point x="629" y="567"/>
      <point x="631" y="574" type="curve" smooth="yes"/>
      <point x="640" y="612"/>
      <point x="588" y="621"/>
      <point x="496" y="620" type="curve"/>
      <point x="227" y="217"/>
      <point x="97" y="25"/>
      <point x="94" y="11" type="curve" smooth="yes"/>
      <point x="92" y="5"/>
      <point x="96" y="0"/>
      <point x="102" y="0" type="curve" smooth="yes"/>
    </contour>
    <contour>
      <point x="254" y="485" type="curve"/>
      <point x="264" y="528"/>
      <point x="286" y="615"/>
      <point x="297" y="659" type="curve"/>
      <point x="304" y="689"/>
      <point x="270" y="700"/>
      <point x="170" y="700" type="curve" smooth="yes"/>
      <point x="157" y="700" type="line"/>
      <point x="144" y="648"/>
      <point x="119" y="547"/>
      <point x="106" y="496" type="curve"/>
      <point x="105" y="490"/>
      <point x="109" y="485"/>
      <point x="115" y="485" type="curve" smooth="yes"/>
      <point x="161" y="485"/>
      <point x="208" y="485"/>
    </contour>
  </outline>
</glyph>
<glyph name="eight" format="1">
  <advance width="600"/>
  <unicode hex="0038"/>
  <outline>
    <contour>
      <point x="418" y="375" type="curve" smooth="yes"/>
      <point x="301" y="421" type="line" smooth="yes"/>
      <point x="270" y="433"/>
      <point x="258" y="465"/>
      <point x="267" y="498" type="curve" smooth="yes"/>
      <point x="272" y="519"/>
      <point x="278" y="544"/>
      <point x="286" y="577" type="curve"/>
      <point x="210" y="576"/>
      <point x="143" y="568"/>
      <point x="130" y="513" type="curve" smooth="yes"/>
      <point x="107" y="419"/>
      <point x="135" y="358"/>
      <point x="243" y="314" type="curve" smooth="yes"/>
      <point x="352" y="269" type="line" smooth="yes"/>
      <point x="393" y="252"/>
      <point x="400" y="232"/>
      <point x="391" y="194" type="curve" smooth="yes"/>
      <point x="378" y="144"/>
      <point x="375" y="132"/>
      <point x="368" y="105" type="curve"/>
      <point x="447" y="105"/>
      <point x="514" y="131"/>
      <point x="530" y="189" type="curve"/>
      <point x="551" y="274"/>
      <point x="519" y="335"/>
    </contour>
    <contour>
      <point x="236" y="-20" type="curve" smooth="yes"/>
      <point x="434" y="-20"/>
      <point x="498" y="64"/>
      <point x="520" y="153" type="curve" smooth="yes"/>
      <point x="530" y="189" type="line" smooth="yes"/>
      <point x="540" y="229"/>
      <point x="490" y="263"/>
      <point x="408" y="265" type="curve"/>
      <point x="407" y="260"/>
      <point x="399" y="228"/>
      <point x="388" y="184" type="curve" smooth="yes"/>
      <point x="379" y="146"/>
      <point x="337" y="115"/>
      <point x="260" y="115" type="curve" smooth="yes"/>
      <point x="199" y="115"/>
      <point x="174" y="115"/>
      <point x="138" y="115" type="curve"/>
      <point x="120" y="44"/>
      <point x="166" y="-20"/>
    </contour>
    <contour>
      <point x="412" y="720" type="curve" smooth="yes"/>
      <point x="264" y="720"/>
      <point x="165" y="645"/>
      <point x="138" y="543" type="curve" smooth="yes"/>
      <point x="130" y="513" type="line" smooth="yes"/>
      <point x="119" y="471"/>
      <point x="150" y="430"/>
      <point x="250" y="430" type="curve"/>
      <point x="254" y="448"/>
      <point x="260" y="471"/>
      <point x="270" y="513" type="curve" smooth="yes"/>
      <point x="280" y="552"/>
      <point x="316" y="585"/>
      <point x="380" y="585" type="curve" smooth="yes"/>
      <point x="452" y="585"/>
      <point x="469" y="585"/>
      <point x="502" y="585" type="curve"/>
      <point x="524" y="672"/>
      <point x="485" y="720"/>
    </contour>
    <contour>
      <point x="409" y="349" type="curve" smooth="yes"/>
      <point x="465" y="349"/>
      <point x="567" y="423"/>
      <point x="586" y="500" type="curve" smooth="yes"/>
      <point x="594" y="530" type="line" smooth="yes"/>
      <point x="621" y="638"/>
      <point x="552" y="720"/>
      <point x="412" y="720" type="curve" smooth="yes"/>
      <point x="390" y="720"/>
      <point x="383" y="712"/>
      <point x="380" y="585" type="curve"/>
      <point x="447" y="585"/>
      <point x="460" y="556"/>
      <point x="449" y="513" type="curve" smooth="yes"/>
      <point x="446" y="498" type="line" smooth="yes"/>
      <point x="436" y="458"/>
      <point x="409" y="414"/>
      <point x="322" y="393" type="curve"/>
      <point x="341" y="366"/>
      <point x="374" y="349"/>
    </contour>
    <contour>
      <point x="260" y="115" type="curve"/>
      <point x="186" y="115"/>
      <point x="158" y="144"/>
      <point x="168" y="184" type="curve" smooth="yes"/>
      <point x="171" y="194" type="line" smooth="yes"/>
      <point x="181" y="234"/>
      <point x="217" y="285"/>
      <point x="322" y="304" type="curve"/>
      <point x="302" y="334"/>
      <point x="284" y="348"/>
      <point x="222" y="348" type="curve" smooth="yes"/>
      <point x="160" y="348"/>
      <point x="53" y="282"/>
      <point x="32" y="200" type="curve" smooth="yes"/>
      <point x="22" y="160" type="line" smooth="yes"/>
      <point x="-5" y="51"/>
      <point x="85" y="-20"/>
      <point x="236" y="-20" type="curve" smooth="yes"/>
      <point x="252" y="-20"/>
      <point x="273" y="7"/>
    </contour>
  </outline>
</glyph>
<glyph name="colon" format="1">
  <advance width="600"/>
  <unicode hex="003A"/>
  <outline>
    <contour>
      <point x="420" y="350" type="curve"/>
      <point x="467" y="539" type="line" smooth="yes"/>
      <point x="469" y="545"/>
      <point x="465" y="550"/>
      <point x="459" y="550" type="curve" smooth="yes"/>
      <point x="396" y="550"/>
      <point x="333" y="550"/>
      <point x="270" y="550" type="curve"/>
      <point x="223" y="361" type="line" smooth="yes"/>
      <point x="221" y="355"/>
      <point x="225" y="350"/>
      <point x="231" y="350" type="curve" smooth="yes"/>
      <point x="294" y="350"/>
      <point x="357" y="350"/>
    </contour>
    <contour>
      <point x="330" y="-10" type="curve"/>
      <point x="377" y="179" type="line" smooth="yes"/>
      <point x="379" y="185"/>
      <point x="375" y="190"/>
      <point x="369" y="190" type="curve" smooth="yes"/>
      <point x="306" y="190"/>
      <point x="243" y="190"/>
      <point x="180" y="190" type="curve"/>
      <point x="133" y="1" type="line" smooth="yes"/>
      <point x="131" y="-5"/>
      <point x="135" y="-10"/>
      <point x="141" y="-10" type="curve" smooth="yes"/>
      <point x="204" y="-10"/>
      <point x="267" y="-10"/>
    </contour>
  </outline>
</glyph>
<glyph name="semicolon" format="1">
  <advance width="600"/>
  <unicode hex="003B"/>
  <outline>
    <contour>
      <point x="420" y="350" type="curve"/>
      <point x="467" y="539" type="line" smooth="yes"/>
      <point x="469" y="545"/>
      <point x="465" y="550"/>
      <point x="459" y="550" type="curve" smooth="yes"/>
      <point x="396" y="550"/>
      <point x="333" y="550"/>
      <point x="270" y="550" type="curve"/>
      <point x="223" y="361" type="line" smooth="yes"/>
      <point x="221" y="355"/>
      <point x="225" y="350"/>
      <point x="231" y="350" type="curve" smooth="yes"/>
      <point x="294" y="350"/>
      <point x="357" y="350"/>
    </contour>
    <contour>
      <point x="180" y="-240" type="curve" smooth="yes"/>
      <point x="185" y="-240"/>
      <point x="189" y="-239"/>
      <point x="192" y="-233" type="curve"/>
      <point x="260" y="-124"/>
      <point x="340" y="4"/>
      <point x="395" y="90" type="curve"/>
      <point x="400" y="98"/>
      <point x="398" y="103"/>
      <point x="390" y="103" type="curve" smooth="yes"/>
      <point x="319" y="103"/>
      <point x="277" y="103"/>
      <point x="194" y="103" type="curve"/>
      <point x="142" y="-11"/>
      <point x="89" y="-126"/>
      <point x="36" y="-240" type="curve"/>
      <point x="74" y="-240"/>
      <point x="117" y="-240"/>
    </contour>
  </outline>
</glyph>
<glyph name="greater" format="1">
  <advance width="600"/>
  <unicode hex="003E"/>
  <outline>
    <contour>
      <point x="52" y="158" type="curve"/>
      <point x="17" y="20" type="line"/>
      <point x="16" y="14"/>
      <point x="18" y="10"/>
      <point x="24" y="10" type="curve" smooth="yes"/>
      <point x="28" y="10"/>
      <point x="32" y="11"/>
      <point x="49" y="17" type="curve" smooth="yes"/>
      <point x="99" y="37"/>
      <point x="346" y="134"/>
      <point x="502" y="195" type="curve"/>
      <point x="547" y="374" type="line"/>
      <point x="524" y="348"/>
      <point x="498" y="329"/>
      <point x="428" y="302" type="curve"/>
      <point x="303" y="254"/>
      <point x="177" y="206"/>
    </contour>
    <contour>
      <point x="162" y="594" type="curve"/>
      <point x="150" y="546"/>
      <point x="139" y="503"/>
      <point x="127" y="455" type="curve" smooth="yes"/>
      <point x="125" y="445"/>
      <point x="125" y="442"/>
      <point x="135" y="437" type="curve" smooth="yes"/>
      <point x="214" y="400"/>
      <point x="297" y="360"/>
      <point x="375" y="323" type="curve" smooth="yes"/>
      <point x="384" y="319"/>
      <point x="386" y="314"/>
      <point x="384" y="304" type="curve" smooth="yes"/>
      <point x="378" y="283"/>
      <point x="372" y="257"/>
      <point x="362" y="219" type="curve"/>
      <point x="468" y="219"/>
      <point x="528" y="299"/>
      <point x="544" y="363" type="curve" smooth="yes"/>
      <point x="552" y="393" type="line" smooth="yes"/>
      <point x="554" y="403"/>
      <point x="551" y="411"/>
      <point x="542" y="414" type="curve" smooth="yes"/>
      <point x="415" y="474"/>
      <point x="289" y="534"/>
    </contour>
  </outline>
</glyph>
<glyph name="A" format="1">
  <advance width="600"/>
  <unicode hex="0041"/>
  <outline>
    <contour>
      <point x="122" y="0" type="curve"/>
      <point x="310" y="432"/>
      <point x="340" y="511"/>
      <point x="391" y="628" type="curve"/>
      <point x="405" y="660"/>
      <point x="431" y="681"/>
      <point x="528" y="700" type="curve"/>
      <point x="276" y="700" type="line"/>
      <point x="230" y="596"/>
      <point x="124" y="355"/>
      <point x="-28" y="13" type="curve"/>
      <point x="-32" y="3"/>
      <point x="-27" y="0"/>
      <point x="-23" y="0" type="curve" smooth="yes"/>
      <point x="25" y="0"/>
      <point x="74" y="0"/>
    </contour>
    <contour>
      <point x="498" y="0" type="curve"/>
      <point x="513" y="277"/>
      <point x="528" y="515"/>
      <point x="537" y="689" type="curve"/>
      <point x="538" y="694"/>
      <point x="536" y="696"/>
      <point x="535" y="697" type="curve" smooth="yes"/>
      <point x="534" y="699"/>
      <point x="532" y="700"/>
      <point x="528" y="700" type="curve"/>
      <point x="387" y="700"/>
      <point x="365" y="689"/>
      <point x="332" y="556" type="curve"/>
      <point x="348" y="556"/>
      <point x="369" y="556"/>
      <point x="381" y="556" type="curve" smooth="yes"/>
      <point x="385" y="556"/>
      <point x="388" y="555"/>
      <point x="388" y="550" type="curve"/>
      <point x="379" y="432"/>
      <point x="371" y="304"/>
      <point x="351" y="11" type="curve"/>
      <point x="351" y="6"/>
      <point x="351" y="4"/>
      <point x="352" y="3" type="curve" smooth="yes"/>
      <point x="353" y="1"/>
      <point x="355" y="0"/>
      <point x="359" y="0" type="curve" smooth="yes"/>
      <point x="406" y="0"/>
      <point x="451" y="0"/>
    </contour>
    <contour>
      <point x="152" y="292" type="line"/>
      <point x="121" y="166" type="line" smooth="yes"/>
      <point x="120" y="163"/>
      <point x="120" y="160"/>
      <point x="122" y="158" type="curve" smooth="yes"/>
      <point x="123" y="156"/>
      <point x="126" y="155"/>
      <point x="129" y="155" type="curve"/>
      <point x="438" y="155" type="line"/>
      <point x="471" y="288"/>
      <point x="467" y="292"/>
      <point x="461" y="292" type="curve" smooth="yes"/>
    </contour>
    <contour>
      <point x="410" y="711" type="move" name="top"/>
    </contour>
    <contour>
      <point x="498" y="-1" type="move" name="ogonek"/>
    </contour>
    <contour>
      <point x="407" y="700" type="move" name="ring"/>
    </contour>
    <contour>
      <point x="232" y="-1" type="move" name="bottom"/>
    </contour>
  </outline>
</glyph>
<glyph name="C" format="1">
  <advance width="600"/>
  <unicode hex="0043"/>
  <outline>
    <contour>
      <point x="405" y="582" type="curve" smooth="yes"/>
      <point x="468" y="582"/>
      <point x="501" y="561"/>
      <point x="529" y="532" type="curve"/>
      <point x="613" y="601"/>
      <point x="629" y="617"/>
      <point x="633" y="633" type="curve" smooth="yes"/>
      <point x="635" y="644"/>
      <point x="635" y="647"/>
      <point x="631" y="652" type="curve" smooth="yes"/>
      <point x="606" y="685"/>
      <point x="538" y="720"/>
      <point x="422" y="720" type="curve" smooth="yes"/>
      <point x="256" y="720"/>
      <point x="141" y="636"/>
      <point x="102" y="481" type="curve" smooth="yes"/>
      <point x="51" y="275" type="line" smooth="yes"/>
      <point x="25" y="174"/>
      <point x="72" y="105"/>
      <point x="168" y="106" type="curve"/>
      <point x="178" y="148"/>
      <point x="188" y="186"/>
      <point x="207" y="262" type="curve" smooth="yes"/>
      <point x="258" y="465" type="line" smooth="yes"/>
      <point x="279" y="548"/>
      <point x="335" y="582"/>
    </contour>
    <contour>
      <point x="281" y="-20" type="curve" smooth="yes"/>
      <point x="370" y="-20"/>
      <point x="455" y="5"/>
      <point x="486" y="30" type="curve" smooth="yes"/>
      <point x="488" y="32"/>
      <point x="490" y="35"/>
      <point x="491" y="38" type="curve" smooth="yes"/>
      <point x="502" y="82"/>
      <point x="513" y="128"/>
      <point x="524" y="172" type="curve"/>
      <point x="504" y="172" type="line"/>
      <point x="442" y="140"/>
      <point x="382" y="125"/>
      <point x="303" y="125" type="curve" smooth="yes"/>
      <point x="211" y="125"/>
      <point x="182" y="159"/>
      <point x="207" y="262" type="curve"/>
      <point x="67" y="289"/>
      <point x="55" y="291"/>
      <point x="51" y="275" type="curve" smooth="yes"/>
      <point x="3" y="84"/>
      <point x="74" y="-20"/>
    </contour>
    <contour>
      <point x="589" y="458" type="curve"/>
      <point x="633" y="633" type="line" smooth="yes"/>
      <point x="636" y="646"/>
      <point x="599" y="653"/>
      <point x="498" y="653" type="curve"/>
      <point x="494" y="638"/>
      <point x="488" y="616"/>
      <point x="485" y="603" type="curve" smooth="yes"/>
      <point x="452" y="469" type="line"/>
      <point x="451" y="466"/>
      <point x="451" y="463"/>
      <point x="453" y="461" type="curve" smooth="yes"/>
      <point x="454" y="459"/>
      <point x="457" y="458"/>
      <point x="460" y="458" type="curve"/>
      <point x="503" y="458"/>
      <point x="546" y="458"/>
    </contour>
    <contour>
      <point x="410" y="711" type="move" name="top"/>
    </contour>
    <contour>
      <point x="252" y="0" type="move" name="bottom"/>
    </contour>
  </outline>
</glyph>
<glyph name="E" format="1">
  <advance width="600"/>
  <unicode hex="0045"/>
  <outline>
    <contour>
      <point x="137" y="700" type="line"/>
      <point x="126" y="656"/>
      <point x="117" y="618"/>
      <point x="106" y="574" type="curve" smooth="yes"/>
      <point x="105" y="571"/>
      <point x="105" y="568"/>
      <point x="107" y="566" type="curve" smooth="yes"/>
      <point x="108" y="564"/>
      <point x="111" y="563"/>
      <point x="114" y="563" type="curve" smooth="yes"/>
      <point x="613" y="563" type="line"/>
      <point x="624" y="607"/>
      <point x="633" y="645"/>
      <point x="644" y="689" type="curve" smooth="yes"/>
      <point x="645" y="692"/>
      <point x="645" y="695"/>
      <point x="643" y="697" type="curve" smooth="yes"/>
      <point x="642" y="699"/>
      <point x="639" y="700"/>
      <point x="636" y="700" type="curve" smooth="yes"/>
    </contour>
    <contour>
      <point x="191" y="95" type="curve"/>
      <point x="327" y="639" type="line" smooth="yes"/>
      <point x="328" y="645"/>
      <point x="325" y="650"/>
      <point x="170" y="650" type="curve"/>
      <point x="41" y="137" type="line"/>
      <point x="36" y="116"/>
      <point x="61" y="95"/>
    </contour>
    <contour>
      <point x="41" y="137" type="line"/>
      <point x="10" y="11" type="line" smooth="yes"/>
      <point x="8" y="5"/>
      <point x="12" y="0"/>
      <point x="18" y="0" type="curve" smooth="yes"/>
      <point x="472" y="0" type="line"/>
      <point x="483" y="44"/>
      <point x="492" y="82"/>
      <point x="504" y="126" type="curve" smooth="yes"/>
      <point x="505" y="132"/>
      <point x="501" y="137"/>
      <point x="495" y="137" type="curve" smooth="yes"/>
    </contour>
    <contour>
      <point x="182" y="420" type="line"/>
      <point x="150" y="294"/>
      <point x="154" y="288"/>
      <point x="160" y="288" type="curve" smooth="yes"/>
      <point x="484" y="288" type="line"/>
      <point x="493" y="325"/>
      <point x="503" y="364"/>
      <point x="514" y="409" type="curve" smooth="yes"/>
      <point x="515" y="412"/>
      <point x="515" y="415"/>
      <point x="513" y="417" type="curve" smooth="yes"/>
      <point x="512" y="419"/>
      <point x="509" y="420"/>
      <point x="506" y="420" type="curve" smooth="yes"/>
    </contour>
    <contour>
      <point x="410" y="711" type="move" name="top"/>
    </contour>
    <contour>
      <point x="472" y="-1" type="move" name="ogonek"/>
    </contour>
    <contour>
      <point x="252" y="-1" type="move" name="bottom"/>
    </contour>
  </outline>
</glyph>
<glyph name="F" format="1">
  <advance width="600"/>
  <unicode hex="0046"/>
  <outline>
    <contour>
      <point x="187" y="0" type="curve"/>
      <point x="194" y="28"/>
      <point x="203" y="62"/>
      <point x="212" y="98" type="curve" smooth="yes"/>
      <point x="345" y="632" type="line"/>
      <point x="348" y="643"/>
      <point x="336" y="649"/>
      <point x="189" y="649" type="curve"/>
      <point x="30" y="11" type="line" smooth="yes"/>
      <point x="28" y="5"/>
      <point x="32" y="0"/>
      <point x="38" y="0" type="curve" smooth="yes"/>
      <point x="88" y="0"/>
      <point x="137" y="0"/>
    </contour>
    <contour>
      <point x="157" y="700" type="line"/>
      <point x="146" y="656"/>
      <point x="137" y="618"/>
      <point x="126" y="574" type="curve" smooth="yes"/>
      <point x="125" y="571"/>
      <point x="125" y="568"/>
      <point x="127" y="566" type="curve" smooth="yes"/>
      <point x="128" y="564"/>
      <point x="131" y="563"/>
      <point x="134" y="563" type="curve"/>
      <point x="613" y="563" type="line"/>
      <point x="624" y="607"/>
      <point x="633" y="645"/>
      <point x="644" y="689" type="curve" smooth="yes"/>
      <point x="645" y="692"/>
      <point x="645" y="695"/>
      <point x="643" y="697" type="curve" smooth="yes"/>
      <point x="642" y="699"/>
      <point x="639" y="700"/>
      <point x="636" y="700" type="curve"/>
    </contour>
    <contour>
      <point x="195" y="390" type="line"/>
      <point x="165" y="270"/>
      <point x="163" y="255"/>
      <point x="172" y="255" type="curve"/>
      <point x="496" y="255" type="line"/>
      <point x="507" y="299"/>
      <point x="516" y="335"/>
      <point x="527" y="379" type="curve"/>
      <point x="528" y="382"/>
      <point x="527" y="385"/>
      <point x="526" y="387" type="curve" smooth="yes"/>
      <point x="524" y="389"/>
      <point x="522" y="390"/>
      <point x="519" y="390" type="curve"/>
    </contour>
  </outline>
</glyph>
<glyph name="G" format="1">
  <advance width="574"/>
  <unicode hex="0047"/>
  <outline>
    <contour>
      <point x="391" y="586" type="curve" smooth="yes"/>
      <point x="454" y="586"/>
      <point x="481" y="576"/>
      <point x="514" y="543" type="curve"/>
      <point x="602" y="618"/>
      <point x="611" y="629"/>
      <point x="613" y="639" type="curve" smooth="yes"/>
      <point x="616" y="650"/>
      <point x="616" y="653"/>
      <point x="612" y="658" type="curve" smooth="yes"/>
      <point x="587" y="691"/>
      <point x="524" y="720"/>
      <point x="416" y="720" type="curve" smooth="yes"/>
      <point x="256" y="720"/>
      <point x="143" y="641"/>
      <point x="102" y="476" type="curve" smooth="yes"/>
      <point x="48" y="262" type="line" smooth="yes"/>
      <point x="35" y="203"/>
      <point x="78" y="128"/>
      <point x="165" y="129" type="curve"/>
      <point x="174" y="164"/>
      <point x="180" y="189"/>
      <point x="192" y="238" type="curve" smooth="yes"/>
      <point x="248" y="463" type="line" smooth="yes"/>
      <point x="268" y="543"/>
      <point x="313" y="586"/>
    </contour>
    <contour>
      <point x="259" y="115" type="curve" smooth="yes"/>
      <point x="196" y="115"/>
      <point x="171" y="153"/>
      <point x="192" y="238" type="curve"/>
      <point x="71" y="287"/>
      <point x="57" y="296"/>
      <point x="48" y="262" type="curve" smooth="yes"/>
      <point x="8" y="96"/>
      <point x="65" y="-20"/>
      <point x="243" y="-20" type="curve" smooth="yes"/>
      <point x="387" y="-20"/>
      <point x="472" y="56"/>
      <point x="475" y="70" type="curve" smooth="yes"/>
      <point x="527" y="278" type="line" smooth="yes"/>
      <point x="532" y="298"/>
      <point x="434" y="306"/>
      <point x="394" y="306" type="curve"/>
      <point x="381" y="256"/>
      <point x="368" y="199"/>
      <point x="355" y="147" type="curve" smooth="yes"/>
      <point x="353" y="141"/>
      <point x="319" y="115"/>
    </contour>
    <contour>
      <point x="325" y="390" type="line"/>
      <point x="315" y="350"/>
      <point x="305" y="311"/>
      <point x="295" y="271" type="curve" smooth="yes"/>
      <point x="295" y="268"/>
      <point x="295" y="265"/>
      <point x="296" y="263" type="curve" smooth="yes"/>
      <point x="298" y="261"/>
      <point x="301" y="260"/>
      <point x="304" y="260" type="curve"/>
      <point x="558" y="260" type="line"/>
      <point x="587" y="379" type="line" smooth="yes"/>
      <point x="589" y="385"/>
      <point x="585" y="390"/>
      <point x="579" y="390" type="curve" smooth="yes"/>
    </contour>
    <contour>
      <point x="577" y="495" type="curve"/>
      <point x="613" y="639" type="line" smooth="yes"/>
      <point x="618" y="657"/>
      <point x="611" y="663"/>
      <point x="479" y="663" type="curve"/>
      <point x="475" y="646"/>
      <point x="468" y="619"/>
      <point x="464" y="603" type="curve" smooth="yes"/>
      <point x="440" y="506" type="line" smooth="yes"/>
      <point x="438" y="499"/>
      <point x="441" y="495"/>
      <point x="448" y="495" type="curve" smooth="yes"/>
      <point x="491" y="495"/>
      <point x="534" y="495"/>
    </contour>
    <contour>
      <point x="415" y="711" type="move" name="top"/>
    </contour>
    <contour>
      <point x="237" y="-1" type="move" name="bottom"/>
    </contour>
  </outline>
</glyph>
<glyph name="H" format="1">
  <advance width="600"/>
  <unicode hex="0048"/>
  <outline>
    <contour>
      <point x="177" y="700" type="curve"/>
      <point x="168" y="664"/>
      <point x="159" y="629"/>
      <point x="150" y="593" type="curve" smooth="yes"/>
      <point x="5" y="11" type="line" smooth="yes"/>
      <point x="3" y="5"/>
      <point x="7" y="0"/>
      <point x="13" y="0" type="curve" smooth="yes"/>
      <point x="63" y="0"/>
      <point x="112" y="0"/>
      <point x="162" y="0" type="curve"/>
      <point x="334" y="689" type="line" smooth="yes"/>
      <point x="335" y="692"/>
      <point x="335" y="695"/>
      <point x="333" y="697" type="curve" smooth="yes"/>
      <point x="332" y="699"/>
      <point x="329" y="700"/>
      <point x="326" y="700" type="curve" smooth="yes"/>
      <point x="276" y="700"/>
      <point x="227" y="700"/>
    </contour>
    <contour>
      <point x="462" y="0" type="curve"/>
      <point x="470" y="32"/>
      <point x="480" y="70"/>
      <point x="490" y="110" type="curve" smooth="yes"/>
      <point x="634" y="689" type="line" smooth="yes"/>
      <point x="636" y="695"/>
      <point x="632" y="700"/>
      <point x="626" y="700" type="curve" smooth="yes"/>
      <point x="576" y="700"/>
      <point x="527" y="700"/>
      <point x="477" y="700" type="curve"/>
      <point x="305" y="11" type="line" smooth="yes"/>
      <point x="304" y="8"/>
      <point x="304" y="5"/>
      <point x="306" y="3" type="curve" smooth="yes"/>
      <point x="307" y="1"/>
      <point x="310" y="0"/>
      <point x="313" y="0" type="curve" smooth="yes"/>
      <point x="363" y="0"/>
      <point x="412" y="0"/>
    </contour>
    <contour>
      <point x="172" y="420" type="line"/>
      <point x="141" y="294" type="line" smooth="yes"/>
      <point x="140" y="291"/>
      <point x="140" y="288"/>
      <point x="142" y="286" type="curve" smooth="yes"/>
      <point x="143" y="284"/>
      <point x="146" y="283"/>
      <point x="149" y="283" type="curve"/>
      <point x="463" y="283" type="line"/>
      <point x="497" y="421"/>
      <point x="492" y="420"/>
      <point x="486" y="420" type="curve" smooth="yes"/>
    </contour>
    <contour>
      <point x="410" y="711" type="move" name="top"/>
    </contour>
  </outline>
</glyph>
<glyph name="J" format="1">
  <advance width="600"/>
  <unicode hex="004A"/>
  <outline>
    <contour>
      <point x="229" y="700" type="line"/>
      <point x="217" y="656"/>
      <point x="208" y="618"/>
      <point x="197" y="574" type="curve" smooth="yes"/>
      <point x="196" y="571"/>
      <point x="197" y="568"/>
      <point x="198" y="566" type="curve" smooth="yes"/>
      <point x="200" y="564"/>
      <point x="202" y="563"/>
      <point x="205" y="563" type="curve" smooth="yes"/>
      <point x="543" y="563" type="line"/>
      <point x="558" y="620"/>
      <point x="556" y="700"/>
      <point x="503" y="700" type="curve"/>
    </contour>
    <contour>
      <point x="499" y="227" type="curve" smooth="yes"/>
      <point x="615" y="689" type="line" smooth="yes"/>
      <point x="617" y="695"/>
      <point x="613" y="700"/>
      <point x="607" y="700" type="curve" smooth="yes"/>
      <point x="458" y="700" type="line"/>
      <point x="340" y="231" type="line" smooth="yes"/>
      <point x="324" y="167"/>
      <point x="318" y="143"/>
      <point x="309" y="107" type="curve"/>
      <point x="433" y="107"/>
      <point x="473" y="121"/>
    </contour>
    <contour>
      <point x="222" y="120" type="curve" smooth="yes"/>
      <point x="158" y="120"/>
      <point x="116" y="130"/>
      <point x="72" y="156" type="curve"/>
      <point x="52" y="156" type="line"/>
      <point x="41" y="115"/>
      <point x="32" y="78"/>
      <point x="22" y="37" type="curve"/>
      <point x="22" y="34"/>
      <point x="22" y="31"/>
      <point x="23" y="29" type="curve" smooth="yes"/>
      <point x="39" y="8"/>
      <point x="104" y="-20"/>
      <point x="201" y="-20" type="curve" smooth="yes"/>
      <point x="208" y="-20" type="line" smooth="yes"/>
      <point x="363" y="-20"/>
      <point x="460" y="68"/>
      <point x="499" y="227" type="curve"/>
      <point x="506" y="248"/>
      <point x="504" y="274"/>
      <point x="340" y="231" type="curve"/>
      <point x="319" y="147"/>
      <point x="281" y="120"/>
    </contour>
    <contour>
      <point x="405" y="711" type="move" name="top"/>
    </contour>
  </outline>
</glyph>
<glyph name="M" format="1">
  <advance width="600"/>
  <unicode hex="004D"/>
  <outline>
    <contour>
      <point x="132" y="0" type="curve"/>
      <point x="146" y="54"/>
      <point x="159" y="109"/>
      <point x="173" y="163" type="curve" smooth="yes"/>
      <point x="182" y="201"/>
      <point x="234" y="566"/>
      <point x="265" y="690" type="curve" smooth="yes"/>
      <point x="265" y="693"/>
      <point x="265" y="695"/>
      <point x="263" y="697" type="curve" smooth="yes"/>
      <point x="262" y="699"/>
      <point x="259" y="700"/>
      <point x="256" y="700" type="curve" smooth="yes"/>
      <point x="223" y="700"/>
      <point x="179" y="700"/>
      <point x="157" y="700" type="curve"/>
      <point x="149" y="667"/>
      <point x="140" y="633"/>
      <point x="132" y="600" type="curve" smooth="yes"/>
      <point x="-15" y="11" type="line" smooth="yes"/>
      <point x="-16" y="8"/>
      <point x="-16" y="5"/>
      <point x="-14" y="3" type="curve" smooth="yes"/>
      <point x="-13" y="1"/>
      <point x="-10" y="0"/>
      <point x="-7" y="0" type="curve" smooth="yes"/>
      <point x="39" y="0"/>
      <point x="86" y="0"/>
    </contour>
    <contour>
      <point x="482" y="0" type="curve"/>
      <point x="490" y="33"/>
      <point x="499" y="67"/>
      <point x="507" y="100" type="curve" smooth="yes"/>
      <point x="654" y="689" type="line" smooth="yes"/>
      <point x="655" y="692"/>
      <point x="655" y="695"/>
      <point x="653" y="697" type="curve" smooth="yes"/>
      <point x="652" y="699"/>
      <point x="649" y="700"/>
      <point x="646" y="700" type="curve" smooth="yes"/>
      <point x="547" y="700" type="line"/>
      <point x="546" y="696"/>
      <point x="545" y="693"/>
      <point x="544" y="689" type="curve" smooth="yes"/>
      <point x="510" y="552"/>
      <point x="382" y="200"/>
      <point x="373" y="163" type="curve" smooth="yes"/>
      <point x="360" y="112"/>
      <point x="348" y="62"/>
      <point x="335" y="11" type="curve" smooth="yes"/>
      <point x="334" y="8"/>
      <point x="334" y="5"/>
      <point x="336" y="3" type="curve" smooth="yes"/>
      <point x="337" y="1"/>
      <point x="340" y="0"/>
      <point x="343" y="0" type="curve"/>
      <point x="389" y="0"/>
      <point x="436" y="0"/>
    </contour>
    <contour>
      <point x="189" y="700" type="line"/>
      <point x="212" y="524"/>
      <point x="236" y="346"/>
      <point x="258" y="173" type="curve"/>
      <point x="260" y="166"/>
      <point x="264" y="165"/>
      <point x="268" y="165" type="curve"/>
      <point x="284" y="165"/>
      <point x="316" y="253"/>
      <point x="334" y="322" type="curve"/>
      <point x="321" y="447"/>
      <point x="309" y="568"/>
      <point x="297" y="691" type="curve"/>
      <point x="296" y="696"/>
      <point x="292" y="700"/>
      <point x="285" y="700" type="curve"/>
    </contour>
    <contour>
      <point x="547" y="700" type="curve" smooth="yes"/>
      <point x="536" y="700"/>
      <point x="523" y="700"/>
      <point x="512" y="700" type="curve"/>
      <point x="435" y="573"/>
      <point x="360" y="447"/>
      <point x="283" y="321" type="curve"/>
      <point x="260" y="282"/>
      <point x="252" y="165"/>
      <point x="268" y="165" type="curve"/>
      <point x="279" y="165" type="line"/>
      <point x="386" y="326"/>
      <point x="491" y="486"/>
      <point x="597" y="647" type="curve"/>
      <point x="616" y="677"/>
      <point x="598" y="700"/>
    </contour>
  </outline>
</glyph>
<glyph name="N" format="1">
  <advance width="600"/>
  <unicode hex="004E"/>
  <outline>
    <contour>
      <point x="142" y="0" type="curve"/>
      <point x="183" y="163" type="line"/>
      <point x="193" y="202"/>
      <point x="277" y="692"/>
      <point x="273" y="697" type="curve" smooth="yes"/>
      <point x="272" y="699"/>
      <point x="269" y="700"/>
      <point x="266" y="700" type="curve"/>
      <point x="233" y="700"/>
      <point x="172" y="700"/>
      <point x="167" y="700" type="curve"/>
      <point x="155" y="653"/>
      <point x="144" y="607"/>
      <point x="132" y="560" type="curve" smooth="yes"/>
      <point x="-5" y="11" type="line"/>
      <point x="-7" y="5"/>
      <point x="-3" y="0"/>
      <point x="3" y="0" type="curve"/>
      <point x="49" y="0"/>
      <point x="96" y="0"/>
    </contour>
    <contour>
      <point x="472" y="0" type="line"/>
      <point x="644" y="689" type="line"/>
      <point x="646" y="695"/>
      <point x="642" y="700"/>
      <point x="636" y="700" type="curve"/>
      <point x="497" y="700" type="line"/>
      <point x="446" y="494" type="line"/>
      <point x="439" y="466"/>
      <point x="364" y="5"/>
      <point x="366" y="3" type="curve" smooth="yes"/>
      <point x="367" y="1"/>
      <point x="370" y="0"/>
      <point x="373" y="0" type="curve"/>
    </contour>
    <contour>
      <point x="266" y="700" type="line"/>
      <point x="178" y="700"/>
      <point x="184" y="689"/>
      <point x="187" y="676" type="curve" smooth="yes"/>
      <point x="237" y="454"/>
      <point x="285" y="230"/>
      <point x="335" y="8" type="curve"/>
      <point x="336" y="1"/>
      <point x="341" y="0"/>
      <point x="345" y="0" type="curve" smooth="yes"/>
      <point x="349" y="0"/>
      <point x="379" y="0"/>
      <point x="382" y="0" type="curve"/>
      <point x="395" y="0"/>
      <point x="412" y="102"/>
      <point x="425" y="157" type="curve"/>
      <point x="388" y="336"/>
      <point x="350" y="517"/>
      <point x="315" y="690" type="curve"/>
      <point x="313" y="699"/>
      <point x="311" y="700"/>
      <point x="299" y="700" type="curve"/>
    </contour>
    <contour>
      <point x="410" y="710" type="move" name="top"/>
    </contour>
    <contour>
      <point x="232" y="-1" type="move" name="bottom"/>
    </contour>
  </outline>
</glyph>
<glyph name="O" format="1">
  <advance width="600"/>
  <unicode hex="004F"/>
  <outline>
    <contour>
      <point x="394" y="720" type="curve" smooth="yes"/>
      <point x="252" y="720"/>
      <point x="151" y="648"/>
      <point x="108" y="483" type="curve" smooth="yes"/>
      <point x="51" y="255" type="line" smooth="yes"/>
      <point x="6" y="78"/>
      <point x="89" y="-20"/>
      <point x="240" y="-20" type="curve" smooth="yes"/>
      <point x="258" y="-20"/>
      <point x="268" y="-1"/>
      <point x="260" y="117" type="curve"/>
      <point x="195" y="117"/>
      <point x="177" y="158"/>
      <point x="200" y="250" type="curve" smooth="yes"/>
      <point x="255" y="470" type="line" smooth="yes"/>
      <point x="276" y="552"/>
      <point x="323" y="583"/>
      <point x="376" y="583" type="curve" smooth="yes"/>
      <point x="436" y="583"/>
      <point x="465" y="583"/>
      <point x="485" y="583" type="curve"/>
      <point x="501" y="649"/>
      <point x="498" y="720"/>
    </contour>
    <contour>
      <point x="240" y="-20" type="curve" smooth="yes"/>
      <point x="379" y="-20"/>
      <point x="487" y="45"/>
      <point x="529" y="217" type="curve" smooth="yes"/>
      <point x="586" y="446" type="line" smooth="yes"/>
      <point x="629" y="620"/>
      <point x="543" y="720"/>
      <point x="394" y="720" type="curve" smooth="yes"/>
      <point x="376" y="720"/>
      <point x="367" y="701"/>
      <point x="376" y="583" type="curve"/>
      <point x="441" y="583"/>
      <point x="460" y="542"/>
      <point x="437" y="451" type="curve" smooth="yes"/>
      <point x="382" y="231" type="line" smooth="yes"/>
      <point x="361" y="148"/>
      <point x="313" y="117"/>
      <point x="260" y="117" type="curve" smooth="yes"/>
      <point x="200" y="117"/>
      <point x="171" y="117"/>
      <point x="151" y="117" type="curve"/>
      <point x="135" y="51"/>
      <point x="136" y="-20"/>
    </contour>
    <contour>
      <point x="410" y="711" type="move" name="top"/>
    </contour>
    <contour>
      <point x="336" y="-1" type="move" name="ogonek"/>
    </contour>
    <contour>
      <point x="232" y="-1" type="move" name="bottom"/>
    </contour>
  </outline>
</glyph>
<glyph name="P" format="1">
  <advance width="600"/>
  <unicode hex="0050"/>
  <outline>
    <contour>
      <point x="162" y="0" type="curve"/>
      <point x="170" y="33"/>
      <point x="179" y="67"/>
      <point x="187" y="100" type="curve" smooth="yes"/>
      <point x="322" y="639" type="line" smooth="yes"/>
      <point x="323" y="645"/>
      <point x="320" y="650"/>
      <point x="170" y="650" type="curve"/>
      <point x="10" y="11" type="line" smooth="yes"/>
      <point x="9" y="8"/>
      <point x="9" y="5"/>
      <point x="11" y="3" type="curve" smooth="yes"/>
      <point x="12" y="1"/>
      <point x="15" y="0"/>
      <point x="18" y="0" type="curve" smooth="yes"/>
      <point x="66" y="0"/>
      <point x="114" y="0"/>
    </contour>
    <contour>
      <point x="147" y="700" type="curve"/>
      <point x="136" y="656"/>
      <point x="127" y="618"/>
      <point x="116" y="574" type="curve"/>
      <point x="115" y="571"/>
      <point x="115" y="568"/>
      <point x="117" y="566" type="curve" smooth="yes"/>
      <point x="118" y="564"/>
      <point x="121" y="563"/>
      <point x="124" y="563" type="curve" smooth="yes"/>
      <point x="144" y="563"/>
      <point x="166" y="563"/>
      <point x="188" y="563" type="curve" smooth="yes"/>
      <point x="254" y="563"/>
      <point x="327" y="563"/>
      <point x="383" y="563" type="curve" smooth="yes"/>
      <point x="433" y="563"/>
      <point x="458" y="563"/>
      <point x="485" y="563" type="curve"/>
      <point x="505" y="644"/>
      <point x="478" y="700"/>
      <point x="411" y="700" type="curve" smooth="yes"/>
      <point x="339" y="700"/>
      <point x="220" y="700"/>
    </contour>
    <contour>
      <point x="577" y="398" type="curve" smooth="yes"/>
      <point x="595" y="469" type="line" smooth="yes"/>
      <point x="629" y="606"/>
      <point x="587" y="700"/>
      <point x="411" y="700" type="curve"/>
      <point x="405" y="700"/>
      <point x="388" y="685"/>
      <point x="383" y="563" type="curve"/>
      <point x="439" y="563"/>
      <point x="453" y="545"/>
      <point x="439" y="487" type="curve" smooth="yes"/>
      <point x="421" y="416" type="line" smooth="yes"/>
      <point x="411" y="376"/>
      <point x="380" y="347"/>
      <point x="344" y="347" type="curve" smooth="yes"/>
      <point x="325" y="347"/>
      <point x="242" y="347"/>
      <point x="204" y="347" type="curve"/>
      <point x="192" y="302"/>
      <point x="186" y="275"/>
      <point x="172" y="221" type="curve" smooth="yes"/>
      <point x="171" y="215"/>
      <point x="175" y="210"/>
      <point x="181" y="210" type="curve" smooth="yes"/>
      <point x="319" y="210" type="line" smooth="yes"/>
      <point x="450" y="210"/>
      <point x="543" y="264"/>
    </contour>
  </outline>
</glyph>
<glyph name="T" format="1">
  <advance width="600"/>
  <unicode hex="0054"/>
  <outline>
    <contour>
      <point x="157" y="700" type="line"/>
      <point x="147" y="658"/>
      <point x="136" y="615"/>
      <point x="126" y="574" type="curve" smooth="yes"/>
      <point x="125" y="571"/>
      <point x="125" y="568"/>
      <point x="127" y="566" type="curve" smooth="yes"/>
      <point x="128" y="564"/>
      <point x="131" y="563"/>
      <point x="134" y="563" type="curve" smooth="yes"/>
      <point x="623" y="563" type="line"/>
      <point x="633" y="604"/>
      <point x="644" y="648"/>
      <point x="654" y="689" type="curve" smooth="yes"/>
      <point x="656" y="695"/>
      <point x="652" y="700"/>
      <point x="646" y="700" type="curve" smooth="yes"/>
    </contour>
    <contour>
      <point x="312" y="0" type="curve"/>
      <point x="320" y="33"/>
      <point x="329" y="67"/>
      <point x="337" y="100" type="curve" smooth="yes"/>
      <point x="472" y="639" type="line" smooth="yes"/>
      <point x="473" y="645"/>
      <point x="470" y="650"/>
      <point x="315" y="650" type="curve"/>
      <point x="155" y="11" type="line" smooth="yes"/>
      <point x="154" y="8"/>
      <point x="154" y="5"/>
      <point x="156" y="3" type="curve" smooth="yes"/>
      <point x="157" y="1"/>
      <point x="160" y="0"/>
      <point x="163" y="0" type="curve" smooth="yes"/>
      <point x="213" y="0"/>
      <point x="262" y="0"/>
    </contour>
    <contour>
      <point x="410" y="711" type="move" name="top"/>
    </contour>
    <contour>
      <point x="232" y="-1" type="move" name="bottom"/>
    </contour>
  </outline>
</glyph>
<glyph name="U" format="1">
  <advance width="600"/>
  <unicode hex="0055"/>
  <outline>
    <contour>
      <point x="167" y="700" type="curve"/>
      <point x="159" y="667"/>
      <point x="150" y="633"/>
      <point x="142" y="600" type="curve" smooth="yes"/>
      <point x="32" y="158" type="line"/>
      <point x="19" y="107"/>
      <point x="84" y="108"/>
      <point x="179" y="108" type="curve"/>
      <point x="186" y="138"/>
      <point x="191" y="155"/>
      <point x="201" y="195" type="curve" smooth="yes"/>
      <point x="324" y="689" type="line"/>
      <point x="326" y="695"/>
      <point x="322" y="700"/>
      <point x="316" y="700" type="curve"/>
      <point x="266" y="700"/>
      <point x="217" y="700"/>
    </contour>
    <contour>
      <point x="134" y="-10" type="curve" smooth="yes"/>
      <point x="187" y="-10"/>
      <point x="257" y="16"/>
      <point x="310" y="59" type="curve" smooth="yes"/>
      <point x="384" y="118"/>
      <point x="424" y="179"/>
      <point x="417" y="249" type="curve"/>
      <point x="334" y="176"/>
      <point x="285" y="150"/>
      <point x="228" y="150" type="curve" smooth="yes"/>
      <point x="203" y="150"/>
      <point x="193" y="165"/>
      <point x="201" y="195" type="curve"/>
      <point x="85" y="195"/>
      <point x="35" y="174"/>
      <point x="32" y="158" type="curve" smooth="yes"/>
      <point x="8" y="65"/>
      <point x="41" y="-10"/>
    </contour>
    <contour>
      <point x="472" y="0" type="curve"/>
      <point x="480" y="32"/>
      <point x="490" y="70"/>
      <point x="500" y="110" type="curve" smooth="yes"/>
      <point x="644" y="689" type="line" smooth="yes"/>
      <point x="646" y="695"/>
      <point x="642" y="700"/>
      <point x="636" y="700" type="curve" smooth="yes"/>
      <point x="586" y="700"/>
      <point x="537" y="700"/>
      <point x="487" y="700" type="curve"/>
      <point x="315" y="11" type="line" smooth="yes"/>
      <point x="314" y="8"/>
      <point x="314" y="5"/>
      <point x="316" y="3" type="curve" smooth="yes"/>
      <point x="317" y="1"/>
      <point x="320" y="0"/>
      <point x="323" y="0" type="curve" smooth="yes"/>
      <point x="373" y="0"/>
      <point x="422" y="0"/>
    </contour>
    <contour>
      <point x="410" y="711" type="move" name="top"/>
    </contour>
    <contour>
      <point x="472" y="-1" type="move" name="ogonek"/>
    </contour>
    <contour>
      <point x="410" y="711" type="move" name="ring"/>
    </contour>
    <contour>
      <point x="232" y="-1" type="move" name="bottom"/>
    </contour>
  </outline>
</glyph>
<glyph name="W" format="1">
  <advance width="600"/>
  <unicode hex="0057"/>
  <outline>
    <contour>
      <point x="133" y="700" type="curve"/>
      <point x="100" y="472"/>
      <point x="68" y="243"/>
      <point x="35" y="15" type="curve"/>
      <point x="33" y="5"/>
      <point x="42" y="0"/>
      <point x="52" y="0" type="curve"/>
      <point x="75" y="0" type="line" smooth="yes"/>
      <point x="100" y="0"/>
      <point x="125" y="21"/>
      <point x="140" y="35" type="curve"/>
      <point x="182" y="250"/>
      <point x="225" y="467"/>
      <point x="267" y="682" type="curve"/>
      <point x="269" y="693"/>
      <point x="268" y="696"/>
      <point x="266" y="698" type="curve" smooth="yes"/>
      <point x="264" y="700"/>
      <point x="262" y="700"/>
      <point x="258" y="700" type="curve"/>
      <point x="215" y="700"/>
      <point x="176" y="700"/>
    </contour>
    <contour>
      <point x="540" y="700" type="curve"/>
      <point x="480" y="501"/>
      <point x="420" y="300"/>
      <point x="360" y="101" type="curve"/>
      <point x="339" y="39"/>
      <point x="332" y="19"/>
      <point x="316" y="0" type="curve"/>
      <point x="430" y="0" type="line"/>
      <point x="512" y="229"/>
      <point x="595" y="458"/>
      <point x="677" y="687" type="curve"/>
      <point x="679" y="693"/>
      <point x="679" y="695"/>
      <point x="677" y="697" type="curve" smooth="yes"/>
      <point x="676" y="699"/>
      <point x="675" y="700"/>
      <point x="671" y="700" type="curve"/>
      <point x="628" y="700"/>
      <point x="583" y="700"/>
    </contour>
    <contour>
      <point x="391" y="571" type="curve"/>
      <point x="326" y="571" type="line"/>
      <point x="265" y="414"/>
      <point x="205" y="258"/>
      <point x="143" y="101" type="curve"/>
      <point x="110" y="33"/>
      <point x="88" y="14"/>
      <point x="52" y="0" type="curve"/>
      <point x="185" y="0" type="line"/>
      <point x="256" y="184"/>
      <point x="328" y="368"/>
      <point x="399" y="552" type="curve"/>
      <point x="404" y="563"/>
      <point x="402" y="571"/>
    </contour>
    <contour>
      <point x="411" y="571" type="curve"/>
      <point x="344" y="571" type="line"/>
      <point x="323" y="386"/>
      <point x="302" y="200"/>
      <point x="282" y="15" type="curve"/>
      <point x="281" y="5"/>
      <point x="289" y="0"/>
      <point x="299" y="0" type="curve"/>
      <point x="334" y="0" type="line"/>
      <point x="346" y="0"/>
      <point x="356" y="10"/>
      <point x="363" y="24" type="curve"/>
      <point x="382" y="202"/>
      <point x="402" y="382"/>
      <point x="420" y="560" type="curve"/>
      <point x="421" y="567"/>
      <point x="417" y="571"/>
    </contour>
    <contour>
      <point x="409" y="711" type="move" name="top"/>
    </contour>
  </outline>
</glyph>
<glyph name="Y" format="1">
  <advance width="600"/>
  <unicode hex="0059"/>
  <outline>
    <contour>
      <point x="122" y="700" type="line"/>
      <point x="154" y="547"/>
      <point x="189" y="393"/>
      <point x="220" y="239" type="curve"/>
      <point x="221" y="229"/>
      <point x="227" y="225"/>
      <point x="237" y="225" type="curve"/>
      <point x="302" y="225"/>
      <point x="345" y="302"/>
      <point x="335" y="335" type="curve"/>
      <point x="318" y="451"/>
      <point x="300" y="567"/>
      <point x="284" y="683" type="curve"/>
      <point x="284" y="694"/>
      <point x="280" y="700"/>
      <point x="271" y="700" type="curve" smooth="yes"/>
    </contour>
    <contour>
      <point x="516" y="700" type="line"/>
      <point x="441" y="578"/>
      <point x="365" y="457"/>
      <point x="290" y="335" type="curve"/>
      <point x="250" y="274"/>
      <point x="254" y="251"/>
      <point x="237" y="225" type="curve"/>
      <point x="353" y="225" type="line"/>
      <point x="462" y="377"/>
      <point x="571" y="529"/>
      <point x="680" y="681" type="curve"/>
      <point x="686" y="691"/>
      <point x="683" y="700"/>
      <point x="672" y="700" type="curve"/>
    </contour>
    <contour>
      <point x="312" y="0" type="curve"/>
      <point x="320" y="33"/>
      <point x="329" y="67"/>
      <point x="337" y="100" type="curve" smooth="yes"/>
      <point x="384" y="289" type="line" smooth="yes"/>
      <point x="386" y="295"/>
      <point x="382" y="300"/>
      <point x="227" y="300" type="curve"/>
      <point x="155" y="11" type="line" smooth="yes"/>
      <point x="154" y="8"/>
      <point x="154" y="5"/>
      <point x="156" y="3" type="curve" smooth="yes"/>
      <point x="157" y="1"/>
      <point x="160" y="0"/>
      <point x="163" y="0" type="curve" smooth="yes"/>
      <point x="213" y="0"/>
      <point x="262" y="0"/>
    </contour>
    <contour>
      <point x="410" y="711" type="move" name="top"/>
    </contour>
  </outline>
</glyph>
<glyph name="bracketleft" format="1">
  <advance width="600"/>
  <unicode hex="005B"/>
  <outline>
    <contour>
      <point x="298" y="643" type="curve" smooth="yes"/>
      <point x="140" y="11" type="line" smooth="yes"/>
      <point x="138" y="1"/>
      <point x="172" y="0"/>
      <point x="297" y="0" type="curve"/>
      <point x="482" y="739" type="line" smooth="yes"/>
      <point x="484" y="745"/>
      <point x="477" y="750"/>
      <point x="450" y="750" type="curve" smooth="yes"/>
      <point x="400" y="750"/>
      <point x="375" y="750"/>
      <point x="325" y="750" type="curve"/>
      <point x="316" y="714"/>
      <point x="307" y="679"/>
    </contour>
    <contour>
      <point x="605" y="608" type="line"/>
      <point x="616" y="654"/>
      <point x="626" y="693"/>
      <point x="637" y="739" type="curve" smooth="yes"/>
      <point x="638" y="742"/>
      <point x="638" y="745"/>
      <point x="636" y="747" type="curve" smooth="yes"/>
      <point x="635" y="749"/>
      <point x="632" y="750"/>
      <point x="629" y="750" type="curve" smooth="yes"/>
      <point x="450" y="750" type="line"/>
      <point x="416" y="612"/>
      <point x="421" y="608"/>
      <point x="426" y="608" type="curve"/>
    </contour>
    <contour>
      <point x="420" y="-130" type="line"/>
      <point x="431" y="-84"/>
      <point x="441" y="-45"/>
      <point x="453" y="1" type="curve" smooth="yes"/>
      <point x="454" y="7"/>
      <point x="450" y="12"/>
      <point x="444" y="12" type="curve" smooth="yes"/>
      <point x="140" y="12" type="line"/>
      <point x="108" y="-119" type="line" smooth="yes"/>
      <point x="106" y="-125"/>
      <point x="110" y="-130"/>
      <point x="116" y="-130" type="curve" smooth="yes"/>
    </contour>
  </outline>
</glyph>
<glyph name="bracketright" format="1">
  <advance width="600"/>
  <unicode hex="005D"/>
  <outline>
    <contour>
      <point x="322" y="-23" type="curve" smooth="yes"/>
      <point x="480" y="609" type="line" smooth="yes"/>
      <point x="482" y="619"/>
      <point x="448" y="620"/>
      <point x="323" y="620" type="curve"/>
      <point x="138" y="-119" type="line" smooth="yes"/>
      <point x="136" y="-125"/>
      <point x="143" y="-130"/>
      <point x="170" y="-130" type="curve" smooth="yes"/>
      <point x="220" y="-130"/>
      <point x="245" y="-130"/>
      <point x="295" y="-130" type="curve"/>
      <point x="304" y="-94"/>
      <point x="313" y="-59"/>
    </contour>
    <contour>
      <point x="15" y="12" type="line"/>
      <point x="4" y="-34"/>
      <point x="-6" y="-73"/>
      <point x="-17" y="-119" type="curve" smooth="yes"/>
      <point x="-18" y="-122"/>
      <point x="-18" y="-125"/>
      <point x="-16" y="-127" type="curve" smooth="yes"/>
      <point x="-15" y="-129"/>
      <point x="-12" y="-130"/>
      <point x="-9" y="-130" type="curve" smooth="yes"/>
      <point x="170" y="-130" type="line"/>
      <point x="204" y="8"/>
      <point x="199" y="12"/>
      <point x="194" y="12" type="curve"/>
    </contour>
    <contour>
      <point x="200" y="750" type="line"/>
      <point x="189" y="704"/>
      <point x="179" y="665"/>
      <point x="167" y="619" type="curve" smooth="yes"/>
      <point x="166" y="613"/>
      <point x="170" y="608"/>
      <point x="176" y="608" type="curve" smooth="yes"/>
      <point x="480" y="608" type="line"/>
      <point x="512" y="739" type="line" smooth="yes"/>
      <point x="514" y="745"/>
      <point x="510" y="750"/>
      <point x="504" y="750" type="curve" smooth="yes"/>
    </contour>
  </outline>
</glyph>
<glyph name="grave" format="1">
  <advance width="600"/>
  <unicode hex="0060"/>
  <outline>
    <contour>
      <point x="461" y="402" type="curve"/>
      <point x="461" y="514"/>
      <point x="461" y="599"/>
      <point x="461" y="711" type="curve"/>
      <point x="378" y="711"/>
      <point x="336" y="711"/>
      <point x="265" y="711" type="curve" smooth="yes"/>
      <point x="257" y="711"/>
      <point x="251" y="704"/>
      <point x="253" y="696" type="curve" smooth="yes"/>
      <point x="273" y="611"/>
      <point x="297" y="517"/>
      <point x="322" y="412" type="curve" smooth="yes"/>
      <point x="323" y="406"/>
      <point x="327" y="402"/>
      <point x="338" y="402" type="curve" smooth="yes"/>
      <point x="398" y="402"/>
      <point x="423" y="402"/>
    </contour>
  </outline>
</glyph>
<glyph name="a" format="1">
  <advance width="600"/>
  <unicode hex="0061"/>
  <outline>
    <contour>
      <point x="285" y="552" type="curve" smooth="yes"/>
      <point x="192" y="552"/>
      <point x="115" y="504"/>
      <point x="77" y="357" type="curve" smooth="yes"/>
      <point x="33" y="182" type="line" smooth="yes"/>
      <point x="15" y="111"/>
      <point x="57" y="61"/>
      <point x="130" y="61" type="curve" smooth="yes"/>
      <point x="163" y="61"/>
      <point x="189" y="85"/>
      <point x="195" y="110" type="curve"/>
      <point x="178" y="136"/>
      <point x="184" y="159"/>
      <point x="198" y="217" type="curve" smooth="yes"/>
      <point x="226" y="330" type="line" smooth="yes"/>
      <point x="238" y="380"/>
      <point x="265" y="397"/>
      <point x="301" y="397" type="curve" smooth="yes"/>
      <point x="342" y="397"/>
      <point x="380" y="365"/>
      <point x="398" y="322" type="curve"/>
      <point x="413" y="330"/>
      <point x="429" y="352"/>
      <point x="435" y="376" type="curve" smooth="yes"/>
      <point x="452" y="445"/>
      <point x="402" y="552"/>
    </contour>
    <contour>
      <point x="165" y="-10" type="curve" smooth="yes"/>
      <point x="228" y="-10"/>
      <point x="287" y="21"/>
      <point x="344" y="81" type="curve" smooth="yes"/>
      <point x="393" y="133"/>
      <point x="412" y="204"/>
      <point x="390" y="237" type="curve"/>
      <point x="329" y="172"/>
      <point x="289" y="146"/>
      <point x="240" y="146" type="curve" smooth="yes"/>
      <point x="200" y="146"/>
      <point x="186" y="166"/>
      <point x="198" y="217" type="curve"/>
      <point x="58" y="233"/>
      <point x="43" y="221"/>
      <point x="33" y="182" type="curve" smooth="yes"/>
      <point x="5" y="69"/>
      <point x="48" y="-10"/>
    </contour>
    <contour>
      <point x="598" y="540" type="line"/>
      <point x="550" y="540"/>
      <point x="502" y="540"/>
      <point x="454" y="540" type="curve" smooth="yes"/>
      <point x="448" y="540"/>
      <point x="442" y="535"/>
      <point x="440" y="529" type="curve" smooth="yes"/>
      <point x="345" y="152" type="line" smooth="yes"/>
      <point x="329" y="90"/>
      <point x="373" y="20"/>
      <point x="468" y="20" type="curve"/>
      <point x="476" y="54"/>
      <point x="485" y="89"/>
      <point x="493" y="123" type="curve"/>
    </contour>
    <contour>
      <point x="546" y="132" type="line"/>
      <point x="526" y="132" type="line"/>
      <point x="523" y="132"/>
      <point x="521" y="132"/>
      <point x="517" y="132" type="curve" smooth="yes"/>
      <point x="504" y="132"/>
      <point x="497" y="139"/>
      <point x="501" y="154" type="curve"/>
      <point x="362" y="174"/>
      <point x="349" y="166"/>
      <point x="345" y="152" type="curve" smooth="yes"/>
      <point x="328" y="84"/>
      <point x="349" y="-10"/>
      <point x="450" y="-10" type="curve" smooth="yes"/>
      <point x="499" y="-10" type="line" smooth="yes"/>
      <point x="506" y="-10"/>
      <point x="511" y="-6"/>
      <point x="513" y="1" type="curve"/>
    </contour>
  </outline>
</glyph>
<glyph name="d" format="1">
  <advance width="600"/>
  <unicode hex="0064"/>
  <outline>
    <contour>
      <point x="286" y="552" type="curve" smooth="yes"/>
      <point x="182" y="552"/>
      <point x="109" y="491"/>
      <point x="75" y="350" type="curve" smooth="yes"/>
      <point x="32" y="182" type="line" smooth="yes"/>
      <point x="16" y="113"/>
      <point x="62" y="61"/>
      <point x="142" y="61" type="curve" smooth="yes"/>
      <point x="175" y="61"/>
      <point x="198" y="75"/>
      <point x="204" y="100" type="curve"/>
      <point x="189" y="126"/>
      <point x="176" y="137"/>
      <point x="187" y="180" type="curve" smooth="yes"/>
      <point x="227" y="338" type="line" smooth="yes"/>
      <point x="238" y="383"/>
      <point x="267" y="407"/>
      <point x="308" y="407" type="curve" smooth="yes"/>
      <point x="344" y="407"/>
      <point x="386" y="391"/>
      <point x="417" y="352" type="curve"/>
      <point x="433" y="364"/>
      <point x="440" y="376"/>
      <point x="444" y="392" type="curve" smooth="yes"/>
      <point x="459" y="452"/>
      <point x="388" y="552"/>
    </contour>
    <contour>
      <point x="141" y="-10" type="curve" smooth="yes"/>
      <point x="201" y="-10"/>
      <point x="263" y="18"/>
      <point x="328" y="80" type="curve" smooth="yes"/>
      <point x="390" y="138"/>
      <point x="407" y="188"/>
      <point x="394" y="217" type="curve"/>
      <point x="310" y="156"/>
      <point x="263" y="133"/>
      <point x="219" y="133" type="curve" smooth="yes"/>
      <point x="189" y="133"/>
      <point x="178" y="145"/>
      <point x="187" y="180" type="curve"/>
      <point x="119" y="210"/>
      <point x="33" y="184"/>
      <point x="32" y="182" type="curve" smooth="yes"/>
      <point x="3" y="65"/>
      <point x="46" y="-10"/>
    </contour>
    <contour>
      <point x="495" y="750" type="curve"/>
      <point x="486" y="717"/>
      <point x="478" y="683"/>
      <point x="470" y="650" type="curve" smooth="yes"/>
      <point x="310" y="11" type="line"/>
      <point x="309" y="8"/>
      <point x="309" y="5"/>
      <point x="311" y="3" type="curve" smooth="yes"/>
      <point x="312" y="1"/>
      <point x="315" y="0"/>
      <point x="318" y="0" type="curve" smooth="yes"/>
      <point x="366" y="0"/>
      <point x="414" y="0"/>
      <point x="462" y="0" type="curve"/>
      <point x="475" y="50"/>
      <point x="487" y="99"/>
      <point x="499" y="149" type="curve" smooth="yes"/>
      <point x="647" y="739" type="line"/>
      <point x="648" y="742"/>
      <point x="647" y="745"/>
      <point x="646" y="747" type="curve" smooth="yes"/>
      <point x="644" y="749"/>
      <point x="642" y="750"/>
      <point x="639" y="750" type="curve" smooth="yes"/>
      <point x="591" y="750"/>
      <point x="543" y="750"/>
    </contour>
    <contour>
      <point x="662" y="711" type="move" name="caronslovak"/>
    </contour>
  </outline>
</glyph>
<glyph name="i" format="1">
  <advance width="600"/>
  <unicode hex="0069"/>
  <outline>
    <contour>
      <point x="117" y="540" type="curve"/>
      <point x="106" y="497"/>
      <point x="95" y="452"/>
      <point x="84" y="409" type="curve" smooth="yes"/>
      <point x="82" y="401"/>
      <point x="86" y="398"/>
      <point x="93" y="398" type="curve" smooth="yes"/>
      <point x="170" y="398"/>
      <point x="210" y="398"/>
      <point x="287" y="398" type="curve"/>
      <point x="320" y="530"/>
      <point x="317" y="540"/>
      <point x="297" y="540" type="curve"/>
      <point x="238" y="540"/>
      <point x="176" y="540"/>
    </contour>
    <contour>
      <point x="443" y="538" type="curve" smooth="yes"/>
      <point x="441" y="540"/>
      <point x="439" y="540"/>
      <point x="436" y="540" type="curve" smooth="yes"/>
      <point x="297" y="540" type="line"/>
      <point x="208" y="181" type="line" smooth="yes"/>
      <point x="190" y="109"/>
      <point x="238" y="67"/>
      <point x="329" y="67" type="curve"/>
      <point x="337" y="101"/>
      <point x="347" y="139"/>
      <point x="355" y="172" type="curve" smooth="yes"/>
      <point x="444" y="529" type="line" smooth="yes"/>
      <point x="445" y="533"/>
      <point x="445" y="536"/>
    </contour>
    <contour>
      <point x="518" y="142" type="curve"/>
      <point x="498" y="142" type="line"/>
      <point x="430" y="142"/>
      <point x="459" y="142"/>
      <point x="378" y="142" type="curve"/>
      <point x="353" y="142"/>
      <point x="350" y="151"/>
      <point x="355" y="172" type="curve"/>
      <point x="227" y="200"/>
      <point x="212" y="199"/>
      <point x="208" y="181" type="curve" smooth="yes"/>
      <point x="183" y="81"/>
      <point x="215" y="0"/>
      <point x="350" y="0" type="curve" smooth="yes"/>
      <point x="471" y="0" type="line" smooth="yes"/>
      <point x="476" y="0"/>
      <point x="479" y="2"/>
      <point x="481" y="4" type="curve" smooth="yes"/>
      <point x="483" y="6"/>
      <point x="484" y="8"/>
      <point x="485" y="11" type="curve"/>
      <point x="496" y="54"/>
      <point x="507" y="99"/>
    </contour>
    <contour>
      <point x="479" y="650" type="curve"/>
      <point x="513" y="789" type="line" smooth="yes"/>
      <point x="515" y="795"/>
      <point x="511" y="800"/>
      <point x="505" y="800" type="curve" smooth="yes"/>
      <point x="449" y="800"/>
      <point x="392" y="800"/>
      <point x="336" y="800" type="curve"/>
      <point x="301" y="661" type="line" smooth="yes"/>
      <point x="300" y="655"/>
      <point x="304" y="650"/>
      <point x="310" y="650" type="curve" smooth="yes"/>
      <point x="366" y="650"/>
      <point x="423" y="650"/>
    </contour>
  </outline>
</glyph>
<glyph name="l" format="1">
  <advance width="600"/>
  <unicode hex="006C"/>
  <outline>
    <contour>
      <point x="170" y="750" type="curve"/>
      <point x="159" y="707"/>
      <point x="148" y="662"/>
      <point x="137" y="619" type="curve" smooth="yes"/>
      <point x="135" y="611"/>
      <point x="139" y="608"/>
      <point x="146" y="608" type="curve" smooth="yes"/>
      <point x="223" y="608"/>
      <point x="263" y="608"/>
      <point x="340" y="608" type="curve"/>
      <point x="373" y="740"/>
      <point x="370" y="750"/>
      <point x="350" y="750" type="curve"/>
      <point x="291" y="750"/>
      <point x="229" y="750"/>
    </contour>
    <contour>
      <point x="496" y="748" type="curve" smooth="yes"/>
      <point x="494" y="750"/>
      <point x="492" y="750"/>
      <point x="489" y="750" type="curve" smooth="yes"/>
      <point x="350" y="750" type="line"/>
      <point x="209" y="181" type="line" smooth="yes"/>
      <point x="191" y="109"/>
      <point x="239" y="67"/>
      <point x="330" y="67" type="curve"/>
      <point x="338" y="101"/>
      <point x="348" y="139"/>
      <point x="356" y="172" type="curve" smooth="yes"/>
      <point x="497" y="739" type="line" smooth="yes"/>
      <point x="498" y="743"/>
      <point x="498" y="746"/>
    </contour>
    <contour>
      <point x="519" y="142" type="curve"/>
      <point x="499" y="142" type="line"/>
      <point x="431" y="142"/>
      <point x="460" y="142"/>
      <point x="379" y="142" type="curve"/>
      <point x="354" y="142"/>
      <point x="351" y="151"/>
      <point x="356" y="172" type="curve"/>
      <point x="228" y="200"/>
      <point x="213" y="199"/>
      <point x="209" y="181" type="curve" smooth="yes"/>
      <point x="184" y="81"/>
      <point x="216" y="0"/>
      <point x="351" y="0" type="curve" smooth="yes"/>
      <point x="472" y="0" type="line" smooth="yes"/>
      <point x="477" y="0"/>
      <point x="480" y="2"/>
      <point x="482" y="4" type="curve" smooth="yes"/>
      <point x="484" y="6"/>
      <point x="485" y="8"/>
      <point x="486" y="11" type="curve"/>
      <point x="497" y="54"/>
      <point x="508" y="99"/>
    </contour>
  </outline>
</glyph>
<glyph name="m" format="1">
  <advance width="600"/>
  <unicode hex="006D"/>
  <outline>
    <contour>
      <point x="92" y="0" type="curve"/>
      <point x="203" y="442" type="line" smooth="yes"/>
      <point x="215" y="490"/>
      <point x="205" y="533"/>
      <point x="203" y="536" type="curve" smooth="yes"/>
      <point x="200" y="540"/>
      <point x="196" y="540"/>
      <point x="192" y="540" type="curve" smooth="yes"/>
      <point x="161" y="540"/>
      <point x="128" y="540"/>
      <point x="97" y="540" type="curve"/>
      <point x="89" y="507"/>
      <point x="80" y="473"/>
      <point x="72" y="440" type="curve" smooth="yes"/>
      <point x="-35" y="11" type="line" smooth="yes"/>
      <point x="-37" y="5"/>
      <point x="-33" y="0"/>
      <point x="-27" y="0" type="curve" smooth="yes"/>
      <point x="12" y="0"/>
      <point x="53" y="0"/>
    </contour>
    <contour>
      <point x="341" y="552" type="curve" smooth="yes"/>
      <point x="304" y="552"/>
      <point x="275" y="540"/>
      <point x="235" y="504" type="curve" smooth="yes"/>
      <point x="193" y="467"/>
      <point x="156" y="409"/>
      <point x="139" y="343" type="curve"/>
      <point x="180" y="376"/>
      <point x="214" y="392"/>
      <point x="243" y="392" type="curve" smooth="yes"/>
      <point x="259" y="392"/>
      <point x="269" y="387"/>
      <point x="263" y="362" type="curve"/>
      <point x="399" y="437"/>
      <point x="405" y="450"/>
      <point x="406" y="455" type="curve" smooth="yes"/>
      <point x="421" y="514"/>
      <point x="391" y="552"/>
    </contour>
    <contour>
      <point x="292" y="0" type="curve"/>
      <point x="406" y="455" type="line" smooth="yes"/>
      <point x="417" y="498"/>
      <point x="347" y="448"/>
      <point x="261" y="399" type="curve"/>
      <point x="266" y="390"/>
      <point x="269" y="386"/>
      <point x="263" y="362" type="curve" smooth="yes"/>
      <point x="175" y="11" type="line" smooth="yes"/>
      <point x="173" y="5"/>
      <point x="177" y="0"/>
      <point x="183" y="0" type="curve" smooth="yes"/>
      <point x="219" y="0"/>
      <point x="256" y="0"/>
    </contour>
    <contour>
      <point x="546" y="552" type="curve" smooth="yes"/>
      <point x="509" y="552"/>
      <point x="473" y="531"/>
      <point x="440" y="504" type="curve" smooth="yes"/>
      <point x="406" y="477"/>
      <point x="349" y="407"/>
      <point x="334" y="348" type="curve"/>
      <point x="379" y="384"/>
      <point x="416" y="392"/>
      <point x="439" y="392" type="curve" smooth="yes"/>
      <point x="459" y="392"/>
      <point x="469" y="387"/>
      <point x="462" y="361" type="curve"/>
      <point x="607" y="428"/>
      <point x="609" y="432"/>
      <point x="611" y="442" type="curve" smooth="yes"/>
      <point x="626" y="500"/>
      <point x="603" y="552"/>
    </contour>
    <contour>
      <point x="500" y="0" type="curve"/>
      <point x="508" y="32"/>
      <point x="517" y="66"/>
      <point x="525" y="98" type="curve" smooth="yes"/>
      <point x="611" y="442" type="line" smooth="yes"/>
      <point x="625" y="495"/>
      <point x="574" y="458"/>
      <point x="463" y="409" type="curve"/>
      <point x="467" y="397"/>
      <point x="470" y="390"/>
      <point x="462" y="361" type="curve" smooth="yes"/>
      <point x="375" y="11" type="line" smooth="yes"/>
      <point x="373" y="5"/>
      <point x="377" y="0"/>
      <point x="383" y="0" type="curve" smooth="yes"/>
      <point x="423" y="0"/>
      <point x="461" y="0"/>
    </contour>
  </outline>
</glyph>
<glyph name="p" format="1">
  <advance width="600"/>
  <unicode hex="0070"/>
  <outline>
    <contour>
      <point x="107" y="-200" type="curve"/>
      <point x="289" y="529" type="line" smooth="yes"/>
      <point x="290" y="532"/>
      <point x="290" y="535"/>
      <point x="288" y="537" type="curve" smooth="yes"/>
      <point x="287" y="539"/>
      <point x="284" y="540"/>
      <point x="281" y="540" type="curve"/>
      <point x="233" y="540"/>
      <point x="185" y="540"/>
      <point x="137" y="540" type="curve"/>
      <point x="130" y="511"/>
      <point x="122" y="478"/>
      <point x="112" y="439" type="curve" smooth="yes"/>
      <point x="-45" y="-189" type="line" smooth="yes"/>
      <point x="-47" y="-195"/>
      <point x="-43" y="-200"/>
      <point x="-37" y="-200" type="curve"/>
      <point x="11" y="-200"/>
      <point x="59" y="-200"/>
    </contour>
    <contour>
      <point x="430" y="552" type="curve" smooth="yes"/>
      <point x="378" y="552"/>
      <point x="323" y="526"/>
      <point x="270" y="474" type="curve" smooth="yes"/>
      <point x="210" y="415"/>
      <point x="182" y="373"/>
      <point x="194" y="341" type="curve"/>
      <point x="271" y="387"/>
      <point x="318" y="408"/>
      <point x="369" y="408" type="curve" smooth="yes"/>
      <point x="403" y="408"/>
      <point x="421" y="395"/>
      <point x="409" y="348" type="curve"/>
      <point x="539" y="330"/>
      <point x="560" y="332"/>
      <point x="563" y="343" type="curve" smooth="yes"/>
      <point x="591" y="456"/>
      <point x="541" y="552"/>
    </contour>
    <contour>
      <point x="313" y="-10" type="curve" smooth="yes"/>
      <point x="421" y="-10"/>
      <point x="492" y="56"/>
      <point x="529" y="206" type="curve" smooth="yes"/>
      <point x="563" y="343" type="line" smooth="yes"/>
      <point x="580" y="410"/>
      <point x="537" y="481"/>
      <point x="457" y="481" type="curve" smooth="yes"/>
      <point x="424" y="481"/>
      <point x="402" y="467"/>
      <point x="396" y="442" type="curve"/>
      <point x="413" y="412"/>
      <point x="425" y="405"/>
      <point x="409" y="348" type="curve" smooth="yes"/>
      <point x="374" y="205" type="line" smooth="yes"/>
      <point x="361" y="154"/>
      <point x="333" y="130"/>
      <point x="292" y="130" type="curve" smooth="yes"/>
      <point x="252" y="130"/>
      <point x="213" y="141"/>
      <point x="169" y="195" type="curve"/>
      <point x="150" y="173"/>
      <point x="143" y="153"/>
      <point x="140" y="142" type="curve" smooth="yes"/>
      <point x="126" y="92"/>
      <point x="200" y="-10"/>
    </contour>
  </outline>
</glyph>
<glyph name="q" format="1">
  <advance width="600"/>
  <unicode hex="0071"/>
  <outline>
    <contour>
      <point x="286" y="552" type="curve" smooth="yes"/>
      <point x="182" y="552"/>
      <point x="109" y="491"/>
      <point x="75" y="350" type="curve" smooth="yes"/>
      <point x="32" y="182" type="line" smooth="yes"/>
      <point x="16" y="113"/>
      <point x="62" y="61"/>
      <point x="142" y="61" type="curve" smooth="yes"/>
      <point x="175" y="61"/>
      <point x="198" y="75"/>
      <point x="204" y="100" type="curve"/>
      <point x="189" y="126"/>
      <point x="176" y="137"/>
      <point x="187" y="180" type="curve" smooth="yes"/>
      <point x="227" y="338" type="line" smooth="yes"/>
      <point x="238" y="383"/>
      <point x="267" y="407"/>
      <point x="308" y="407" type="curve" smooth="yes"/>
      <point x="344" y="407"/>
      <point x="386" y="391"/>
      <point x="417" y="352" type="curve"/>
      <point x="433" y="364"/>
      <point x="440" y="376"/>
      <point x="444" y="392" type="curve" smooth="yes"/>
      <point x="459" y="452"/>
      <point x="388" y="552"/>
    </contour>
    <contour>
      <point x="141" y="-10" type="curve" smooth="yes"/>
      <point x="201" y="-10"/>
      <point x="263" y="18"/>
      <point x="328" y="80" type="curve" smooth="yes"/>
      <point x="390" y="138"/>
      <point x="407" y="188"/>
      <point x="394" y="217" type="curve"/>
      <point x="310" y="156"/>
      <point x="263" y="133"/>
      <point x="219" y="133" type="curve" smooth="yes"/>
      <point x="189" y="133"/>
      <point x="178" y="145"/>
      <point x="187" y="180" type="curve"/>
      <point x="119" y="210"/>
      <point x="33" y="184"/>
      <point x="32" y="182" type="curve" smooth="yes"/>
      <point x="3" y="65"/>
      <point x="46" y="-10"/>
    </contour>
    <contour>
      <point x="412" y="-200" type="curve"/>
      <point x="572" y="440" type="line" smooth="yes"/>
      <point x="580" y="473"/>
      <point x="589" y="507"/>
      <point x="597" y="540" type="curve"/>
      <point x="549" y="540"/>
      <point x="501" y="540"/>
      <point x="453" y="540" type="curve" smooth="yes"/>
      <point x="450" y="540"/>
      <point x="447" y="539"/>
      <point x="444" y="537" type="curve" smooth="yes"/>
      <point x="442" y="535"/>
      <point x="440" y="532"/>
      <point x="439" y="529" type="curve" smooth="yes"/>
      <point x="260" y="-189" type="line" smooth="yes"/>
      <point x="258" y="-195"/>
      <point x="262" y="-200"/>
      <point x="268" y="-200" type="curve" smooth="yes"/>
      <point x="316" y="-200"/>
      <point x="364" y="-200"/>
    </contour>
  </outline>
</glyph>
<glyph name="r" format="1">
  <advance width="600"/>
  <unicode hex="0072"/>
  <outline>
    <contour>
      <point x="132" y="540" type="curve"/>
      <point x="120" y="494"/>
      <point x="112" y="460"/>
      <point x="101" y="414" type="curve" smooth="yes"/>
      <point x="99" y="408"/>
      <point x="103" y="403"/>
      <point x="109" y="403" type="curve" smooth="yes"/>
      <point x="164" y="403"/>
      <point x="238" y="403"/>
      <point x="293" y="403" type="curve"/>
      <point x="309" y="466"/>
      <point x="318" y="540"/>
      <point x="300" y="540" type="curve" smooth="yes"/>
      <point x="255" y="540"/>
      <point x="177" y="540"/>
    </contour>
    <contour>
      <point x="260" y="0" type="curve"/>
      <point x="268" y="30"/>
      <point x="275" y="59"/>
      <point x="285" y="98" type="curve" smooth="yes"/>
      <point x="360" y="395" type="line" smooth="yes"/>
      <point x="364" y="408"/>
      <point x="328" y="540"/>
      <point x="300" y="540" type="curve" smooth="yes"/>
      <point x="290" y="540"/>
      <point x="278" y="539"/>
      <point x="245" y="533" type="curve"/>
      <point x="113" y="11" type="line" smooth="yes"/>
      <point x="111" y="5"/>
      <point x="115" y="0"/>
      <point x="121" y="0" type="curve" smooth="yes"/>
      <point x="170" y="0"/>
      <point x="211" y="0"/>
    </contour>
    <contour>
      <point x="305" y="339" type="curve"/>
      <point x="377" y="382"/>
      <point x="425" y="396"/>
      <point x="479" y="396" type="curve" smooth="yes"/>
      <point x="510" y="396"/>
      <point x="540" y="392"/>
      <point x="570" y="384" type="curve"/>
      <point x="590" y="384" type="line"/>
      <point x="600" y="426"/>
      <point x="626" y="529"/>
      <point x="629" y="539" type="curve"/>
      <point x="631" y="546"/>
      <point x="627" y="550"/>
      <point x="620" y="550" type="curve" smooth="yes"/>
      <point x="562" y="550" type="line" smooth="yes"/>
      <point x="464" y="550"/>
      <point x="411" y="529"/>
      <point x="347" y="462" type="curve" smooth="yes"/>
      <point x="335" y="450"/>
      <point x="332" y="443"/>
    </contour>
  </outline>
</glyph>
<glyph name="t" format="1">
  <advance width="600"/>
  <unicode hex="0074"/>
  <outline>
    <contour>
      <point x="282" y="700" type="curve"/>
      <point x="162" y="220" type="line" smooth="yes"/>
      <point x="136" y="116"/>
      <point x="192" y="58"/>
      <point x="338" y="80" type="curve"/>
      <point x="304" y="126"/>
      <point x="298" y="162"/>
      <point x="315" y="232" type="curve" smooth="yes"/>
      <point x="429" y="689" type="line" smooth="yes"/>
      <point x="431" y="695"/>
      <point x="427" y="700"/>
      <point x="421" y="700" type="curve" smooth="yes"/>
      <point x="377" y="700"/>
      <point x="330" y="700"/>
    </contour>
    <contour>
      <point x="468" y="143" type="curve"/>
      <point x="448" y="143" type="line"/>
      <point x="410" y="143"/>
      <point x="424" y="143"/>
      <point x="377" y="143" type="curve" smooth="yes"/>
      <point x="314" y="143"/>
      <point x="296" y="160"/>
      <point x="315" y="232" type="curve"/>
      <point x="201" y="258"/>
      <point x="167" y="239"/>
      <point x="162" y="220" type="curve" smooth="yes"/>
      <point x="127" y="80"/>
      <point x="206" y="0"/>
      <point x="336" y="0" type="curve" smooth="yes"/>
      <point x="421" y="0" type="line" smooth="yes"/>
      <point x="424" y="0"/>
      <point x="427" y="1"/>
      <point x="430" y="3" type="curve" smooth="yes"/>
      <point x="432" y="5"/>
      <point x="434" y="8"/>
      <point x="435" y="11" type="curve" smooth="yes"/>
      <point x="446" y="57"/>
      <point x="456" y="97"/>
    </contour>
    <contour>
      <point x="122" y="540" type="line"/>
      <point x="111" y="494"/>
      <point x="101" y="457"/>
      <point x="90" y="411" type="curve" smooth="yes"/>
      <point x="89" y="408"/>
      <point x="89" y="405"/>
      <point x="91" y="403" type="curve" smooth="yes"/>
      <point x="92" y="401"/>
      <point x="95" y="400"/>
      <point x="98" y="400" type="curve" smooth="yes"/>
      <point x="532" y="400" type="line"/>
      <point x="544" y="446"/>
      <point x="553" y="483"/>
      <point x="564" y="529" type="curve" smooth="yes"/>
      <point x="566" y="535"/>
      <point x="562" y="540"/>
      <point x="556" y="540" type="curve" smooth="yes"/>
    </contour>
    <contour>
      <point x="562" y="700" type="move" name="caronslovak"/>
    </contour>
    <contour>
      <point x="303" y="-1" type="move" name="bottom"/>
    </contour>
  </outline>
</glyph>
<glyph name="v" format="1">
  <advance width="600"/>
  <unicode hex="0076"/>
  <outline>
    <contour>
      <point x="612" y="540" type="curve" smooth="yes"/>
      <point x="465" y="540" type="line"/>
      <point x="393" y="393"/>
      <point x="321" y="248"/>
      <point x="247" y="101" type="curve"/>
      <point x="212" y="33"/>
      <point x="199" y="16"/>
      <point x="161" y="0" type="curve"/>
      <point x="340" y="0" type="line"/>
      <point x="433" y="174"/>
      <point x="527" y="347"/>
      <point x="620" y="521" type="curve"/>
      <point x="626" y="531"/>
      <point x="623" y="540"/>
    </contour>
    <contour>
      <point x="241" y="540" type="curve" smooth="yes"/>
      <point x="104" y="540" type="line"/>
      <point x="110" y="365"/>
      <point x="116" y="190"/>
      <point x="122" y="15" type="curve"/>
      <point x="122" y="5"/>
      <point x="129" y="0"/>
      <point x="139" y="0" type="curve" smooth="yes"/>
      <point x="168" y="0" type="line" smooth="yes"/>
      <point x="228" y="0"/>
      <point x="336" y="29"/>
      <point x="363" y="141" type="curve"/>
      <point x="325" y="141"/>
      <point x="290" y="141"/>
      <point x="262" y="141" type="curve" smooth="yes"/>
      <point x="255" y="141"/>
      <point x="253" y="145"/>
      <point x="252" y="153" type="curve"/>
      <point x="253" y="276"/>
      <point x="253" y="399"/>
      <point x="253" y="523" type="curve"/>
      <point x="253" y="534"/>
      <point x="250" y="540"/>
    </contour>
  </outline>
</glyph>
<glyph name="braceleft" format="1">
  <advance width="600"/>
  <unicode hex="007B"/>
  <outline>
    <contour>
      <point x="488" y="618" type="curve" smooth="yes"/>
      <point x="560" y="618"/>
      <point x="529" y="618"/>
      <point x="587" y="618" type="curve"/>
      <point x="607" y="618" type="line"/>
      <point x="618" y="662"/>
      <point x="629" y="705"/>
      <point x="640" y="749" type="curve"/>
      <point x="642" y="756"/>
      <point x="639" y="760"/>
      <point x="632" y="760" type="curve" smooth="yes"/>
      <point x="455" y="760" type="line" smooth="yes"/>
      <point x="371" y="760"/>
      <point x="326" y="696"/>
      <point x="316" y="657" type="curve" smooth="yes"/>
      <point x="315" y="653" type="line" smooth="yes"/>
      <point x="313" y="645"/>
      <point x="318" y="638"/>
      <point x="449" y="590" type="curve"/>
      <point x="455" y="613"/>
      <point x="464" y="618"/>
    </contour>
    <contour>
      <point x="463" y="442" type="curve" smooth="yes"/>
      <point x="484" y="525"/>
      <point x="440" y="553"/>
      <point x="449" y="590" type="curve" smooth="yes"/>
      <point x="449" y="591"/>
      <point x="464" y="648"/>
      <point x="468" y="667" type="curve"/>
      <point x="322" y="667"/>
      <point x="317" y="663"/>
      <point x="316" y="657" type="curve" smooth="yes"/>
      <point x="306" y="616" type="line" smooth="yes"/>
      <point x="282" y="520"/>
      <point x="329" y="504"/>
      <point x="314" y="444" type="curve" smooth="yes"/>
      <point x="301" y="395"/>
      <point x="242" y="371"/>
      <point x="137" y="371" type="curve" smooth="yes"/>
      <point x="105" y="371" type="line"/>
      <point x="82" y="278" type="line" smooth="yes"/>
      <point x="80" y="270"/>
      <point x="83" y="267"/>
      <point x="90" y="267" type="curve" smooth="yes"/>
      <point x="111" y="267" type="line" smooth="yes"/>
      <point x="345" y="267"/>
      <point x="440" y="348"/>
    </contour>
    <contour>
      <point x="392" y="157" type="curve" smooth="yes"/>
      <point x="416" y="256"/>
      <point x="362" y="333"/>
      <point x="128" y="333" type="curve" smooth="yes"/>
      <point x="117" y="333"/>
      <point x="107" y="333"/>
      <point x="96" y="333" type="curve"/>
      <point x="72" y="240" type="line" smooth="yes"/>
      <point x="71" y="233"/>
      <point x="74" y="229"/>
      <point x="81" y="229" type="curve" smooth="yes"/>
      <point x="102" y="229" type="line" smooth="yes"/>
      <point x="207" y="229"/>
      <point x="253" y="201"/>
      <point x="241" y="155" type="curve" smooth="yes"/>
      <point x="226" y="95"/>
      <point x="171" y="79"/>
      <point x="147" y="-17" type="curve" smooth="yes"/>
      <point x="137" y="-58" type="line" smooth="yes"/>
      <point x="135" y="-64"/>
      <point x="138" y="-68"/>
      <point x="284" y="-68" type="curve"/>
      <point x="291" y="-42"/>
      <point x="297" y="-17"/>
      <point x="304" y="9" type="curve" smooth="yes"/>
      <point x="313" y="46"/>
      <point x="371" y="74"/>
    </contour>
    <contour>
      <point x="329" y="-19" type="curve" smooth="yes"/>
      <point x="305" y="-19"/>
      <point x="298" y="-14"/>
      <point x="304" y="9" type="curve"/>
      <point x="151" y="-39"/>
      <point x="140" y="-46"/>
      <point x="138" y="-54" type="curve" smooth="yes"/>
      <point x="137" y="-58" type="line" smooth="yes"/>
      <point x="127" y="-97"/>
      <point x="140" y="-161"/>
      <point x="224" y="-161" type="curve" smooth="yes"/>
      <point x="401" y="-161" type="line" smooth="yes"/>
      <point x="408" y="-161"/>
      <point x="413" y="-157"/>
      <point x="415" y="-150" type="curve"/>
      <point x="448" y="-19" type="line"/>
      <point x="428" y="-19" type="line"/>
      <point x="370" y="-19"/>
      <point x="401" y="-19"/>
    </contour>
  </outline>
</glyph>
<glyph name="bar" format="1">
  <advance width="600"/>
  <unicode hex="007C"/>
  <outline>
    <contour>
      <point x="343" y="760" type="curve"/>
      <point x="334" y="724"/>
      <point x="325" y="689"/>
      <point x="316" y="653" type="curve" smooth="yes"/>
      <point x="115" y="-149" type="line" smooth="yes"/>
      <point x="114" y="-155"/>
      <point x="117" y="-160"/>
      <point x="123" y="-160" type="curve" smooth="yes"/>
      <point x="173" y="-160"/>
      <point x="222" y="-160"/>
      <point x="272" y="-160" type="curve"/>
      <point x="500" y="749" type="line" smooth="yes"/>
      <point x="501" y="752"/>
      <point x="500" y="755"/>
      <point x="499" y="757" type="curve" smooth="yes"/>
      <point x="497" y="759"/>
      <point x="495" y="760"/>
      <point x="492" y="760" type="curve" smooth="yes"/>
      <point x="442" y="760"/>
      <point x="393" y="760"/>
    </contour>
  </outline>
</glyph>
<glyph name="braceright" format="1">
  <advance width="600"/>
  <unicode hex="007D"/>
  <outline>
    <contour>
      <point x="127" y="-19" type="curve" smooth="yes"/>
      <point x="54" y="-19"/>
      <point x="86" y="-19"/>
      <point x="28" y="-19" type="curve"/>
      <point x="8" y="-19" type="line"/>
      <point x="-3" y="-63"/>
      <point x="-14" y="-106"/>
      <point x="-25" y="-150" type="curve"/>
      <point x="-27" y="-157"/>
      <point x="-24" y="-161"/>
      <point x="-17" y="-161" type="curve" smooth="yes"/>
      <point x="160" y="-161" type="line" smooth="yes"/>
      <point x="244" y="-161"/>
      <point x="289" y="-97"/>
      <point x="299" y="-58" type="curve" smooth="yes"/>
      <point x="300" y="-54" type="line" smooth="yes"/>
      <point x="302" y="-46"/>
      <point x="297" y="-39"/>
      <point x="166" y="9" type="curve"/>
      <point x="160" y="-14"/>
      <point x="151" y="-19"/>
    </contour>
    <contour>
      <point x="152" y="157" type="curve" smooth="yes"/>
      <point x="131" y="74"/>
      <point x="175" y="46"/>
      <point x="166" y="9" type="curve" smooth="yes"/>
      <point x="165" y="8"/>
      <point x="151" y="-49"/>
      <point x="146" y="-68" type="curve"/>
      <point x="292" y="-68"/>
      <point x="297" y="-64"/>
      <point x="299" y="-58" type="curve" smooth="yes"/>
      <point x="309" y="-17" type="line" smooth="yes"/>
      <point x="333" y="79"/>
      <point x="286" y="95"/>
      <point x="301" y="155" type="curve" smooth="yes"/>
      <point x="313" y="204"/>
      <point x="372" y="228"/>
      <point x="477" y="228" type="curve" smooth="yes"/>
      <point x="509" y="228" type="line"/>
      <point x="533" y="321" type="line" smooth="yes"/>
      <point x="535" y="329"/>
      <point x="532" y="332"/>
      <point x="525" y="332" type="curve" smooth="yes"/>
      <point x="504" y="332" type="line" smooth="yes"/>
      <point x="270" y="332"/>
      <point x="175" y="251"/>
    </contour>
    <contour>
      <point x="223" y="442" type="curve" smooth="yes"/>
      <point x="198" y="343"/>
      <point x="253" y="266"/>
      <point x="487" y="266" type="curve" smooth="yes"/>
      <point x="498" y="266"/>
      <point x="508" y="266"/>
      <point x="519" y="266" type="curve"/>
      <point x="542" y="359" type="line" smooth="yes"/>
      <point x="544" y="366"/>
      <point x="541" y="370"/>
      <point x="534" y="370" type="curve" smooth="yes"/>
      <point x="513" y="370" type="line" smooth="yes"/>
      <point x="408" y="370"/>
      <point x="362" y="398"/>
      <point x="374" y="444" type="curve" smooth="yes"/>
      <point x="389" y="504"/>
      <point x="444" y="520"/>
      <point x="468" y="616" type="curve" smooth="yes"/>
      <point x="478" y="657" type="line" smooth="yes"/>
      <point x="479" y="663"/>
      <point x="476" y="667"/>
      <point x="330" y="667" type="curve"/>
      <point x="324" y="641"/>
      <point x="318" y="616"/>
      <point x="311" y="590" type="curve" smooth="yes"/>
      <point x="302" y="553"/>
      <point x="244" y="525"/>
    </contour>
    <contour>
      <point x="286" y="618" type="curve" smooth="yes"/>
      <point x="310" y="618"/>
      <point x="317" y="613"/>
      <point x="311" y="590" type="curve"/>
      <point x="464" y="638"/>
      <point x="475" y="645"/>
      <point x="477" y="653" type="curve" smooth="yes"/>
      <point x="478" y="657" type="line" smooth="yes"/>
      <point x="488" y="696"/>
      <point x="475" y="760"/>
      <point x="391" y="760" type="curve" smooth="yes"/>
      <point x="214" y="760" type="line" smooth="yes"/>
      <point x="207" y="760"/>
      <point x="202" y="756"/>
      <point x="200" y="749" type="curve"/>
      <point x="167" y="618" type="line"/>
      <point x="187" y="618" type="line"/>
      <point x="245" y="618"/>
      <point x="214" y="618"/>
    </contour>
  </outline>
</glyph>
<glyph name="asciitilde" format="1">
  <advance width="600"/>
  <unicode hex="007E"/>
  <outline>
    <contour>
      <point x="442" y="321" type="curve" smooth="yes"/>
      <point x="357" y="321"/>
      <point x="322" y="421"/>
      <point x="216" y="421" type="curve" smooth="yes"/>
      <point x="163" y="421"/>
      <point x="123" y="405"/>
      <point x="92" y="378" type="curve" smooth="yes"/>
      <point x="82" y="369"/>
      <point x="81" y="364"/>
      <point x="77" y="351" type="curve" smooth="yes"/>
      <point x="69" y="317"/>
      <point x="58" y="274"/>
      <point x="47" y="231" type="curve"/>
      <point x="67" y="231" type="line"/>
      <point x="101" y="264"/>
      <point x="136" y="278"/>
      <point x="173" y="278" type="curve" smooth="yes"/>
      <point x="258" y="278"/>
      <point x="293" y="178"/>
      <point x="399" y="178" type="curve" smooth="yes"/>
      <point x="452" y="178"/>
      <point x="492" y="194"/>
      <point x="523" y="221" type="curve" smooth="yes"/>
      <point x="533" y="230"/>
      <point x="534" y="235"/>
      <point x="537" y="248" type="curve" smooth="yes"/>
      <point x="546" y="282"/>
      <point x="557" y="325"/>
      <point x="568" y="368" type="curve"/>
      <point x="548" y="368" type="line"/>
      <point x="513" y="335"/>
      <point x="479" y="321"/>
    </contour>
  </outline>
</glyph>
<glyph name="exclamdown" format="1">
  <advance width="600"/>
  <unicode hex="00A1"/>
  <outline>
    <contour>
      <point x="241" y="250" type="line"/>
      <point x="211" y="179"/>
      <point x="182" y="109"/>
      <point x="152" y="38" type="curve"/>
      <point x="105" y="-149" type="line" smooth="yes"/>
      <point x="103" y="-156"/>
      <point x="107" y="-160"/>
      <point x="113" y="-160" type="curve" smooth="yes"/>
      <point x="185" y="-160"/>
      <point x="241" y="-160"/>
      <point x="282" y="-160" type="curve"/>
      <point x="292" y="-122"/>
      <point x="301" y="-87"/>
      <point x="310" y="-50" type="curve" smooth="yes"/>
      <point x="332" y="38" type="line"/>
      <point x="350" y="241"/>
      <point x="349" y="243"/>
      <point x="346" y="247" type="curve" smooth="yes"/>
      <point x="345" y="249"/>
      <point x="343" y="250"/>
      <point x="339" y="250" type="curve"/>
    </contour>
    <contour>
      <point x="270" y="550" type="curve"/>
      <point x="223" y="361" type="line" smooth="yes"/>
      <point x="221" y="355"/>
      <point x="225" y="350"/>
      <point x="231" y="350" type="curve" smooth="yes"/>
      <point x="294" y="350"/>
      <point x="357" y="350"/>
      <point x="420" y="350" type="curve"/>
      <point x="467" y="539" type="line" smooth="yes"/>
      <point x="469" y="545"/>
      <point x="465" y="550"/>
      <point x="459" y="550" type="curve" smooth="yes"/>
      <point x="396" y="550"/>
      <point x="333" y="550"/>
    </contour>
  </outline>
</glyph>
<glyph name="cent" format="1">
  <advance width="600"/>
  <unicode hex="00A2"/>
  <outline>
    <contour>
      <point x="425" y="383" type="line"/>
      <point x="582" y="764" type="line" smooth="yes"/>
      <point x="585" y="773"/>
      <point x="581" y="777"/>
      <point x="575" y="777" type="curve" smooth="yes"/>
      <point x="522" y="777"/>
      <point x="499" y="777"/>
      <point x="445" y="777" type="curve"/>
      <point x="437" y="744"/>
      <point x="428" y="711"/>
      <point x="420" y="678" type="curve"/>
      <point x="354" y="415" type="line" smooth="yes"/>
      <point x="352" y="407"/>
      <point x="354" y="402"/>
      <point x="362" y="400" type="curve" smooth="yes"/>
    </contour>
    <contour>
      <point x="330" y="314" type="line"/>
      <point x="174" y="-67" type="line" smooth="yes"/>
      <point x="170" y="-76"/>
      <point x="174" y="-80"/>
      <point x="180" y="-80" type="curve" smooth="yes"/>
      <point x="233" y="-80"/>
      <point x="256" y="-80"/>
      <point x="310" y="-80" type="curve"/>
      <point x="319" y="-47"/>
      <point x="327" y="-14"/>
      <point x="335" y="19" type="curve"/>
      <point x="401" y="282" type="line" smooth="yes"/>
      <point x="403" y="290"/>
      <point x="401" y="295"/>
      <point x="394" y="297" type="curve" smooth="yes"/>
    </contour>
    <contour>
      <point x="437" y="632" type="curve" smooth="yes"/>
      <point x="266" y="632"/>
      <point x="129" y="527"/>
      <point x="93" y="381" type="curve" smooth="yes"/>
      <point x="76" y="315" type="line" smooth="yes"/>
      <point x="37" y="159"/>
      <point x="111" y="68"/>
      <point x="295" y="68" type="curve" smooth="yes"/>
      <point x="318" y="68"/>
      <point x="323" y="89"/>
      <point x="330" y="218" type="curve"/>
      <point x="240" y="218"/>
      <point x="215" y="251"/>
      <point x="233" y="323" type="curve" smooth="yes"/>
      <point x="247" y="379" type="line" smooth="yes"/>
      <point x="267" y="459"/>
      <point x="326" y="482"/>
      <point x="396" y="482" type="curve" smooth="yes"/>
      <point x="452" y="482"/>
      <point x="497" y="470"/>
      <point x="545" y="449" type="curve"/>
      <point x="565" y="449" type="line"/>
      <point x="576" y="494"/>
      <point x="587" y="539"/>
      <point x="599" y="584" type="curve" smooth="yes"/>
      <point x="599" y="587"/>
      <point x="599" y="590"/>
      <point x="598" y="592" type="curve" smooth="yes"/>
      <point x="586" y="608"/>
      <point x="533" y="632"/>
    </contour>
    <contour>
      <point x="161" y="274" type="curve"/>
      <point x="99" y="127"/>
      <point x="149" y="68"/>
      <point x="295" y="68" type="curve" smooth="yes"/>
      <point x="388" y="68"/>
      <point x="457" y="90"/>
      <point x="476" y="105" type="curve" smooth="yes"/>
      <point x="478" y="107"/>
      <point x="480" y="110"/>
      <point x="481" y="113" type="curve"/>
      <point x="492" y="158"/>
      <point x="503" y="203"/>
      <point x="514" y="248" type="curve"/>
      <point x="494" y="248" type="line"/>
      <point x="437" y="229"/>
      <point x="386" y="218"/>
      <point x="330" y="218" type="curve" smooth="yes"/>
      <point x="253" y="218"/>
      <point x="200" y="238"/>
    </contour>
  </outline>
</glyph>
<glyph name="sterling" format="1">
  <advance width="600"/>
  <unicode hex="00A3"/>
  <outline>
    <contour>
      <point x="462" y="570" type="curve" smooth="yes"/>
      <point x="508" y="570"/>
      <point x="538" y="562"/>
      <point x="579" y="545" type="curve"/>
      <point x="599" y="545" type="line"/>
      <point x="608" y="580"/>
      <point x="619" y="627"/>
      <point x="633" y="680" type="curve" smooth="yes"/>
      <point x="633" y="683"/>
      <point x="634" y="685"/>
      <point x="632" y="687" type="curve" smooth="yes"/>
      <point x="625" y="696"/>
      <point x="579" y="720"/>
      <point x="498" y="720" type="curve" smooth="yes"/>
      <point x="340" y="720"/>
      <point x="230" y="648"/>
      <point x="201" y="533" type="curve" smooth="yes"/>
      <point x="194" y="506" type="line" smooth="yes"/>
      <point x="191" y="494"/>
      <point x="197" y="489"/>
      <point x="343" y="500" type="curve"/>
      <point x="356" y="554"/>
      <point x="388" y="570"/>
    </contour>
    <contour>
      <point x="194" y="506" type="curve" smooth="yes"/>
      <point x="170" y="408"/>
      <point x="150" y="329"/>
      <point x="124" y="225" type="curve" smooth="yes"/>
      <point x="110" y="171"/>
      <point x="75" y="142"/>
      <point x="33" y="142" type="curve" smooth="yes"/>
      <point x="26" y="142"/>
      <point x="19" y="142"/>
      <point x="12" y="142" type="curve"/>
      <point x="8" y="142" type="line"/>
      <point x="-3" y="98"/>
      <point x="-12" y="63"/>
      <point x="-25" y="11" type="curve" smooth="yes"/>
      <point x="-27" y="3"/>
      <point x="-24" y="0"/>
      <point x="-17" y="0" type="curve" smooth="yes"/>
      <point x="-12" y="0" type="line" smooth="yes"/>
      <point x="121" y="0"/>
      <point x="233" y="64"/>
      <point x="279" y="248" type="curve" smooth="yes"/>
      <point x="301" y="333"/>
      <point x="321" y="415"/>
      <point x="343" y="500" type="curve" smooth="yes"/>
      <point x="353" y="541"/>
      <point x="362" y="579"/>
      <point x="372" y="618" type="curve"/>
      <point x="288" y="618"/>
      <point x="212" y="577"/>
    </contour>
    <contour>
      <point x="-12" y="0" type="curve"/>
      <point x="167" y="0"/>
      <point x="271" y="0"/>
      <point x="406" y="0" type="curve" smooth="yes"/>
      <point x="471" y="0" type="line" smooth="yes"/>
      <point x="479" y="0"/>
      <point x="483" y="3"/>
      <point x="485" y="11" type="curve"/>
      <point x="496" y="55"/>
      <point x="507" y="98"/>
      <point x="518" y="142" type="curve"/>
      <point x="498" y="142" type="line"/>
      <point x="472" y="142"/>
      <point x="452" y="142"/>
      <point x="419" y="142" type="curve" smooth="yes"/>
      <point x="323" y="142"/>
      <point x="248" y="142"/>
      <point x="95" y="142" type="curve"/>
      <point x="-22" y="9"/>
      <point x="-19" y="0"/>
    </contour>
    <contour>
      <point x="95" y="410" type="line"/>
      <point x="84" y="364"/>
      <point x="82" y="357"/>
      <point x="70" y="311" type="curve" smooth="yes"/>
      <point x="70" y="308"/>
      <point x="70" y="305"/>
      <point x="71" y="303" type="curve" smooth="yes"/>
      <point x="73" y="301"/>
      <point x="76" y="300"/>
      <point x="79" y="300" type="curve" smooth="yes"/>
      <point x="458" y="300" type="line"/>
      <point x="469" y="346"/>
      <point x="471" y="353"/>
      <point x="482" y="399" type="curve" smooth="yes"/>
      <point x="484" y="405"/>
      <point x="480" y="410"/>
      <point x="474" y="410" type="curve" smooth="yes"/>
    </contour>
  </outline>
</glyph>
<glyph name="currency" format="1">
  <advance width="600"/>
  <unicode hex="00A4"/>
  <outline>
    <contour>
      <point x="297" y="424" type="curve"/>
      <point x="273" y="455"/>
      <point x="246" y="491"/>
      <point x="222" y="523" type="curve" smooth="yes"/>
      <point x="221" y="525"/>
      <point x="219" y="526"/>
      <point x="217" y="526" type="curve" smooth="yes"/>
      <point x="215" y="526"/>
      <point x="213" y="525"/>
      <point x="210" y="523" type="curve" smooth="yes"/>
      <point x="177" y="496"/>
      <point x="141" y="467"/>
      <point x="114" y="446" type="curve"/>
      <point x="137" y="415"/>
      <point x="165" y="378"/>
      <point x="188" y="347" type="curve" smooth="yes"/>
      <point x="191" y="343"/>
      <point x="195" y="343"/>
      <point x="200" y="347" type="curve" smooth="yes"/>
      <point x="230" y="371"/>
      <point x="269" y="402"/>
    </contour>
    <contour>
      <point x="379" y="424" type="curve"/>
      <point x="384" y="417"/>
      <point x="430" y="355"/>
      <point x="436" y="347" type="curve" smooth="yes"/>
      <point x="439" y="343"/>
      <point x="443" y="343"/>
      <point x="448" y="347" type="curve" smooth="yes"/>
      <point x="487" y="378"/>
      <point x="533" y="415"/>
      <point x="572" y="446" type="curve"/>
      <point x="553" y="472"/>
      <point x="534" y="497"/>
      <point x="514" y="523" type="curve" smooth="yes"/>
      <point x="513" y="525"/>
      <point x="511" y="526"/>
      <point x="509" y="526" type="curve" smooth="yes"/>
      <point x="507" y="526"/>
      <point x="505" y="525"/>
      <point x="502" y="523" type="curve" smooth="yes"/>
      <point x="462" y="491"/>
      <point x="417" y="455"/>
    </contour>
    <contour>
      <point x="316" y="174" type="curve"/>
      <point x="339" y="143"/>
      <point x="366" y="107"/>
      <point x="390" y="75" type="curve" smooth="yes"/>
      <point x="392" y="73"/>
      <point x="393" y="72"/>
      <point x="395" y="72" type="curve" smooth="yes"/>
      <point x="397" y="72"/>
      <point x="400" y="73"/>
      <point x="402" y="75" type="curve" smooth="yes"/>
      <point x="436" y="102"/>
      <point x="472" y="131"/>
      <point x="498" y="152" type="curve"/>
      <point x="475" y="183"/>
      <point x="447" y="220"/>
      <point x="424" y="251" type="curve" smooth="yes"/>
      <point x="421" y="255"/>
      <point x="417" y="255"/>
      <point x="412" y="251" type="curve" smooth="yes"/>
      <point x="382" y="227"/>
      <point x="343" y="196"/>
    </contour>
    <contour>
      <point x="234" y="174" type="curve"/>
      <point x="229" y="181"/>
      <point x="182" y="243"/>
      <point x="176" y="251" type="curve" smooth="yes"/>
      <point x="173" y="255"/>
      <point x="169" y="255"/>
      <point x="164" y="251" type="curve" smooth="yes"/>
      <point x="125" y="220"/>
      <point x="79" y="183"/>
      <point x="40" y="152" type="curve"/>
      <point x="60" y="126"/>
      <point x="79" y="101"/>
      <point x="98" y="75" type="curve" smooth="yes"/>
      <point x="100" y="73"/>
      <point x="101" y="72"/>
      <point x="103" y="72" type="curve" smooth="yes"/>
      <point x="105" y="72"/>
      <point x="108" y="73"/>
      <point x="110" y="75" type="curve" smooth="yes"/>
      <point x="150" y="107"/>
      <point x="195" y="143"/>
    </contour>
    <contour>
      <point x="288" y="222" type="curve"/>
      <point x="240" y="222"/>
      <point x="218" y="243"/>
      <point x="227" y="279" type="curve" smooth="yes"/>
      <point x="238" y="322" type="line" smooth="yes"/>
      <point x="247" y="359"/>
      <point x="280" y="379"/>
      <point x="327" y="379" type="curve" smooth="yes"/>
      <point x="357" y="379"/>
      <point x="373" y="379"/>
      <point x="393" y="379" type="curve"/>
      <point x="408" y="438"/>
      <point x="416" y="476"/>
      <point x="352" y="476" type="curve"/>
      <point x="245" y="476"/>
      <point x="163" y="420"/>
      <point x="141" y="332" type="curve" smooth="yes"/>
      <point x="125" y="270" type="line" smooth="yes"/>
      <point x="103" y="181"/>
      <point x="157" y="125"/>
      <point x="264" y="125" type="curve"/>
      <point x="273" y="125"/>
      <point x="290" y="196"/>
    </contour>
    <contour>
      <point x="327" y="379" type="curve"/>
      <point x="375" y="379"/>
      <point x="397" y="359"/>
      <point x="388" y="322" type="curve" smooth="yes"/>
      <point x="377" y="279" type="line" smooth="yes"/>
      <point x="368" y="243"/>
      <point x="335" y="222"/>
      <point x="288" y="222" type="curve" smooth="yes"/>
      <point x="258" y="222"/>
      <point x="243" y="222"/>
      <point x="222" y="222" type="curve"/>
      <point x="208" y="165"/>
      <point x="200" y="125"/>
      <point x="264" y="125" type="curve"/>
      <point x="371" y="125"/>
      <point x="453" y="181"/>
      <point x="475" y="270" type="curve" smooth="yes"/>
      <point x="491" y="332" type="line" smooth="yes"/>
      <point x="513" y="420"/>
      <point x="458" y="476"/>
      <point x="352" y="476" type="curve"/>
      <point x="339" y="476"/>
      <point x="325" y="408"/>
    </contour>
  </outline>
</glyph>
<glyph name="brokenbar" format="1">
  <advance width="600"/>
  <unicode hex="00A6"/>
  <outline>
    <contour>
      <point x="343" y="760" type="curve"/>
      <point x="334" y="727"/>
      <point x="326" y="694"/>
      <point x="318" y="661" type="curve" smooth="yes"/>
      <point x="248" y="380" type="line" smooth="yes"/>
      <point x="246" y="374"/>
      <point x="250" y="369"/>
      <point x="256" y="369" type="curve" smooth="yes"/>
      <point x="305" y="369"/>
      <point x="354" y="369"/>
      <point x="405" y="369" type="curve"/>
      <point x="500" y="749" type="line" smooth="yes"/>
      <point x="501" y="752"/>
      <point x="500" y="755"/>
      <point x="499" y="757" type="curve" smooth="yes"/>
      <point x="497" y="759"/>
      <point x="495" y="760"/>
      <point x="492" y="760" type="curve" smooth="yes"/>
      <point x="441" y="760"/>
      <point x="392" y="760"/>
    </contour>
    <contour>
      <point x="210" y="231" type="curve"/>
      <point x="115" y="-149" type="line"/>
      <point x="114" y="-155"/>
      <point x="117" y="-160"/>
      <point x="123" y="-160" type="curve" smooth="yes"/>
      <point x="172" y="-160"/>
      <point x="221" y="-160"/>
      <point x="272" y="-160" type="curve"/>
      <point x="367" y="220" type="line" smooth="yes"/>
      <point x="369" y="227"/>
      <point x="366" y="231"/>
      <point x="359" y="231" type="curve" smooth="yes"/>
      <point x="308" y="231"/>
      <point x="259" y="231"/>
    </contour>
  </outline>
</glyph>
<glyph name="section" format="1">
  <advance width="600"/>
  <unicode hex="00A7"/>
  <outline>
    <contour>
      <point x="432" y="720" type="curve" smooth="yes"/>
      <point x="284" y="720"/>
      <point x="158" y="632"/>
      <point x="130" y="523" type="curve" smooth="yes"/>
      <point x="119" y="479" type="line" smooth="yes"/>
      <point x="113" y="452"/>
      <point x="174" y="418"/>
      <point x="251" y="418" type="curve"/>
      <point x="258" y="447"/>
      <point x="269" y="488"/>
      <point x="276" y="516" type="curve" smooth="yes"/>
      <point x="288" y="564"/>
      <point x="328" y="582"/>
      <point x="400" y="582" type="curve" smooth="yes"/>
      <point x="442" y="582"/>
      <point x="506" y="569"/>
      <point x="543" y="551" type="curve"/>
      <point x="612" y="641"/>
      <point x="615" y="647"/>
      <point x="618" y="657" type="curve" smooth="yes"/>
      <point x="621" y="668"/>
      <point x="620" y="671"/>
      <point x="617" y="676" type="curve" smooth="yes"/>
      <point x="602" y="696"/>
      <point x="536" y="720"/>
    </contour>
    <contour>
      <point x="419" y="401" type="curve" smooth="yes"/>
      <point x="331" y="430" type="line" smooth="yes"/>
      <point x="270" y="450"/>
      <point x="263" y="464"/>
      <point x="272" y="500" type="curve" smooth="yes"/>
      <point x="277" y="522"/>
      <point x="283" y="545"/>
      <point x="288" y="567" type="curve"/>
      <point x="210" y="566"/>
      <point x="141" y="564"/>
      <point x="119" y="479" type="curve" smooth="yes"/>
      <point x="105" y="421"/>
      <point x="115" y="344"/>
      <point x="238" y="303" type="curve" smooth="yes"/>
      <point x="325" y="274" type="line" smooth="yes"/>
      <point x="389" y="253"/>
      <point x="391" y="238"/>
      <point x="384" y="211" type="curve" smooth="yes"/>
      <point x="377" y="183" type="line" smooth="yes"/>
      <point x="372" y="160"/>
      <point x="353" y="136"/>
      <point x="307" y="107" type="curve"/>
      <point x="355" y="107"/>
      <point x="387" y="107"/>
      <point x="413" y="107" type="curve" smooth="yes"/>
      <point x="457" y="107"/>
      <point x="519" y="161"/>
      <point x="532" y="214" type="curve" smooth="yes"/>
      <point x="536" y="232" type="line" smooth="yes"/>
      <point x="556" y="311"/>
      <point x="534" y="363"/>
    </contour>
    <contour>
      <point x="356" y="149" type="curve" smooth="yes"/>
      <point x="267" y="178" type="line" smooth="yes"/>
      <point x="206" y="198"/>
      <point x="199" y="212"/>
      <point x="208" y="248" type="curve" smooth="yes"/>
      <point x="215" y="273" type="line" smooth="yes"/>
      <point x="223" y="307"/>
      <point x="243" y="329"/>
      <point x="282" y="346" type="curve"/>
      <point x="220" y="346"/>
      <point x="196" y="346"/>
      <point x="181" y="346" type="curve" smooth="yes"/>
      <point x="131" y="346"/>
      <point x="73" y="294"/>
      <point x="58" y="233" type="curve" smooth="yes"/>
      <point x="54" y="217" type="line" smooth="yes"/>
      <point x="39" y="159"/>
      <point x="51" y="92"/>
      <point x="175" y="51" type="curve" smooth="yes"/>
      <point x="262" y="22" type="line" smooth="yes"/>
      <point x="326" y="1"/>
      <point x="328" y="-14"/>
      <point x="321" y="-41" type="curve" smooth="yes"/>
      <point x="313" y="-72"/>
      <point x="306" y="-103"/>
      <point x="298" y="-134" type="curve"/>
      <point x="364" y="-134"/>
      <point x="456" y="-90"/>
      <point x="471" y="-30" type="curve"/>
      <point x="491" y="49"/>
      <point x="471" y="111"/>
    </contour>
    <contour>
      <point x="149" y="-250" type="curve" smooth="yes"/>
      <point x="316" y="-250"/>
      <point x="436" y="-168"/>
      <point x="465" y="-53" type="curve" smooth="yes"/>
      <point x="471" y="-30" type="line" smooth="yes"/>
      <point x="475" y="-12"/>
      <point x="418" y="8"/>
      <point x="333" y="8" type="curve"/>
      <point x="325" y="-24"/>
      <point x="325" y="-24"/>
      <point x="319" y="-49" type="curve" smooth="yes"/>
      <point x="312" y="-77"/>
      <point x="275" y="-105"/>
      <point x="196" y="-105" type="curve" smooth="yes"/>
      <point x="106" y="-105"/>
      <point x="51" y="-86"/>
      <point x="1" y="-47" type="curve"/>
      <point x="-19" y="-47" type="line"/>
      <point x="-27" y="-76"/>
      <point x="-40" y="-131"/>
      <point x="-55" y="-188" type="curve" smooth="yes"/>
      <point x="-55" y="-190"/>
      <point x="-55" y="-194"/>
      <point x="-54" y="-196" type="curve" smooth="yes"/>
      <point x="-28" y="-230"/>
      <point x="52" y="-250"/>
    </contour>
    <contour>
      <point x="581" y="510" type="curve"/>
      <point x="618" y="657" type="line" smooth="yes"/>
      <point x="621" y="670"/>
      <point x="609" y="672"/>
      <point x="477" y="672" type="curve"/>
      <point x="473" y="658"/>
      <point x="468" y="638"/>
      <point x="463" y="617" type="curve" smooth="yes"/>
      <point x="439" y="521" type="line" smooth="yes"/>
      <point x="437" y="514"/>
      <point x="439" y="513"/>
      <point x="440" y="512" type="curve" smooth="yes"/>
      <point x="440" y="511"/>
      <point x="442" y="510"/>
      <point x="446" y="510" type="curve" smooth="yes"/>
      <point x="491" y="510"/>
      <point x="536" y="510"/>
    </contour>
  </outline>
</glyph>
<glyph name="ordfeminine" format="1">
  <advance width="600"/>
  <unicode hex="00AA"/>
  <outline>
    <contour>
      <point x="387" y="760" type="curve" smooth="yes"/>
      <point x="333" y="760"/>
      <point x="251" y="748"/>
      <point x="236" y="736" type="curve" smooth="yes"/>
      <point x="234" y="735"/>
      <point x="233" y="732"/>
      <point x="232" y="730" type="curve" smooth="yes"/>
      <point x="223" y="695"/>
      <point x="215" y="660"/>
      <point x="206" y="626" type="curve"/>
      <point x="223" y="626" type="line"/>
      <point x="273" y="637"/>
      <point x="314" y="642"/>
      <point x="367" y="642" type="curve" smooth="yes"/>
      <point x="422" y="642"/>
      <point x="441" y="628"/>
      <point x="429" y="582" type="curve"/>
      <point x="536" y="552"/>
      <point x="552" y="553"/>
      <point x="556" y="570" type="curve"/>
      <point x="590" y="706"/>
      <point x="542" y="760"/>
    </contour>
    <contour>
      <point x="448" y="658" type="curve"/>
      <point x="443" y="638"/>
      <point x="438" y="617"/>
      <point x="433" y="598" type="curve" smooth="yes"/>
      <point x="416" y="531"/>
      <point x="405" y="484"/>
      <point x="384" y="400" type="curve" smooth="yes"/>
      <point x="374" y="361"/>
      <point x="430" y="326"/>
      <point x="495" y="326" type="curve"/>
      <point x="501" y="350"/>
      <point x="506" y="370"/>
      <point x="513" y="399" type="curve" smooth="yes"/>
      <point x="529" y="462"/>
      <point x="536" y="489"/>
      <point x="556" y="570" type="curve" smooth="yes"/>
      <point x="570" y="626"/>
      <point x="555" y="658"/>
    </contour>
    <contour>
      <point x="563" y="409" type="line"/>
      <point x="547" y="409" type="line"/>
      <point x="543" y="409"/>
      <point x="542" y="409"/>
      <point x="537" y="409" type="curve" smooth="yes"/>
      <point x="525" y="409"/>
      <point x="519" y="417"/>
      <point x="523" y="436" type="curve"/>
      <point x="401" y="432"/>
      <point x="387" y="415"/>
      <point x="384" y="400" type="curve" smooth="yes"/>
      <point x="369" y="343"/>
      <point x="407" y="290"/>
      <point x="491" y="290" type="curve" smooth="yes"/>
      <point x="524" y="290" type="line" smooth="yes"/>
      <point x="530" y="290"/>
      <point x="534" y="293"/>
      <point x="535" y="299" type="curve"/>
    </contour>
    <contour>
      <point x="258" y="428" type="curve" smooth="yes"/>
      <point x="263" y="448" type="line" smooth="yes"/>
      <point x="269" y="474"/>
      <point x="274" y="493"/>
      <point x="279" y="514" type="curve"/>
      <point x="208" y="514"/>
      <point x="146" y="486"/>
      <point x="135" y="442" type="curve" smooth="yes"/>
      <point x="127" y="411" type="line" smooth="yes"/>
      <point x="110" y="341"/>
      <point x="147" y="290"/>
      <point x="227" y="290" type="curve" smooth="yes"/>
      <point x="284" y="290"/>
      <point x="347" y="317"/>
      <point x="406" y="378" type="curve" smooth="yes"/>
      <point x="414" y="385"/>
      <point x="422" y="407"/>
      <point x="425" y="452" type="curve"/>
      <point x="377" y="416"/>
      <point x="340" y="403"/>
      <point x="283" y="403" type="curve" smooth="yes"/>
      <point x="281" y="403" type="line" smooth="yes"/>
      <point x="258" y="403"/>
      <point x="255" y="416"/>
    </contour>
    <contour>
      <point x="439" y="538" type="curve" smooth="yes"/>
      <point x="429" y="553"/>
      <point x="371" y="564"/>
      <point x="294" y="564" type="curve" smooth="yes"/>
      <point x="224" y="564"/>
      <point x="152" y="509"/>
      <point x="135" y="442" type="curve" smooth="yes"/>
      <point x="134" y="436"/>
      <point x="141" y="425"/>
      <point x="263" y="448" type="curve"/>
      <point x="266" y="463"/>
      <point x="281" y="476"/>
      <point x="300" y="476" type="curve" smooth="yes"/>
      <point x="341" y="476"/>
      <point x="417" y="476"/>
      <point x="446" y="476" type="curve"/>
      <point x="452" y="500"/>
      <point x="450" y="523"/>
    </contour>
  </outline>
</glyph>
<glyph name="logicalnot" format="1">
  <advance width="600"/>
  <unicode hex="00AC"/>
  <outline>
    <contour>
      <point x="108" y="460" type="line"/>
      <point x="96" y="414"/>
      <point x="88" y="381"/>
      <point x="76" y="335" type="curve" smooth="yes"/>
      <point x="76" y="332"/>
      <point x="76" y="329"/>
      <point x="77" y="327" type="curve" smooth="yes"/>
      <point x="79" y="325"/>
      <point x="82" y="324"/>
      <point x="85" y="324" type="curve"/>
      <point x="554" y="324" type="line"/>
      <point x="585" y="449" type="line"/>
      <point x="586" y="455"/>
      <point x="583" y="460"/>
      <point x="577" y="460" type="curve"/>
    </contour>
    <contour>
      <point x="508" y="141" type="curve"/>
      <point x="571" y="394" type="line" smooth="yes"/>
      <point x="573" y="400"/>
      <point x="569" y="405"/>
      <point x="563" y="405" type="curve"/>
      <point x="424" y="405" type="line"/>
      <point x="360" y="152" type="line" smooth="yes"/>
      <point x="359" y="146"/>
      <point x="363" y="141"/>
      <point x="369" y="141" type="curve" smooth="yes"/>
      <point x="419" y="141"/>
      <point x="458" y="141"/>
    </contour>
  </outline>
</glyph>
<glyph name="degree" format="1">
  <advance width="600"/>
  <unicode hex="00B0"/>
  <outline>
    <contour>
      <point x="347" y="456" type="curve"/>
      <point x="299" y="456"/>
      <point x="277" y="477"/>
      <point x="286" y="513" type="curve" smooth="yes"/>
      <point x="297" y="556" type="line" smooth="yes"/>
      <point x="306" y="593"/>
      <point x="339" y="613"/>
      <point x="386" y="613" type="curve" smooth="yes"/>
      <point x="416" y="613"/>
      <point x="432" y="613"/>
      <point x="452" y="613" type="curve"/>
      <point x="467" y="672"/>
      <point x="474" y="710"/>
      <point x="410" y="710" type="curve"/>
      <point x="303" y="710"/>
      <point x="221" y="654"/>
      <point x="199" y="566" type="curve" smooth="yes"/>
      <point x="184" y="504" type="line" smooth="yes"/>
      <point x="161" y="415"/>
      <point x="215" y="359"/>
      <point x="322" y="359" type="curve"/>
      <point x="331" y="359"/>
      <point x="349" y="430"/>
    </contour>
    <contour>
      <point x="386" y="613" type="curve"/>
      <point x="434" y="613"/>
      <point x="456" y="593"/>
      <point x="447" y="556" type="curve" smooth="yes"/>
      <point x="436" y="513" type="line" smooth="yes"/>
      <point x="427" y="477"/>
      <point x="394" y="456"/>
      <point x="347" y="456" type="curve" smooth="yes"/>
      <point x="317" y="456"/>
      <point x="302" y="456"/>
      <point x="281" y="456" type="curve"/>
      <point x="266" y="399"/>
      <point x="258" y="359"/>
      <point x="322" y="359" type="curve"/>
      <point x="429" y="359"/>
      <point x="511" y="415"/>
      <point x="534" y="504" type="curve" smooth="yes"/>
      <point x="549" y="566" type="line" smooth="yes"/>
      <point x="571" y="654"/>
      <point x="517" y="710"/>
      <point x="410" y="710" type="curve"/>
      <point x="397" y="710"/>
      <point x="383" y="642"/>
    </contour>
  </outline>
</glyph>
<glyph name="plusminus" format="1">
  <advance width="600"/>
  <unicode hex="00B1"/>
  <outline>
    <contour>
      <point x="108" y="460" type="line"/>
      <point x="96" y="414"/>
      <point x="88" y="381"/>
      <point x="76" y="335" type="curve" smooth="yes"/>
      <point x="76" y="332"/>
      <point x="76" y="329"/>
      <point x="77" y="327" type="curve" smooth="yes"/>
      <point x="79" y="325"/>
      <point x="82" y="324"/>
      <point x="85" y="324" type="curve"/>
      <point x="554" y="324" type="line"/>
      <point x="565" y="370"/>
      <point x="573" y="403"/>
      <point x="585" y="449" type="curve" smooth="yes"/>
      <point x="586" y="455"/>
      <point x="583" y="460"/>
      <point x="577" y="460" type="curve"/>
    </contour>
    <contour>
      <point x="365" y="229" type="curve"/>
      <point x="444" y="544" type="line" smooth="yes"/>
      <point x="444" y="547"/>
      <point x="444" y="550"/>
      <point x="443" y="552" type="curve" smooth="yes"/>
      <point x="441" y="554"/>
      <point x="438" y="555"/>
      <point x="435" y="555" type="curve" smooth="yes"/>
      <point x="390" y="555"/>
      <point x="351" y="555"/>
      <point x="296" y="555" type="curve"/>
      <point x="289" y="527"/>
      <point x="281" y="493"/>
      <point x="272" y="457" type="curve" smooth="yes"/>
      <point x="217" y="240" type="line" smooth="yes"/>
      <point x="216" y="234"/>
      <point x="220" y="229"/>
      <point x="226" y="229" type="curve" smooth="yes"/>
      <point x="276" y="229"/>
      <point x="315" y="229"/>
    </contour>
    <contour>
      <point x="34" y="165" type="line"/>
      <point x="22" y="119"/>
      <point x="14" y="86"/>
      <point x="2" y="40" type="curve" smooth="yes"/>
      <point x="2" y="37"/>
      <point x="2" y="34"/>
      <point x="3" y="32" type="curve" smooth="yes"/>
      <point x="5" y="30"/>
      <point x="8" y="29"/>
      <point x="11" y="29" type="curve"/>
      <point x="480" y="29" type="line"/>
      <point x="491" y="75"/>
      <point x="499" y="108"/>
      <point x="511" y="154" type="curve" smooth="yes"/>
      <point x="512" y="160"/>
      <point x="509" y="165"/>
      <point x="503" y="165" type="curve"/>
    </contour>
  </outline>
</glyph>
<glyph name="threesuperior" format="1">
  <advance width="600"/>
  <unicode hex="00B3"/>
  <outline>
    <contour>
      <point x="363" y="619" type="curve" smooth="yes"/>
      <point x="401" y="619"/>
      <point x="416" y="613"/>
      <point x="413" y="601" type="curve" smooth="yes"/>
      <point x="412" y="598"/>
      <point x="411" y="593"/>
      <point x="410" y="590" type="curve"/>
      <point x="485" y="591"/>
      <point x="511" y="600"/>
      <point x="516" y="621" type="curve" smooth="yes"/>
      <point x="518" y="630" type="line" smooth="yes"/>
      <point x="533" y="691"/>
      <point x="476" y="711"/>
      <point x="397" y="711" type="curve"/>
      <point x="347" y="711"/>
      <point x="299" y="698"/>
      <point x="287" y="688" type="curve" smooth="yes"/>
      <point x="280" y="683"/>
      <point x="280" y="680"/>
      <point x="278" y="674" type="curve" smooth="yes"/>
      <point x="272" y="648"/>
      <point x="266" y="625"/>
      <point x="260" y="603" type="curve"/>
      <point x="272" y="603" type="line"/>
      <point x="311" y="616"/>
      <point x="333" y="619"/>
    </contour>
    <contour>
      <point x="321" y="527" type="curve" smooth="yes"/>
      <point x="426" y="527"/>
      <point x="500" y="558"/>
      <point x="516" y="621" type="curve" smooth="yes"/>
      <point x="518" y="631"/>
      <point x="506" y="635"/>
      <point x="421" y="635" type="curve"/>
      <point x="419" y="626"/>
      <point x="417" y="618"/>
      <point x="413" y="601" type="curve" smooth="yes"/>
      <point x="409" y="584"/>
      <point x="393" y="573"/>
      <point x="322" y="573" type="curve"/>
      <point x="320" y="567"/>
      <point x="315" y="547"/>
      <point x="313" y="538" type="curve" smooth="yes"/>
      <point x="311" y="531"/>
      <point x="314" y="527"/>
    </contour>
    <contour>
      <point x="314" y="497" type="curve" smooth="yes"/>
      <point x="379" y="497"/>
      <point x="389" y="481"/>
      <point x="386" y="469" type="curve" smooth="yes"/>
      <point x="383" y="458"/>
      <point x="380" y="447"/>
      <point x="378" y="438" type="curve"/>
      <point x="464" y="438"/>
      <point x="475" y="442"/>
      <point x="479" y="456" type="curve" smooth="yes"/>
      <point x="497" y="530"/>
      <point x="417" y="543"/>
      <point x="314" y="543" type="curve"/>
      <point x="313" y="539"/>
      <point x="309" y="520"/>
      <point x="306" y="508" type="curve" smooth="yes"/>
      <point x="304" y="501"/>
      <point x="307" y="497"/>
    </contour>
    <contour>
      <point x="324" y="449" type="curve" smooth="yes"/>
      <point x="291" y="449"/>
      <point x="269" y="453"/>
      <point x="228" y="467" type="curve"/>
      <point x="216" y="467" type="line"/>
      <point x="211" y="444"/>
      <point x="204" y="419"/>
      <point x="198" y="393" type="curve" smooth="yes"/>
      <point x="196" y="387"/>
      <point x="196" y="384"/>
      <point x="199" y="379" type="curve" smooth="yes"/>
      <point x="207" y="369"/>
      <point x="253" y="357"/>
      <point x="303" y="357" type="curve" smooth="yes"/>
      <point x="394" y="357"/>
      <point x="460" y="382"/>
      <point x="477" y="448" type="curve" smooth="yes"/>
      <point x="479" y="456" type="line" smooth="yes"/>
      <point x="483" y="472"/>
      <point x="467" y="491"/>
      <point x="391" y="491" type="curve"/>
      <point x="390" y="486"/>
      <point x="387" y="475"/>
      <point x="386" y="469" type="curve" smooth="yes"/>
      <point x="383" y="457"/>
      <point x="372" y="449"/>
    </contour>
  </outline>
</glyph>
<glyph name="paragraph" format="1">
  <advance width="600"/>
  <unicode hex="00B6"/>
  <outline>
    <contour>
      <point x="225" y="-150" type="curve"/>
      <point x="417" y="619" type="line"/>
      <point x="419" y="625"/>
      <point x="415" y="630"/>
      <point x="409" y="630" type="curve" smooth="yes"/>
      <point x="372" y="630"/>
      <point x="337" y="630"/>
      <point x="300" y="630" type="curve"/>
      <point x="108" y="-139" type="line" smooth="yes"/>
      <point x="106" y="-146"/>
      <point x="109" y="-150"/>
      <point x="116" y="-150" type="curve" smooth="yes"/>
      <point x="153" y="-150"/>
      <point x="188" y="-150"/>
    </contour>
    <contour>
      <point x="425" y="-150" type="curve"/>
      <point x="433" y="-118"/>
      <point x="442" y="-80"/>
      <point x="452" y="-40" type="curve" smooth="yes"/>
      <point x="617" y="619" type="line" smooth="yes"/>
      <point x="619" y="625"/>
      <point x="615" y="630"/>
      <point x="609" y="630" type="curve" smooth="yes"/>
      <point x="572" y="630"/>
      <point x="537" y="630"/>
      <point x="500" y="630" type="curve"/>
      <point x="308" y="-139" type="line" smooth="yes"/>
      <point x="306" y="-146"/>
      <point x="309" y="-150"/>
      <point x="316" y="-150" type="curve" smooth="yes"/>
      <point x="353" y="-150"/>
      <point x="388" y="-150"/>
    </contour>
    <contour>
      <point x="366" y="700" type="line" smooth="yes"/>
      <point x="232" y="700"/>
      <point x="121" y="631"/>
      <point x="86" y="488" type="curve" smooth="yes"/>
      <point x="64" y="402" type="line" smooth="yes"/>
      <point x="37" y="294"/>
      <point x="85" y="218"/>
      <point x="186" y="218" type="curve" smooth="yes"/>
      <point x="296" y="218" type="line" smooth="yes"/>
      <point x="304" y="218"/>
      <point x="313" y="225"/>
      <point x="339" y="330" type="curve"/>
      <point x="330" y="330" type="line" smooth="yes"/>
      <point x="308" y="330"/>
      <point x="289" y="346"/>
      <point x="301" y="395" type="curve" smooth="yes"/>
      <point x="326" y="492" type="line" smooth="yes"/>
      <point x="338" y="541"/>
      <point x="367" y="563"/>
      <point x="402" y="563" type="curve" smooth="yes"/>
      <point x="483" y="563"/>
      <point x="574" y="563"/>
      <point x="641" y="563" type="curve"/>
      <point x="652" y="563" type="line"/>
      <point x="657" y="583"/>
      <point x="661" y="598"/>
      <point x="684" y="689" type="curve" smooth="yes"/>
      <point x="685" y="692"/>
      <point x="684" y="695"/>
      <point x="683" y="697" type="curve" smooth="yes"/>
      <point x="681" y="699"/>
      <point x="679" y="700"/>
      <point x="676" y="700" type="curve" smooth="yes"/>
    </contour>
  </outline>
</glyph>
<glyph name="cedilla" format="1">
  <advance width="600"/>
  <unicode hex="00B8"/>
  <outline>
    <contour>
      <point x="324" y="-111" type="curve" smooth="yes"/>
      <point x="339" y="-51"/>
      <point x="312" y="-14"/>
      <point x="256" y="0" type="curve"/>
      <point x="267" y="24"/>
      <point x="274" y="39"/>
      <point x="282" y="56" type="curve"/>
      <point x="230" y="56"/>
      <point x="221" y="51"/>
      <point x="214" y="41" type="curve" smooth="yes"/>
      <point x="196" y="17"/>
      <point x="187" y="3"/>
      <point x="166" y="-25" type="curve" smooth="yes"/>
      <point x="160" y="-34"/>
      <point x="163" y="-40"/>
      <point x="170" y="-40" type="curve" smooth="yes"/>
      <point x="207" y="-40"/>
      <point x="217" y="-52"/>
      <point x="211" y="-79" type="curve" smooth="yes"/>
      <point x="204" y="-104"/>
      <point x="179" y="-120"/>
      <point x="144" y="-120" type="curve" smooth="yes"/>
      <point x="118" y="-120"/>
      <point x="103" y="-115"/>
      <point x="86" y="-105" type="curve"/>
      <point x="74" y="-105" type="line"/>
      <point x="68" y="-130"/>
      <point x="54" y="-186"/>
      <point x="45" y="-220" type="curve" smooth="yes"/>
      <point x="43" y="-229"/>
      <point x="60" y="-250"/>
      <point x="130" y="-250" type="curve" smooth="yes"/>
      <point x="239" y="-250"/>
      <point x="304" y="-188"/>
    </contour>
  </outline>
</glyph>
<glyph name="onesuperior" format="1">
  <advance width="600"/>
  <unicode hex="00B9"/>
  <outline>
    <contour>
      <point x="400" y="391" type="curve"/>
      <point x="426" y="494"/>
      <point x="452" y="597"/>
      <point x="477" y="699" type="curve" smooth="yes"/>
      <point x="479" y="706"/>
      <point x="476" y="710"/>
      <point x="469" y="710" type="curve" smooth="yes"/>
      <point x="384" y="710" type="line"/>
      <point x="359" y="609"/>
      <point x="333" y="506"/>
      <point x="308" y="404" type="curve" smooth="yes"/>
      <point x="305" y="395"/>
      <point x="356" y="391"/>
    </contour>
    <contour>
      <point x="213" y="459" type="line"/>
      <point x="208" y="438"/>
      <point x="202" y="413"/>
      <point x="193" y="377" type="curve" smooth="yes"/>
      <point x="191" y="369"/>
      <point x="194" y="366"/>
      <point x="201" y="366" type="curve" smooth="yes"/>
      <point x="458" y="366" type="line"/>
      <point x="463" y="387"/>
      <point x="474" y="428"/>
      <point x="479" y="448" type="curve" smooth="yes"/>
      <point x="480" y="455"/>
      <point x="477" y="459"/>
      <point x="470" y="459" type="curve" smooth="yes"/>
    </contour>
    <contour>
      <point x="245" y="528" type="curve" smooth="yes"/>
      <point x="252" y="528"/>
      <point x="257" y="531"/>
      <point x="410" y="640" type="curve" smooth="yes"/>
      <point x="455" y="675"/>
      <point x="441" y="710"/>
      <point x="413" y="710" type="curve"/>
      <point x="376" y="710" type="line"/>
      <point x="338" y="682"/>
      <point x="301" y="655"/>
      <point x="263" y="627" type="curve"/>
      <point x="240" y="534" type="line" smooth="yes"/>
      <point x="239" y="530"/>
      <point x="241" y="528"/>
    </contour>
  </outline>
</glyph>
<glyph name="ordmasculine" format="1">
  <advance width="600"/>
  <unicode hex="00BA"/>
  <outline>
    <contour>
      <point x="425" y="762" type="curve" smooth="yes"/>
      <point x="299" y="762"/>
      <point x="192" y="676"/>
      <point x="161" y="552" type="curve" smooth="yes"/>
      <point x="149" y="507" type="line" smooth="yes"/>
      <point x="116" y="373"/>
      <point x="179" y="288"/>
      <point x="303" y="288" type="curve" smooth="yes"/>
      <point x="315" y="288"/>
      <point x="324" y="299"/>
      <point x="330" y="406" type="curve"/>
      <point x="273" y="406"/>
      <point x="257" y="434"/>
      <point x="273" y="498" type="curve" smooth="yes"/>
      <point x="288" y="556" type="line" smooth="yes"/>
      <point x="302" y="612"/>
      <point x="341" y="644"/>
      <point x="398" y="644" type="curve" smooth="yes"/>
      <point x="439" y="644"/>
      <point x="463" y="644"/>
      <point x="488" y="644" type="curve"/>
      <point x="507" y="720"/>
      <point x="483" y="762"/>
    </contour>
    <contour>
      <point x="303" y="288" type="curve" smooth="yes"/>
      <point x="428" y="288"/>
      <point x="536" y="374"/>
      <point x="567" y="498" type="curve" smooth="yes"/>
      <point x="579" y="544" type="line" smooth="yes"/>
      <point x="612" y="677"/>
      <point x="548" y="762"/>
      <point x="425" y="762" type="curve" smooth="yes"/>
      <point x="419" y="762"/>
      <point x="414" y="756"/>
      <point x="398" y="644" type="curve"/>
      <point x="453" y="644"/>
      <point x="471" y="618"/>
      <point x="455" y="552" type="curve" smooth="yes"/>
      <point x="440" y="494" type="line" smooth="yes"/>
      <point x="426" y="438"/>
      <point x="386" y="406"/>
      <point x="330" y="406" type="curve" smooth="yes"/>
      <point x="289" y="406"/>
      <point x="263" y="406"/>
      <point x="238" y="406" type="curve"/>
      <point x="217" y="322"/>
      <point x="246" y="288"/>
    </contour>
  </outline>
</glyph>
<glyph name="onehalf" format="1">
  <advance width="600"/>
  <unicode hex="00BD"/>
  <outline>
    <contour>
      <point x="260" y="391" type="curve"/>
      <point x="286" y="494"/>
      <point x="312" y="597"/>
      <point x="337" y="699" type="curve" smooth="yes"/>
      <point x="339" y="706"/>
      <point x="336" y="710"/>
      <point x="329" y="710" type="curve" smooth="yes"/>
      <point x="244" y="710" type="line"/>
      <point x="219" y="609"/>
      <point x="193" y="506"/>
      <point x="168" y="404" type="curve" smooth="yes"/>
      <point x="165" y="395"/>
      <point x="216" y="391"/>
    </contour>
    <contour>
      <point x="73" y="459" type="line"/>
      <point x="67" y="432"/>
      <point x="60" y="404"/>
      <point x="53" y="377" type="curve" smooth="yes"/>
      <point x="51" y="369"/>
      <point x="54" y="366"/>
      <point x="61" y="366" type="curve" smooth="yes"/>
      <point x="318" y="366" type="line"/>
      <point x="325" y="393"/>
      <point x="332" y="421"/>
      <point x="339" y="448" type="curve" smooth="yes"/>
      <point x="340" y="455"/>
      <point x="337" y="459"/>
      <point x="330" y="459" type="curve" smooth="yes"/>
    </contour>
    <contour>
      <point x="104" y="524" type="curve" smooth="yes"/>
      <point x="111" y="524"/>
      <point x="116" y="527"/>
      <point x="266" y="640" type="curve" smooth="yes"/>
      <point x="311" y="676"/>
      <point x="301" y="710"/>
      <point x="273" y="710" type="curve"/>
      <point x="236" y="710" type="line"/>
      <point x="198" y="682"/>
      <point x="161" y="655"/>
      <point x="123" y="627" type="curve"/>
      <point x="99" y="530" type="line" smooth="yes"/>
      <point x="98" y="526"/>
      <point x="100" y="524"/>
    </contour>
    <contour>
      <point x="408" y="249" type="curve" smooth="yes"/>
      <point x="444" y="249"/>
      <point x="449" y="242"/>
      <point x="447" y="233" type="curve"/>
      <point x="494" y="233"/>
      <point x="545" y="243"/>
      <point x="546" y="248" type="curve" smooth="yes"/>
      <point x="562" y="310"/>
      <point x="510" y="341"/>
      <point x="433" y="341" type="curve" smooth="yes"/>
      <point x="383" y="341"/>
      <point x="334" y="331"/>
      <point x="318" y="318" type="curve" smooth="yes"/>
      <point x="312" y="313"/>
      <point x="311" y="310"/>
      <point x="310" y="304" type="curve" smooth="yes"/>
      <point x="303" y="278"/>
      <point x="297" y="254"/>
      <point x="291" y="231" type="curve"/>
      <point x="303" y="231" type="line"/>
      <point x="346" y="245"/>
      <point x="370" y="249"/>
    </contour>
    <contour>
      <point x="462" y="295" type="curve"/>
      <point x="457" y="273"/>
      <point x="450" y="247"/>
      <point x="447" y="233" type="curve" smooth="yes"/>
      <point x="444" y="221"/>
      <point x="440" y="217"/>
      <point x="376" y="198" type="curve" smooth="yes"/>
      <point x="287" y="173"/>
      <point x="257" y="133"/>
      <point x="244" y="82" type="curve" smooth="yes"/>
      <point x="242" y="76"/>
      <point x="298" y="77"/>
      <point x="339" y="77" type="curve"/>
      <point x="346" y="107"/>
      <point x="356" y="114"/>
      <point x="429" y="136" type="curve" smooth="yes"/>
      <point x="504" y="158"/>
      <point x="531" y="185"/>
      <point x="544" y="239" type="curve" smooth="yes"/>
      <point x="546" y="248" type="line" smooth="yes"/>
      <point x="553" y="272"/>
      <point x="498" y="295"/>
    </contour>
    <contour>
      <point x="488" y="0" type="line"/>
      <point x="495" y="28"/>
      <point x="500" y="48"/>
      <point x="507" y="76" type="curve" smooth="yes"/>
      <point x="509" y="83"/>
      <point x="506" y="87"/>
      <point x="499" y="87" type="curve" smooth="yes"/>
      <point x="292" y="87" type="line" smooth="yes"/>
      <point x="278" y="87"/>
      <point x="263" y="85"/>
      <point x="244" y="82" type="curve"/>
      <point x="238" y="59"/>
      <point x="232" y="34"/>
      <point x="226" y="11" type="curve" smooth="yes"/>
      <point x="224" y="4"/>
      <point x="227" y="0"/>
      <point x="234" y="0" type="curve" smooth="yes"/>
    </contour>
    <contour>
      <point x="391" y="405" type="curve"/>
      <point x="413" y="405"/>
      <point x="438" y="405"/>
      <point x="475" y="405" type="curve" smooth="yes"/>
      <point x="480" y="405"/>
      <point x="482" y="406"/>
      <point x="487" y="412" type="curve" smooth="yes"/>
      <point x="554" y="507"/>
      <point x="622" y="602"/>
      <point x="690" y="697" type="curve" smooth="yes"/>
      <point x="696" y="705"/>
      <point x="693" y="710"/>
      <point x="685" y="710" type="curve" smooth="yes"/>
      <point x="636" y="710"/>
      <point x="607" y="710"/>
      <point x="549" y="710" type="curve"/>
      <point x="497" y="608"/>
      <point x="443" y="507"/>
    </contour>
    <contour>
      <point x="250" y="296" type="curve"/>
      <point x="228" y="296"/>
      <point x="203" y="296"/>
      <point x="166" y="296" type="curve" smooth="yes"/>
      <point x="161" y="296"/>
      <point x="158" y="295"/>
      <point x="154" y="289" type="curve" smooth="yes"/>
      <point x="86" y="194"/>
      <point x="18" y="99"/>
      <point x="-50" y="4" type="curve" smooth="yes"/>
      <point x="-56" y="-4"/>
      <point x="-53" y="-9"/>
      <point x="-45" y="-9" type="curve" smooth="yes"/>
      <point x="4" y="-9"/>
      <point x="33" y="-9"/>
      <point x="91" y="-9" type="curve"/>
      <point x="144" y="93"/>
      <point x="197" y="194"/>
    </contour>
  </outline>
</glyph>
<glyph name="threequarters" format="1">
  <advance width="600"/>
  <unicode hex="00BE"/>
  <outline>
    <contour>
      <point x="253" y="619" type="curve" smooth="yes"/>
      <point x="291" y="619"/>
      <point x="306" y="613"/>
      <point x="303" y="601" type="curve" smooth="yes"/>
      <point x="302" y="598"/>
      <point x="301" y="593"/>
      <point x="300" y="590" type="curve"/>
      <point x="375" y="591"/>
      <point x="401" y="600"/>
      <point x="406" y="621" type="curve" smooth="yes"/>
      <point x="408" y="630" type="line" smooth="yes"/>
      <point x="423" y="691"/>
      <point x="366" y="711"/>
      <point x="287" y="711" type="curve"/>
      <point x="237" y="711"/>
      <point x="189" y="698"/>
      <point x="177" y="688" type="curve" smooth="yes"/>
      <point x="170" y="683"/>
      <point x="170" y="680"/>
      <point x="168" y="674" type="curve" smooth="yes"/>
      <point x="162" y="648"/>
      <point x="156" y="625"/>
      <point x="150" y="603" type="curve"/>
      <point x="162" y="603" type="line"/>
      <point x="201" y="616"/>
      <point x="223" y="619"/>
    </contour>
    <contour>
      <point x="211" y="527" type="curve" smooth="yes"/>
      <point x="316" y="527"/>
      <point x="390" y="558"/>
      <point x="406" y="621" type="curve" smooth="yes"/>
      <point x="408" y="631"/>
      <point x="396" y="635"/>
      <point x="311" y="635" type="curve"/>
      <point x="309" y="626"/>
      <point x="307" y="618"/>
      <point x="303" y="601" type="curve" smooth="yes"/>
      <point x="299" y="584"/>
      <point x="283" y="573"/>
      <point x="212" y="573" type="curve"/>
      <point x="210" y="567"/>
      <point x="205" y="547"/>
      <point x="203" y="538" type="curve" smooth="yes"/>
      <point x="201" y="531"/>
      <point x="204" y="527"/>
    </contour>
    <contour>
      <point x="204" y="497" type="curve" smooth="yes"/>
      <point x="269" y="497"/>
      <point x="279" y="481"/>
      <point x="276" y="469" type="curve" smooth="yes"/>
      <point x="273" y="458"/>
      <point x="270" y="447"/>
      <point x="268" y="438" type="curve"/>
      <point x="354" y="438"/>
      <point x="365" y="442"/>
      <point x="369" y="456" type="curve" smooth="yes"/>
      <point x="387" y="530"/>
      <point x="307" y="543"/>
      <point x="204" y="543" type="curve"/>
      <point x="203" y="539"/>
      <point x="199" y="520"/>
      <point x="196" y="508" type="curve" smooth="yes"/>
      <point x="194" y="501"/>
      <point x="197" y="497"/>
    </contour>
    <contour>
      <point x="214" y="449" type="curve" smooth="yes"/>
      <point x="181" y="449"/>
      <point x="159" y="453"/>
      <point x="118" y="467" type="curve"/>
      <point x="106" y="467" type="line"/>
      <point x="101" y="444"/>
      <point x="94" y="419"/>
      <point x="88" y="393" type="curve" smooth="yes"/>
      <point x="86" y="387"/>
      <point x="86" y="384"/>
      <point x="89" y="379" type="curve" smooth="yes"/>
      <point x="97" y="369"/>
      <point x="143" y="357"/>
      <point x="193" y="357" type="curve" smooth="yes"/>
      <point x="284" y="357"/>
      <point x="350" y="382"/>
      <point x="367" y="448" type="curve" smooth="yes"/>
      <point x="369" y="456" type="line" smooth="yes"/>
      <point x="373" y="472"/>
      <point x="357" y="491"/>
      <point x="281" y="491" type="curve"/>
      <point x="280" y="486"/>
      <point x="277" y="475"/>
      <point x="276" y="469" type="curve" smooth="yes"/>
      <point x="273" y="457"/>
      <point x="262" y="449"/>
    </contour>
    <contour>
      <point x="293" y="117" type="curve"/>
      <point x="367" y="190"/>
      <point x="437" y="260"/>
      <point x="514" y="335" type="curve"/>
      <point x="516" y="342" type="line"/>
      <point x="489" y="342"/>
      <point x="438" y="342"/>
      <point x="406" y="342" type="curve" smooth="yes"/>
      <point x="401" y="342"/>
      <point x="397" y="341"/>
      <point x="390" y="334" type="curve" smooth="yes"/>
      <point x="365" y="306"/>
      <point x="221" y="148"/>
      <point x="221" y="146" type="curve" smooth="yes"/>
      <point x="215" y="124"/>
      <point x="259" y="119"/>
    </contour>
    <contour>
      <point x="529" y="68" type="line"/>
      <point x="536" y="93"/>
      <point x="544" y="125"/>
      <point x="550" y="150" type="curve" smooth="yes"/>
      <point x="552" y="157"/>
      <point x="549" y="161"/>
      <point x="542" y="161" type="curve" smooth="yes"/>
      <point x="328" y="161" type="line" smooth="yes"/>
      <point x="308" y="161"/>
      <point x="286" y="158"/>
      <point x="221" y="146" type="curve"/>
      <point x="204" y="79" type="line" smooth="yes"/>
      <point x="203" y="73"/>
      <point x="205" y="68"/>
      <point x="212" y="68" type="curve" smooth="yes"/>
    </contour>
    <contour>
      <point x="474" y="0" type="curve"/>
      <point x="480" y="21"/>
      <point x="482" y="32"/>
      <point x="487" y="52" type="curve" smooth="yes"/>
      <point x="528" y="216" type="line" smooth="yes"/>
      <point x="530" y="223"/>
      <point x="528" y="227"/>
      <point x="520" y="227" type="curve" smooth="yes"/>
      <point x="462" y="227" type="line"/>
      <point x="439" y="193"/>
      <point x="415" y="159"/>
      <point x="414" y="153" type="curve" smooth="yes"/>
      <point x="378" y="11" type="line" smooth="yes"/>
      <point x="376" y="3"/>
      <point x="379" y="0"/>
      <point x="386" y="0" type="curve" smooth="yes"/>
      <point x="414" y="0"/>
      <point x="446" y="0"/>
    </contour>
    <contour>
      <point x="391" y="405" type="curve"/>
      <point x="413" y="405"/>
      <point x="438" y="405"/>
      <point x="475" y="405" type="curve" smooth="yes"/>
      <point x="480" y="405"/>
      <point x="482" y="406"/>
      <point x="487" y="412" type="curve" smooth="yes"/>
      <point x="554" y="507"/>
      <point x="622" y="602"/>
      <point x="690" y="697" type="curve" smooth="yes"/>
      <point x="696" y="705"/>
      <point x="693" y="710"/>
      <point x="685" y="710" type="curve" smooth="yes"/>
      <point x="636" y="710"/>
      <point x="607" y="710"/>
      <point x="549" y="710" type="curve"/>
      <point x="497" y="608"/>
      <point x="443" y="507"/>
    </contour>
    <contour>
      <point x="250" y="296" type="curve"/>
      <point x="228" y="296"/>
      <point x="203" y="296"/>
      <point x="166" y="296" type="curve" smooth="yes"/>
      <point x="161" y="296"/>
      <point x="158" y="295"/>
      <point x="154" y="289" type="curve" smooth="yes"/>
      <point x="86" y="194"/>
      <point x="18" y="99"/>
      <point x="-50" y="4" type="curve" smooth="yes"/>
      <point x="-56" y="-4"/>
      <point x="-53" y="-9"/>
      <point x="-45" y="-9" type="curve" smooth="yes"/>
      <point x="4" y="-9"/>
      <point x="33" y="-9"/>
      <point x="91" y="-9" type="curve"/>
      <point x="144" y="93"/>
      <point x="197" y="194"/>
    </contour>
  </outline>
</glyph>
<glyph name="questiondown" format="1">
  <advance width="600"/>
  <unicode hex="00BF"/>
  <outline>
    <contour>
      <point x="193" y="-180" type="curve" smooth="yes"/>
      <point x="297" y="-180"/>
      <point x="390" y="-157"/>
      <point x="414" y="-137" type="curve" smooth="yes"/>
      <point x="418" y="-134"/>
      <point x="420" y="-131"/>
      <point x="421" y="-126" type="curve" smooth="yes"/>
      <point x="435" y="-70"/>
      <point x="449" y="-12"/>
      <point x="456" y="14" type="curve"/>
      <point x="436" y="14" type="line"/>
      <point x="371" y="-18"/>
      <point x="306" y="-30"/>
      <point x="232" y="-30" type="curve" smooth="yes"/>
      <point x="146" y="-30"/>
      <point x="146" y="-10"/>
      <point x="152" y="13" type="curve" smooth="yes"/>
      <point x="158" y="38"/>
      <point x="163" y="57"/>
      <point x="170" y="85" type="curve"/>
      <point x="56" y="84"/>
      <point x="8" y="40"/>
      <point x="-5" y="-13" type="curve" smooth="yes"/>
      <point x="-26" y="-96"/>
      <point x="22" y="-180"/>
    </contour>
    <contour>
      <point x="129" y="-76" type="curve"/>
      <point x="135" y="-54"/>
      <point x="144" y="-19"/>
      <point x="152" y="13" type="curve" smooth="yes"/>
      <point x="160" y="48"/>
      <point x="168" y="56"/>
      <point x="233" y="94" type="curve" smooth="yes"/>
      <point x="260" y="110" type="line" smooth="yes"/>
      <point x="349" y="163"/>
      <point x="379" y="195"/>
      <point x="393" y="251" type="curve" smooth="yes"/>
      <point x="400" y="277" type="line" smooth="yes"/>
      <point x="402" y="286"/>
      <point x="400" y="288"/>
      <point x="392" y="288" type="curve" smooth="yes"/>
      <point x="251" y="288" type="line"/>
      <point x="249" y="282" type="line" smooth="yes"/>
      <point x="241" y="249"/>
      <point x="228" y="237"/>
      <point x="182" y="212" type="curve" smooth="yes"/>
      <point x="146" y="192" type="line" smooth="yes"/>
      <point x="52" y="139"/>
      <point x="22" y="94"/>
      <point x="3" y="18" type="curve" smooth="yes"/>
      <point x="-5" y="-13" type="line" smooth="yes"/>
      <point x="-15" y="-52"/>
      <point x="2" y="-76"/>
    </contour>
    <contour>
      <point x="290" y="550" type="curve"/>
      <point x="245" y="371" type="line" smooth="yes"/>
      <point x="244" y="365"/>
      <point x="248" y="360"/>
      <point x="254" y="360" type="curve" smooth="yes"/>
      <point x="317" y="360"/>
      <point x="380" y="360"/>
      <point x="443" y="360" type="curve"/>
      <point x="487" y="539" type="line" smooth="yes"/>
      <point x="489" y="545"/>
      <point x="485" y="550"/>
      <point x="479" y="550" type="curve" smooth="yes"/>
      <point x="416" y="550"/>
      <point x="353" y="550"/>
    </contour>
  </outline>
</glyph>
<glyph name="Adieresis" format="1">
  <advance width="600"/>
  <unicode hex="00C4"/>
  <outline>
    <contour>
      <point x="118" y="0" type="curve"/>
      <point x="307" y="433"/>
      <point x="340" y="511"/>
      <point x="392" y="628" type="curve"/>
      <point x="406" y="660"/>
      <point x="432" y="681"/>
      <point x="529" y="700" type="curve"/>
      <point x="277" y="700" type="line"/>
      <point x="231" y="596"/>
      <point x="124" y="355"/>
      <point x="-27" y="13" type="curve"/>
      <point x="-32" y="3"/>
      <point x="-27" y="0"/>
      <point x="-23" y="0" type="curve" smooth="yes"/>
      <point x="24" y="0"/>
      <point x="71" y="0"/>
    </contour>
    <contour>
      <point x="498" y="0" type="curve"/>
      <point x="514" y="277"/>
      <point x="528" y="515"/>
      <point x="538" y="689" type="curve"/>
      <point x="538" y="694"/>
      <point x="537" y="695"/>
      <point x="536" y="697" type="curve" smooth="yes"/>
      <point x="534" y="700"/>
      <point x="533" y="700"/>
      <point x="529" y="700" type="curve"/>
      <point x="385" y="700"/>
      <point x="362" y="689"/>
      <point x="329" y="556" type="curve"/>
      <point x="345" y="556"/>
      <point x="366" y="556"/>
      <point x="378" y="556" type="curve" smooth="yes"/>
      <point x="382" y="556"/>
      <point x="384" y="555"/>
      <point x="384" y="550" type="curve"/>
      <point x="376" y="432"/>
      <point x="368" y="304"/>
      <point x="347" y="11" type="curve"/>
      <point x="347" y="6"/>
      <point x="347" y="4"/>
      <point x="348" y="3" type="curve" smooth="yes"/>
      <point x="350" y="1"/>
      <point x="351" y="0"/>
      <point x="355" y="0" type="curve" smooth="yes"/>
      <point x="403" y="0"/>
      <point x="450" y="0"/>
    </contour>
    <contour>
      <point x="153" y="292" type="line"/>
      <point x="120" y="161" type="line" smooth="yes"/>
      <point x="119" y="158"/>
      <point x="119" y="155"/>
      <point x="121" y="153" type="curve" smooth="yes"/>
      <point x="122" y="151"/>
      <point x="125" y="150"/>
      <point x="128" y="150" type="curve"/>
      <point x="437" y="150" type="line"/>
      <point x="472" y="288"/>
      <point x="468" y="292"/>
      <point x="462" y="292" type="curve" smooth="yes"/>
    </contour>
    <contour>
      <point x="398" y="788" type="curve"/>
      <point x="432" y="924" type="line" smooth="yes"/>
      <point x="433" y="930"/>
      <point x="429" y="935"/>
      <point x="423" y="935" type="curve" smooth="yes"/>
      <point x="375" y="935"/>
      <point x="326" y="935"/>
      <point x="278" y="935" type="curve"/>
      <point x="244" y="799" type="line" smooth="yes"/>
      <point x="243" y="793"/>
      <point x="247" y="788"/>
      <point x="253" y="788" type="curve" smooth="yes"/>
      <point x="301" y="788"/>
      <point x="350" y="788"/>
    </contour>
    <contour>
      <point x="618" y="788" type="curve"/>
      <point x="652" y="924" type="line" smooth="yes"/>
      <point x="653" y="930"/>
      <point x="649" y="935"/>
      <point x="643" y="935" type="curve" smooth="yes"/>
      <point x="595" y="935"/>
      <point x="546" y="935"/>
      <point x="498" y="935" type="curve"/>
      <point x="464" y="799" type="line" smooth="yes"/>
      <point x="463" y="793"/>
      <point x="467" y="788"/>
      <point x="473" y="788" type="curve" smooth="yes"/>
      <point x="521" y="788"/>
      <point x="570" y="788"/>
    </contour>
  </outline>
</glyph>
<glyph name="AE" format="1">
  <advance width="600"/>
  <unicode hex="00C6"/>
  <outline>
    <contour>
      <point x="93" y="0" type="curve"/>
      <point x="171" y="189"/>
      <point x="247" y="379"/>
      <point x="325" y="568" type="curve"/>
      <point x="364" y="660"/>
      <point x="387" y="688"/>
      <point x="453" y="700" type="curve"/>
      <point x="237" y="700" type="line"/>
      <point x="139" y="471"/>
      <point x="43" y="242"/>
      <point x="-54" y="13" type="curve"/>
      <point x="-59" y="3"/>
      <point x="-54" y="0"/>
      <point x="-50" y="0" type="curve" smooth="yes"/>
      <point x="-2" y="0"/>
      <point x="45" y="0"/>
    </contour>
    <contour>
      <point x="369" y="0" type="curve"/>
      <point x="411" y="229"/>
      <point x="452" y="460"/>
      <point x="493" y="689" type="curve"/>
      <point x="495" y="696"/>
      <point x="491" y="700"/>
      <point x="484" y="700" type="curve"/>
      <point x="337" y="700"/>
      <point x="290" y="714"/>
      <point x="252" y="561" type="curve"/>
      <point x="324" y="561" type="line"/>
      <point x="329" y="561"/>
      <point x="331" y="560"/>
      <point x="329" y="550" type="curve"/>
      <point x="296" y="369"/>
      <point x="262" y="188"/>
      <point x="229" y="7" type="curve" smooth="yes"/>
      <point x="229" y="1"/>
      <point x="232" y="0"/>
      <point x="238" y="0" type="curve" smooth="yes"/>
      <point x="284" y="0"/>
      <point x="323" y="0"/>
    </contour>
    <contour>
      <point x="120" y="259" type="line"/>
      <point x="89" y="136" type="line"/>
      <point x="88" y="130"/>
      <point x="92" y="125"/>
      <point x="98" y="125" type="curve"/>
      <point x="275" y="125" type="line"/>
      <point x="305" y="248" type="line"/>
      <point x="307" y="256"/>
      <point x="305" y="259"/>
      <point x="297" y="259" type="curve"/>
    </contour>
    <contour>
      <point x="403" y="700" type="line"/>
      <point x="371" y="572" type="line"/>
      <point x="369" y="566"/>
      <point x="373" y="561"/>
      <point x="379" y="561" type="curve" smooth="yes"/>
      <point x="653" y="561" type="line"/>
      <point x="664" y="605"/>
      <point x="674" y="645"/>
      <point x="685" y="689" type="curve" smooth="yes"/>
      <point x="686" y="692"/>
      <point x="685" y="695"/>
      <point x="684" y="697" type="curve" smooth="yes"/>
      <point x="682" y="699"/>
      <point x="680" y="700"/>
      <point x="677" y="700" type="curve"/>
    </contour>
    <contour>
      <point x="372" y="418" type="line"/>
      <point x="342" y="297" type="line"/>
      <point x="340" y="290"/>
      <point x="343" y="286"/>
      <point x="350" y="286" type="curve" smooth="yes"/>
      <point x="544" y="286" type="line"/>
      <point x="555" y="328"/>
      <point x="564" y="365"/>
      <point x="574" y="407" type="curve" smooth="yes"/>
      <point x="576" y="414"/>
      <point x="573" y="418"/>
      <point x="566" y="418" type="curve"/>
    </contour>
    <contour>
      <point x="352" y="139" type="line"/>
      <point x="320" y="11" type="line" smooth="yes"/>
      <point x="319" y="5"/>
      <point x="322" y="0"/>
      <point x="328" y="0" type="curve" smooth="yes"/>
      <point x="512" y="0" type="line"/>
      <point x="523" y="44"/>
      <point x="533" y="84"/>
      <point x="544" y="128" type="curve" smooth="yes"/>
      <point x="546" y="134"/>
      <point x="542" y="139"/>
      <point x="536" y="139" type="curve" smooth="yes"/>
    </contour>
    <contour>
      <point x="459" y="711" type="move" name="top"/>
    </contour>
  </outline>
</glyph>
<glyph name="Eacute" format="1">
  <advance width="600"/>
  <unicode hex="00C9"/>
  <outline>
    <contour>
      <point x="138" y="700" type="line"/>
      <point x="126" y="654"/>
      <point x="116" y="615"/>
      <point x="105" y="569" type="curve" smooth="yes"/>
      <point x="104" y="566"/>
      <point x="104" y="563"/>
      <point x="106" y="561" type="curve" smooth="yes"/>
      <point x="107" y="559"/>
      <point x="110" y="558"/>
      <point x="113" y="558" type="curve" smooth="yes"/>
      <point x="612" y="558" type="line"/>
      <point x="624" y="604"/>
      <point x="633" y="643"/>
      <point x="645" y="689" type="curve" smooth="yes"/>
      <point x="646" y="692"/>
      <point x="645" y="695"/>
      <point x="644" y="697" type="curve" smooth="yes"/>
      <point x="642" y="699"/>
      <point x="640" y="700"/>
      <point x="637" y="700" type="curve" smooth="yes"/>
    </contour>
    <contour>
      <point x="192" y="100" type="curve"/>
      <point x="327" y="639" type="line" smooth="yes"/>
      <point x="329" y="645"/>
      <point x="325" y="650"/>
      <point x="170" y="650" type="curve"/>
      <point x="43" y="142" type="line"/>
      <point x="38" y="121"/>
      <point x="62" y="100"/>
    </contour>
    <contour>
      <point x="43" y="142" type="line"/>
      <point x="10" y="11" type="line" smooth="yes"/>
      <point x="9" y="5"/>
      <point x="12" y="0"/>
      <point x="18" y="0" type="curve" smooth="yes"/>
      <point x="472" y="0" type="line"/>
      <point x="484" y="46"/>
      <point x="494" y="85"/>
      <point x="505" y="131" type="curve" smooth="yes"/>
      <point x="507" y="137"/>
      <point x="503" y="142"/>
      <point x="497" y="142" type="curve" smooth="yes"/>
    </contour>
    <contour>
      <point x="183" y="420" type="line"/>
      <point x="150" y="289"/>
      <point x="153" y="283"/>
      <point x="159" y="283" type="curve" smooth="yes"/>
      <point x="483" y="283" type="line"/>
      <point x="493" y="322"/>
      <point x="503" y="362"/>
      <point x="515" y="409" type="curve" smooth="yes"/>
      <point x="516" y="412"/>
      <point x="515" y="415"/>
      <point x="514" y="417" type="curve" smooth="yes"/>
      <point x="512" y="419"/>
      <point x="510" y="420"/>
      <point x="507" y="420" type="curve" smooth="yes"/>
    </contour>
    <contour>
      <point x="481" y="775" type="curve" smooth="yes"/>
      <point x="489" y="775"/>
      <point x="495" y="778"/>
      <point x="499" y="781" type="curve" smooth="yes"/>
      <point x="590" y="858"/>
      <point x="622" y="887"/>
      <point x="687" y="943" type="curve" smooth="yes"/>
      <point x="694" y="949"/>
      <point x="693" y="957"/>
      <point x="685" y="957" type="curve" smooth="yes"/>
      <point x="614" y="957"/>
      <point x="596" y="957"/>
      <point x="513" y="957" type="curve"/>
      <point x="463" y="896"/>
      <point x="412" y="836"/>
      <point x="361" y="775" type="curve"/>
      <point x="399" y="775"/>
      <point x="418" y="775"/>
    </contour>
  </outline>
</glyph>
<glyph name="Ecircumflex" format="1">
  <advance width="600"/>
  <unicode hex="00CA"/>
  <outline>
    <contour>
      <point x="138" y="700" type="line"/>
      <point x="126" y="654"/>
      <point x="116" y="615"/>
      <point x="105" y="569" type="curve" smooth="yes"/>
      <point x="104" y="566"/>
      <point x="104" y="563"/>
      <point x="106" y="561" type="curve" smooth="yes"/>
      <point x="107" y="559"/>
      <point x="110" y="558"/>
      <point x="113" y="558" type="curve" smooth="yes"/>
      <point x="612" y="558" type="line"/>
      <point x="624" y="604"/>
      <point x="633" y="643"/>
      <point x="645" y="689" type="curve" smooth="yes"/>
      <point x="646" y="692"/>
      <point x="645" y="695"/>
      <point x="644" y="697" type="curve" smooth="yes"/>
      <point x="642" y="699"/>
      <point x="640" y="700"/>
      <point x="637" y="700" type="curve" smooth="yes"/>
    </contour>
    <contour>
      <point x="192" y="100" type="curve"/>
      <point x="327" y="639" type="line" smooth="yes"/>
      <point x="329" y="645"/>
      <point x="325" y="650"/>
      <point x="170" y="650" type="curve"/>
      <point x="43" y="142" type="line"/>
      <point x="38" y="121"/>
      <point x="62" y="100"/>
    </contour>
    <contour>
      <point x="43" y="142" type="line"/>
      <point x="10" y="11" type="line" smooth="yes"/>
      <point x="9" y="5"/>
      <point x="12" y="0"/>
      <point x="18" y="0" type="curve" smooth="yes"/>
      <point x="472" y="0" type="line"/>
      <point x="484" y="46"/>
      <point x="494" y="85"/>
      <point x="505" y="131" type="curve" smooth="yes"/>
      <point x="507" y="137"/>
      <point x="503" y="142"/>
      <point x="497" y="142" type="curve" smooth="yes"/>
    </contour>
    <contour>
      <point x="183" y="420" type="line"/>
      <point x="150" y="289"/>
      <point x="153" y="283"/>
      <point x="159" y="283" type="curve" smooth="yes"/>
      <point x="483" y="283" type="line"/>
      <point x="493" y="322"/>
      <point x="503" y="362"/>
      <point x="515" y="409" type="curve" smooth="yes"/>
      <point x="516" y="412"/>
      <point x="515" y="415"/>
      <point x="514" y="417" type="curve" smooth="yes"/>
      <point x="512" y="419"/>
      <point x="510" y="420"/>
      <point x="507" y="420" type="curve" smooth="yes"/>
    </contour>
    <contour>
      <point x="329" y="775" type="line"/>
      <point x="384" y="813"/>
      <point x="441" y="852"/>
      <point x="517" y="905" type="curve"/>
      <point x="476" y="946"/>
      <point x="464" y="947"/>
      <point x="456" y="947" type="curve"/>
      <point x="387" y="947" type="line"/>
      <point x="355" y="920"/>
      <point x="254" y="837"/>
      <point x="217" y="807" type="curve" smooth="yes"/>
      <point x="197" y="790"/>
      <point x="195" y="788"/>
      <point x="193" y="783" type="curve" smooth="yes"/>
      <point x="192" y="779"/>
      <point x="194" y="775"/>
      <point x="202" y="775" type="curve"/>
    </contour>
    <contour>
      <point x="675" y="775" type="curve"/>
      <point x="641" y="825"/>
      <point x="581" y="909"/>
      <point x="567" y="928" type="curve" smooth="yes"/>
      <point x="555" y="944"/>
      <point x="551" y="947"/>
      <point x="541" y="947" type="curve" smooth="yes"/>
      <point x="453" y="947" type="line"/>
      <point x="448" y="947"/>
      <point x="441" y="944"/>
      <point x="404" y="905" type="curve"/>
      <point x="454" y="851"/>
      <point x="500" y="802"/>
      <point x="517" y="785" type="curve" smooth="yes"/>
      <point x="524" y="777"/>
      <point x="528" y="775"/>
      <point x="543" y="775" type="curve" smooth="yes"/>
      <point x="595" y="775"/>
      <point x="647" y="775"/>
    </contour>
  </outline>
</glyph>
